%TF.GenerationSoftware,KiCad,Pcbnew,(5.1.6)-1*%
%TF.CreationDate,2020-07-18T16:30:58-07:00*%
%TF.ProjectId,BPEM488 Inputs,4250454d-3438-4382-9049-6e707574732e,rev?*%
%TF.SameCoordinates,Original*%
%TF.FileFunction,Legend,Top*%
%TF.FilePolarity,Positive*%
%FSLAX46Y46*%
G04 Gerber Fmt 4.6, Leading zero omitted, Abs format (unit mm)*
G04 Created by KiCad (PCBNEW (5.1.6)-1) date 2020-07-18 16:30:58*
%MOMM*%
%LPD*%
G01*
G04 APERTURE LIST*
%ADD10C,0.300000*%
%ADD11C,0.508000*%
%ADD12C,0.381000*%
%ADD13C,0.120000*%
%ADD14C,0.150000*%
G04 APERTURE END LIST*
D10*
X63688571Y-135042857D02*
X63902857Y-135114285D01*
X63974285Y-135185714D01*
X64045714Y-135328571D01*
X64045714Y-135542857D01*
X63974285Y-135685714D01*
X63902857Y-135757142D01*
X63759999Y-135828571D01*
X63188571Y-135828571D01*
X63188571Y-134328571D01*
X63688571Y-134328571D01*
X63831428Y-134400000D01*
X63902857Y-134471428D01*
X63974285Y-134614285D01*
X63974285Y-134757142D01*
X63902857Y-134900000D01*
X63831428Y-134971428D01*
X63688571Y-135042857D01*
X63188571Y-135042857D01*
X64688571Y-135828571D02*
X64688571Y-134328571D01*
X65259999Y-134328571D01*
X65402857Y-134400000D01*
X65474285Y-134471428D01*
X65545714Y-134614285D01*
X65545714Y-134828571D01*
X65474285Y-134971428D01*
X65402857Y-135042857D01*
X65259999Y-135114285D01*
X64688571Y-135114285D01*
X66188571Y-135042857D02*
X66688571Y-135042857D01*
X66902857Y-135828571D02*
X66188571Y-135828571D01*
X66188571Y-134328571D01*
X66902857Y-134328571D01*
X67545714Y-135828571D02*
X67545714Y-134328571D01*
X68045714Y-135400000D01*
X68545714Y-134328571D01*
X68545714Y-135828571D01*
X69902857Y-134828571D02*
X69902857Y-135828571D01*
X69545714Y-134257142D02*
X69188571Y-135328571D01*
X70117142Y-135328571D01*
X70902857Y-134971428D02*
X70760000Y-134900000D01*
X70688571Y-134828571D01*
X70617142Y-134685714D01*
X70617142Y-134614285D01*
X70688571Y-134471428D01*
X70760000Y-134400000D01*
X70902857Y-134328571D01*
X71188571Y-134328571D01*
X71331428Y-134400000D01*
X71402857Y-134471428D01*
X71474285Y-134614285D01*
X71474285Y-134685714D01*
X71402857Y-134828571D01*
X71331428Y-134900000D01*
X71188571Y-134971428D01*
X70902857Y-134971428D01*
X70760000Y-135042857D01*
X70688571Y-135114285D01*
X70617142Y-135257142D01*
X70617142Y-135542857D01*
X70688571Y-135685714D01*
X70760000Y-135757142D01*
X70902857Y-135828571D01*
X71188571Y-135828571D01*
X71331428Y-135757142D01*
X71402857Y-135685714D01*
X71474285Y-135542857D01*
X71474285Y-135257142D01*
X71402857Y-135114285D01*
X71331428Y-135042857D01*
X71188571Y-134971428D01*
X72331428Y-134971428D02*
X72188571Y-134900000D01*
X72117142Y-134828571D01*
X72045714Y-134685714D01*
X72045714Y-134614285D01*
X72117142Y-134471428D01*
X72188571Y-134400000D01*
X72331428Y-134328571D01*
X72617142Y-134328571D01*
X72760000Y-134400000D01*
X72831428Y-134471428D01*
X72902857Y-134614285D01*
X72902857Y-134685714D01*
X72831428Y-134828571D01*
X72760000Y-134900000D01*
X72617142Y-134971428D01*
X72331428Y-134971428D01*
X72188571Y-135042857D01*
X72117142Y-135114285D01*
X72045714Y-135257142D01*
X72045714Y-135542857D01*
X72117142Y-135685714D01*
X72188571Y-135757142D01*
X72331428Y-135828571D01*
X72617142Y-135828571D01*
X72760000Y-135757142D01*
X72831428Y-135685714D01*
X72902857Y-135542857D01*
X72902857Y-135257142D01*
X72831428Y-135114285D01*
X72760000Y-135042857D01*
X72617142Y-134971428D01*
X74688571Y-135828571D02*
X74688571Y-134328571D01*
X75402857Y-134828571D02*
X75402857Y-135828571D01*
X75402857Y-134971428D02*
X75474285Y-134900000D01*
X75617142Y-134828571D01*
X75831428Y-134828571D01*
X75974285Y-134900000D01*
X76045714Y-135042857D01*
X76045714Y-135828571D01*
X76760000Y-134828571D02*
X76760000Y-136328571D01*
X76760000Y-134900000D02*
X76902857Y-134828571D01*
X77188571Y-134828571D01*
X77331428Y-134900000D01*
X77402857Y-134971428D01*
X77474285Y-135114285D01*
X77474285Y-135542857D01*
X77402857Y-135685714D01*
X77331428Y-135757142D01*
X77188571Y-135828571D01*
X76902857Y-135828571D01*
X76760000Y-135757142D01*
X78760000Y-134828571D02*
X78760000Y-135828571D01*
X78117142Y-134828571D02*
X78117142Y-135614285D01*
X78188571Y-135757142D01*
X78331428Y-135828571D01*
X78545714Y-135828571D01*
X78688571Y-135757142D01*
X78760000Y-135685714D01*
X79260000Y-134828571D02*
X79831428Y-134828571D01*
X79474285Y-134328571D02*
X79474285Y-135614285D01*
X79545714Y-135757142D01*
X79688571Y-135828571D01*
X79831428Y-135828571D01*
X80260000Y-135757142D02*
X80402857Y-135828571D01*
X80688571Y-135828571D01*
X80831428Y-135757142D01*
X80902857Y-135614285D01*
X80902857Y-135542857D01*
X80831428Y-135400000D01*
X80688571Y-135328571D01*
X80474285Y-135328571D01*
X80331428Y-135257142D01*
X80260000Y-135114285D01*
X80260000Y-135042857D01*
X80331428Y-134900000D01*
X80474285Y-134828571D01*
X80688571Y-134828571D01*
X80831428Y-134900000D01*
X56724285Y-138378571D02*
X56724285Y-136878571D01*
X57081428Y-136878571D01*
X57295714Y-136950000D01*
X57438571Y-137092857D01*
X57509999Y-137235714D01*
X57581428Y-137521428D01*
X57581428Y-137735714D01*
X57509999Y-138021428D01*
X57438571Y-138164285D01*
X57295714Y-138307142D01*
X57081428Y-138378571D01*
X56724285Y-138378571D01*
X58795714Y-138307142D02*
X58652857Y-138378571D01*
X58367142Y-138378571D01*
X58224285Y-138307142D01*
X58152857Y-138164285D01*
X58152857Y-137592857D01*
X58224285Y-137450000D01*
X58367142Y-137378571D01*
X58652857Y-137378571D01*
X58795714Y-137450000D01*
X58867142Y-137592857D01*
X58867142Y-137735714D01*
X58152857Y-137878571D01*
X59438571Y-138307142D02*
X59581428Y-138378571D01*
X59867142Y-138378571D01*
X60009999Y-138307142D01*
X60081428Y-138164285D01*
X60081428Y-138092857D01*
X60009999Y-137950000D01*
X59867142Y-137878571D01*
X59652857Y-137878571D01*
X59509999Y-137807142D01*
X59438571Y-137664285D01*
X59438571Y-137592857D01*
X59509999Y-137450000D01*
X59652857Y-137378571D01*
X59867142Y-137378571D01*
X60009999Y-137450000D01*
X60724285Y-138378571D02*
X60724285Y-137378571D01*
X60724285Y-136878571D02*
X60652857Y-136950000D01*
X60724285Y-137021428D01*
X60795714Y-136950000D01*
X60724285Y-136878571D01*
X60724285Y-137021428D01*
X62081428Y-137378571D02*
X62081428Y-138592857D01*
X62009999Y-138735714D01*
X61938571Y-138807142D01*
X61795714Y-138878571D01*
X61581428Y-138878571D01*
X61438571Y-138807142D01*
X62081428Y-138307142D02*
X61938571Y-138378571D01*
X61652857Y-138378571D01*
X61509999Y-138307142D01*
X61438571Y-138235714D01*
X61367142Y-138092857D01*
X61367142Y-137664285D01*
X61438571Y-137521428D01*
X61509999Y-137450000D01*
X61652857Y-137378571D01*
X61938571Y-137378571D01*
X62081428Y-137450000D01*
X62795714Y-137378571D02*
X62795714Y-138378571D01*
X62795714Y-137521428D02*
X62867142Y-137450000D01*
X63009999Y-137378571D01*
X63224285Y-137378571D01*
X63367142Y-137450000D01*
X63438571Y-137592857D01*
X63438571Y-138378571D01*
X64724285Y-138307142D02*
X64581428Y-138378571D01*
X64295714Y-138378571D01*
X64152857Y-138307142D01*
X64081428Y-138164285D01*
X64081428Y-137592857D01*
X64152857Y-137450000D01*
X64295714Y-137378571D01*
X64581428Y-137378571D01*
X64724285Y-137450000D01*
X64795714Y-137592857D01*
X64795714Y-137735714D01*
X64081428Y-137878571D01*
X66081428Y-138378571D02*
X66081428Y-136878571D01*
X66081428Y-138307142D02*
X65938571Y-138378571D01*
X65652857Y-138378571D01*
X65509999Y-138307142D01*
X65438571Y-138235714D01*
X65367142Y-138092857D01*
X65367142Y-137664285D01*
X65438571Y-137521428D01*
X65509999Y-137450000D01*
X65652857Y-137378571D01*
X65938571Y-137378571D01*
X66081428Y-137450000D01*
X67938571Y-138378571D02*
X67938571Y-136878571D01*
X67938571Y-137450000D02*
X68081428Y-137378571D01*
X68367142Y-137378571D01*
X68510000Y-137450000D01*
X68581428Y-137521428D01*
X68652857Y-137664285D01*
X68652857Y-138092857D01*
X68581428Y-138235714D01*
X68510000Y-138307142D01*
X68367142Y-138378571D01*
X68081428Y-138378571D01*
X67938571Y-138307142D01*
X69152857Y-137378571D02*
X69509999Y-138378571D01*
X69867142Y-137378571D02*
X69509999Y-138378571D01*
X69367142Y-138735714D01*
X69295714Y-138807142D01*
X69152857Y-138878571D01*
X72438571Y-138378571D02*
X71938571Y-137664285D01*
X71581428Y-138378571D02*
X71581428Y-136878571D01*
X72152857Y-136878571D01*
X72295714Y-136950000D01*
X72367142Y-137021428D01*
X72438571Y-137164285D01*
X72438571Y-137378571D01*
X72367142Y-137521428D01*
X72295714Y-137592857D01*
X72152857Y-137664285D01*
X71581428Y-137664285D01*
X73295714Y-138378571D02*
X73152857Y-138307142D01*
X73081428Y-138235714D01*
X73009999Y-138092857D01*
X73009999Y-137664285D01*
X73081428Y-137521428D01*
X73152857Y-137450000D01*
X73295714Y-137378571D01*
X73510000Y-137378571D01*
X73652857Y-137450000D01*
X73724285Y-137521428D01*
X73795714Y-137664285D01*
X73795714Y-138092857D01*
X73724285Y-138235714D01*
X73652857Y-138307142D01*
X73510000Y-138378571D01*
X73295714Y-138378571D01*
X74438571Y-138378571D02*
X74438571Y-136878571D01*
X74438571Y-137450000D02*
X74581428Y-137378571D01*
X74867142Y-137378571D01*
X75010000Y-137450000D01*
X75081428Y-137521428D01*
X75152857Y-137664285D01*
X75152857Y-138092857D01*
X75081428Y-138235714D01*
X75010000Y-138307142D01*
X74867142Y-138378571D01*
X74581428Y-138378571D01*
X74438571Y-138307142D01*
X76367142Y-138307142D02*
X76224285Y-138378571D01*
X75938571Y-138378571D01*
X75795714Y-138307142D01*
X75724285Y-138164285D01*
X75724285Y-137592857D01*
X75795714Y-137450000D01*
X75938571Y-137378571D01*
X76224285Y-137378571D01*
X76367142Y-137450000D01*
X76438571Y-137592857D01*
X76438571Y-137735714D01*
X75724285Y-137878571D01*
X77081428Y-138378571D02*
X77081428Y-137378571D01*
X77081428Y-137664285D02*
X77152857Y-137521428D01*
X77224285Y-137450000D01*
X77367142Y-137378571D01*
X77510000Y-137378571D01*
X77795714Y-137378571D02*
X78367142Y-137378571D01*
X78010000Y-136878571D02*
X78010000Y-138164285D01*
X78081428Y-138307142D01*
X78224285Y-138378571D01*
X78367142Y-138378571D01*
X80010000Y-138378571D02*
X80010000Y-136878571D01*
X80010000Y-137592857D02*
X80867142Y-137592857D01*
X80867142Y-138378571D02*
X80867142Y-136878571D01*
X81581428Y-138378571D02*
X81581428Y-137378571D01*
X81581428Y-136878571D02*
X81510000Y-136950000D01*
X81581428Y-137021428D01*
X81652857Y-136950000D01*
X81581428Y-136878571D01*
X81581428Y-137021428D01*
X82867142Y-138307142D02*
X82724285Y-138378571D01*
X82438571Y-138378571D01*
X82295714Y-138307142D01*
X82224285Y-138164285D01*
X82224285Y-137592857D01*
X82295714Y-137450000D01*
X82438571Y-137378571D01*
X82724285Y-137378571D01*
X82867142Y-137450000D01*
X82938571Y-137592857D01*
X82938571Y-137735714D01*
X82224285Y-137878571D01*
X83581428Y-138378571D02*
X83581428Y-136878571D01*
X83581428Y-137450000D02*
X83724285Y-137378571D01*
X84010000Y-137378571D01*
X84152857Y-137450000D01*
X84224285Y-137521428D01*
X84295714Y-137664285D01*
X84295714Y-138092857D01*
X84224285Y-138235714D01*
X84152857Y-138307142D01*
X84010000Y-138378571D01*
X83724285Y-138378571D01*
X83581428Y-138307142D01*
X85510000Y-138307142D02*
X85367142Y-138378571D01*
X85081428Y-138378571D01*
X84938571Y-138307142D01*
X84867142Y-138164285D01*
X84867142Y-137592857D01*
X84938571Y-137450000D01*
X85081428Y-137378571D01*
X85367142Y-137378571D01*
X85510000Y-137450000D01*
X85581428Y-137592857D01*
X85581428Y-137735714D01*
X84867142Y-137878571D01*
X86224285Y-138378571D02*
X86224285Y-137378571D01*
X86224285Y-137664285D02*
X86295714Y-137521428D01*
X86367142Y-137450000D01*
X86510000Y-137378571D01*
X86652857Y-137378571D01*
X86938571Y-137378571D02*
X87510000Y-137378571D01*
X87152857Y-136878571D02*
X87152857Y-138164285D01*
X87224285Y-138307142D01*
X87367142Y-138378571D01*
X87510000Y-138378571D01*
X66795714Y-139428571D02*
X67795714Y-139428571D01*
X67152857Y-140928571D01*
X68367142Y-140357142D02*
X69510000Y-140357142D01*
X71010000Y-140928571D02*
X70152857Y-140928571D01*
X70581428Y-140928571D02*
X70581428Y-139428571D01*
X70438571Y-139642857D01*
X70295714Y-139785714D01*
X70152857Y-139857142D01*
X71581428Y-139571428D02*
X71652857Y-139500000D01*
X71795714Y-139428571D01*
X72152857Y-139428571D01*
X72295714Y-139500000D01*
X72367142Y-139571428D01*
X72438571Y-139714285D01*
X72438571Y-139857142D01*
X72367142Y-140071428D01*
X71510000Y-140928571D01*
X72438571Y-140928571D01*
X73081428Y-140357142D02*
X74224285Y-140357142D01*
X74867142Y-139571428D02*
X74938571Y-139500000D01*
X75081428Y-139428571D01*
X75438571Y-139428571D01*
X75581428Y-139500000D01*
X75652857Y-139571428D01*
X75724285Y-139714285D01*
X75724285Y-139857142D01*
X75652857Y-140071428D01*
X74795714Y-140928571D01*
X75724285Y-140928571D01*
X76652857Y-139428571D02*
X76795714Y-139428571D01*
X76938571Y-139500000D01*
X77010000Y-139571428D01*
X77081428Y-139714285D01*
X77152857Y-140000000D01*
X77152857Y-140357142D01*
X77081428Y-140642857D01*
X77010000Y-140785714D01*
X76938571Y-140857142D01*
X76795714Y-140928571D01*
X76652857Y-140928571D01*
X76510000Y-140857142D01*
X76438571Y-140785714D01*
X76367142Y-140642857D01*
X76295714Y-140357142D01*
X76295714Y-140000000D01*
X76367142Y-139714285D01*
X76438571Y-139571428D01*
X76510000Y-139500000D01*
X76652857Y-139428571D01*
D11*
X199571428Y-114179047D02*
X199571428Y-111639047D01*
X200660000Y-113453333D02*
X201869523Y-113453333D01*
X200418095Y-114179047D02*
X201264761Y-111639047D01*
X202111428Y-114179047D01*
X204409523Y-113937142D02*
X204288571Y-114058095D01*
X203925714Y-114179047D01*
X203683809Y-114179047D01*
X203320952Y-114058095D01*
X203079047Y-113816190D01*
X202958095Y-113574285D01*
X202837142Y-113090476D01*
X202837142Y-112727619D01*
X202958095Y-112243809D01*
X203079047Y-112001904D01*
X203320952Y-111760000D01*
X203683809Y-111639047D01*
X203925714Y-111639047D01*
X204288571Y-111760000D01*
X204409523Y-111880952D01*
X196487142Y-79889047D02*
X196487142Y-77349047D01*
X197454761Y-77349047D01*
X197696666Y-77470000D01*
X197817619Y-77590952D01*
X197938571Y-77832857D01*
X197938571Y-78195714D01*
X197817619Y-78437619D01*
X197696666Y-78558571D01*
X197454761Y-78679523D01*
X196487142Y-78679523D01*
X198906190Y-79163333D02*
X200115714Y-79163333D01*
X198664285Y-79889047D02*
X199510952Y-77349047D01*
X200357619Y-79889047D01*
X201204285Y-79889047D02*
X201204285Y-77349047D01*
X201809047Y-77349047D01*
X202171904Y-77470000D01*
X202413809Y-77711904D01*
X202534761Y-77953809D01*
X202655714Y-78437619D01*
X202655714Y-78800476D01*
X202534761Y-79284285D01*
X202413809Y-79526190D01*
X202171904Y-79768095D01*
X201809047Y-79889047D01*
X201204285Y-79889047D01*
X205074761Y-79889047D02*
X203623333Y-79889047D01*
X204349047Y-79889047D02*
X204349047Y-77349047D01*
X204107142Y-77711904D01*
X203865238Y-77953809D01*
X203623333Y-78074761D01*
X206042380Y-77590952D02*
X206163333Y-77470000D01*
X206405238Y-77349047D01*
X207010000Y-77349047D01*
X207251904Y-77470000D01*
X207372857Y-77590952D01*
X207493809Y-77832857D01*
X207493809Y-78074761D01*
X207372857Y-78437619D01*
X205921428Y-79889047D01*
X207493809Y-79889047D01*
X172115238Y-114118571D02*
X172961904Y-114118571D01*
X173324761Y-115449047D02*
X172115238Y-115449047D01*
X172115238Y-112909047D01*
X173324761Y-112909047D01*
X174897142Y-112909047D02*
X175380952Y-112909047D01*
X175622857Y-113030000D01*
X175864761Y-113271904D01*
X175985714Y-113755714D01*
X175985714Y-114602380D01*
X175864761Y-115086190D01*
X175622857Y-115328095D01*
X175380952Y-115449047D01*
X174897142Y-115449047D01*
X174655238Y-115328095D01*
X174413333Y-115086190D01*
X174292380Y-114602380D01*
X174292380Y-113755714D01*
X174413333Y-113271904D01*
X174655238Y-113030000D01*
X174897142Y-112909047D01*
X177074285Y-115449047D02*
X177074285Y-112909047D01*
X178041904Y-112909047D01*
X178283809Y-113030000D01*
X178404761Y-113150952D01*
X178525714Y-113392857D01*
X178525714Y-113755714D01*
X178404761Y-113997619D01*
X178283809Y-114118571D01*
X178041904Y-114239523D01*
X177074285Y-114239523D01*
X169333333Y-78558571D02*
X168486666Y-78558571D01*
X168486666Y-79889047D02*
X168486666Y-77349047D01*
X169696190Y-77349047D01*
X172236190Y-77349047D02*
X173687619Y-77349047D01*
X172961904Y-79889047D02*
X172961904Y-77349047D01*
X174534285Y-79889047D02*
X174534285Y-78195714D01*
X174534285Y-78679523D02*
X174655238Y-78437619D01*
X174776190Y-78316666D01*
X175018095Y-78195714D01*
X175260000Y-78195714D01*
X176106666Y-79889047D02*
X176106666Y-78195714D01*
X176106666Y-77349047D02*
X175985714Y-77470000D01*
X176106666Y-77590952D01*
X176227619Y-77470000D01*
X176106666Y-77349047D01*
X176106666Y-77590952D01*
X177316190Y-79889047D02*
X177316190Y-78195714D01*
X177316190Y-78437619D02*
X177437142Y-78316666D01*
X177679047Y-78195714D01*
X178041904Y-78195714D01*
X178283809Y-78316666D01*
X178404761Y-78558571D01*
X178404761Y-79889047D01*
X178404761Y-78558571D02*
X178525714Y-78316666D01*
X178767619Y-78195714D01*
X179130476Y-78195714D01*
X179372380Y-78316666D01*
X179493333Y-78558571D01*
X179493333Y-79889047D01*
X143147142Y-114118571D02*
X143993809Y-114118571D01*
X144356666Y-115449047D02*
X143147142Y-115449047D01*
X143147142Y-112909047D01*
X144356666Y-112909047D01*
X146291904Y-114118571D02*
X145445238Y-114118571D01*
X145445238Y-115449047D02*
X145445238Y-112909047D01*
X146654761Y-112909047D01*
X147622380Y-115449047D02*
X147622380Y-112909047D01*
X148590000Y-112909047D01*
X148831904Y-113030000D01*
X148952857Y-113150952D01*
X149073809Y-113392857D01*
X149073809Y-113755714D01*
X148952857Y-113997619D01*
X148831904Y-114118571D01*
X148590000Y-114239523D01*
X147622380Y-114239523D01*
X139760476Y-81159047D02*
X139760476Y-78619047D01*
X142542380Y-78619047D02*
X143993809Y-78619047D01*
X143268095Y-81159047D02*
X143268095Y-78619047D01*
X144840476Y-81159047D02*
X144840476Y-79465714D01*
X144840476Y-79949523D02*
X144961428Y-79707619D01*
X145082380Y-79586666D01*
X145324285Y-79465714D01*
X145566190Y-79465714D01*
X146412857Y-81159047D02*
X146412857Y-79465714D01*
X146412857Y-78619047D02*
X146291904Y-78740000D01*
X146412857Y-78860952D01*
X146533809Y-78740000D01*
X146412857Y-78619047D01*
X146412857Y-78860952D01*
X147622380Y-81159047D02*
X147622380Y-79465714D01*
X147622380Y-79707619D02*
X147743333Y-79586666D01*
X147985238Y-79465714D01*
X148348095Y-79465714D01*
X148590000Y-79586666D01*
X148710952Y-79828571D01*
X148710952Y-81159047D01*
X148710952Y-79828571D02*
X148831904Y-79586666D01*
X149073809Y-79465714D01*
X149436666Y-79465714D01*
X149678571Y-79586666D01*
X149799523Y-79828571D01*
X149799523Y-81159047D01*
X112667142Y-79889047D02*
X112667142Y-77349047D01*
X113634761Y-77349047D01*
X113876666Y-77470000D01*
X113997619Y-77590952D01*
X114118571Y-77832857D01*
X114118571Y-78195714D01*
X113997619Y-78437619D01*
X113876666Y-78558571D01*
X113634761Y-78679523D01*
X112667142Y-78679523D01*
X115086190Y-79163333D02*
X116295714Y-79163333D01*
X114844285Y-79889047D02*
X115690952Y-77349047D01*
X116537619Y-79889047D01*
X117384285Y-79889047D02*
X117384285Y-77349047D01*
X117989047Y-77349047D01*
X118351904Y-77470000D01*
X118593809Y-77711904D01*
X118714761Y-77953809D01*
X118835714Y-78437619D01*
X118835714Y-78800476D01*
X118714761Y-79284285D01*
X118593809Y-79526190D01*
X118351904Y-79768095D01*
X117989047Y-79889047D01*
X117384285Y-79889047D01*
X120408095Y-77349047D02*
X120650000Y-77349047D01*
X120891904Y-77470000D01*
X121012857Y-77590952D01*
X121133809Y-77832857D01*
X121254761Y-78316666D01*
X121254761Y-78921428D01*
X121133809Y-79405238D01*
X121012857Y-79647142D01*
X120891904Y-79768095D01*
X120650000Y-79889047D01*
X120408095Y-79889047D01*
X120166190Y-79768095D01*
X120045238Y-79647142D01*
X119924285Y-79405238D01*
X119803333Y-78921428D01*
X119803333Y-78316666D01*
X119924285Y-77832857D01*
X120045238Y-77590952D01*
X120166190Y-77470000D01*
X120408095Y-77349047D01*
X122101428Y-77349047D02*
X123673809Y-77349047D01*
X122827142Y-78316666D01*
X123190000Y-78316666D01*
X123431904Y-78437619D01*
X123552857Y-78558571D01*
X123673809Y-78800476D01*
X123673809Y-79405238D01*
X123552857Y-79647142D01*
X123431904Y-79768095D01*
X123190000Y-79889047D01*
X122464285Y-79889047D01*
X122222380Y-79768095D01*
X122101428Y-79647142D01*
X114965238Y-114118571D02*
X115811904Y-114118571D01*
X116174761Y-115449047D02*
X114965238Y-115449047D01*
X114965238Y-112909047D01*
X116174761Y-112909047D01*
X118593809Y-113030000D02*
X118351904Y-112909047D01*
X117989047Y-112909047D01*
X117626190Y-113030000D01*
X117384285Y-113271904D01*
X117263333Y-113513809D01*
X117142380Y-113997619D01*
X117142380Y-114360476D01*
X117263333Y-114844285D01*
X117384285Y-115086190D01*
X117626190Y-115328095D01*
X117989047Y-115449047D01*
X118230952Y-115449047D01*
X118593809Y-115328095D01*
X118714761Y-115207142D01*
X118714761Y-114360476D01*
X118230952Y-114360476D01*
X120287142Y-112909047D02*
X120770952Y-112909047D01*
X121012857Y-113030000D01*
X121254761Y-113271904D01*
X121375714Y-113755714D01*
X121375714Y-114602380D01*
X121254761Y-115086190D01*
X121012857Y-115328095D01*
X120770952Y-115449047D01*
X120287142Y-115449047D01*
X120045238Y-115328095D01*
X119803333Y-115086190D01*
X119682380Y-114602380D01*
X119682380Y-113755714D01*
X119803333Y-113271904D01*
X120045238Y-113030000D01*
X120287142Y-112909047D01*
X86964761Y-115449047D02*
X86964761Y-112909047D01*
X87811428Y-114723333D01*
X88658095Y-112909047D01*
X88658095Y-115449047D01*
X89746666Y-114723333D02*
X90956190Y-114723333D01*
X89504761Y-115449047D02*
X90351428Y-112909047D01*
X91198095Y-115449047D01*
X92044761Y-115449047D02*
X92044761Y-112909047D01*
X93012380Y-112909047D01*
X93254285Y-113030000D01*
X93375238Y-113150952D01*
X93496190Y-113392857D01*
X93496190Y-113755714D01*
X93375238Y-113997619D01*
X93254285Y-114118571D01*
X93012380Y-114239523D01*
X92044761Y-114239523D01*
X87267142Y-79889047D02*
X87267142Y-77349047D01*
X88113809Y-79163333D01*
X88960476Y-77349047D01*
X88960476Y-79889047D01*
X90049047Y-79163333D02*
X91258571Y-79163333D01*
X89807142Y-79889047D02*
X90653809Y-77349047D01*
X91500476Y-79889047D01*
X91984285Y-77349047D02*
X93435714Y-77349047D01*
X92710000Y-79889047D02*
X92710000Y-77349047D01*
X61020476Y-79647142D02*
X60899523Y-79768095D01*
X60536666Y-79889047D01*
X60294761Y-79889047D01*
X59931904Y-79768095D01*
X59690000Y-79526190D01*
X59569047Y-79284285D01*
X59448095Y-78800476D01*
X59448095Y-78437619D01*
X59569047Y-77953809D01*
X59690000Y-77711904D01*
X59931904Y-77470000D01*
X60294761Y-77349047D01*
X60536666Y-77349047D01*
X60899523Y-77470000D01*
X61020476Y-77590952D01*
X63318571Y-79889047D02*
X62109047Y-79889047D01*
X62109047Y-77349047D01*
X63802380Y-77349047D02*
X65253809Y-77349047D01*
X64528095Y-79889047D02*
X64528095Y-77349047D01*
D12*
X180219047Y-48683333D02*
X177679047Y-48683333D01*
X177679047Y-47715714D01*
X177800000Y-47473809D01*
X177920952Y-47352857D01*
X178162857Y-47231904D01*
X178525714Y-47231904D01*
X178767619Y-47352857D01*
X178888571Y-47473809D01*
X179009523Y-47715714D01*
X179009523Y-48683333D01*
X179493333Y-46264285D02*
X179493333Y-45054761D01*
X180219047Y-46506190D02*
X177679047Y-45659523D01*
X180219047Y-44812857D01*
X177679047Y-42877619D02*
X177679047Y-43361428D01*
X177800000Y-43603333D01*
X177920952Y-43724285D01*
X178283809Y-43966190D01*
X178767619Y-44087142D01*
X179735238Y-44087142D01*
X179977142Y-43966190D01*
X180098095Y-43845238D01*
X180219047Y-43603333D01*
X180219047Y-43119523D01*
X180098095Y-42877619D01*
X179977142Y-42756666D01*
X179735238Y-42635714D01*
X179130476Y-42635714D01*
X178888571Y-42756666D01*
X178767619Y-42877619D01*
X178646666Y-43119523D01*
X178646666Y-43603333D01*
X178767619Y-43845238D01*
X178888571Y-43966190D01*
X179130476Y-44087142D01*
X156089047Y-48683333D02*
X153549047Y-48683333D01*
X153549047Y-47715714D01*
X153670000Y-47473809D01*
X153790952Y-47352857D01*
X154032857Y-47231904D01*
X154395714Y-47231904D01*
X154637619Y-47352857D01*
X154758571Y-47473809D01*
X154879523Y-47715714D01*
X154879523Y-48683333D01*
X155363333Y-46264285D02*
X155363333Y-45054761D01*
X156089047Y-46506190D02*
X153549047Y-45659523D01*
X156089047Y-44812857D01*
X153549047Y-42756666D02*
X153549047Y-43966190D01*
X154758571Y-44087142D01*
X154637619Y-43966190D01*
X154516666Y-43724285D01*
X154516666Y-43119523D01*
X154637619Y-42877619D01*
X154758571Y-42756666D01*
X155000476Y-42635714D01*
X155605238Y-42635714D01*
X155847142Y-42756666D01*
X155968095Y-42877619D01*
X156089047Y-43119523D01*
X156089047Y-43724285D01*
X155968095Y-43966190D01*
X155847142Y-44087142D01*
X131959047Y-48683333D02*
X129419047Y-48683333D01*
X129419047Y-47715714D01*
X129540000Y-47473809D01*
X129660952Y-47352857D01*
X129902857Y-47231904D01*
X130265714Y-47231904D01*
X130507619Y-47352857D01*
X130628571Y-47473809D01*
X130749523Y-47715714D01*
X130749523Y-48683333D01*
X131233333Y-46264285D02*
X131233333Y-45054761D01*
X131959047Y-46506190D02*
X129419047Y-45659523D01*
X131959047Y-44812857D01*
X130265714Y-42877619D02*
X131959047Y-42877619D01*
X129298095Y-43482380D02*
X131112380Y-44087142D01*
X131112380Y-42514761D01*
X107103333Y-51949047D02*
X107103333Y-50739523D01*
X107829047Y-52190952D02*
X105289047Y-51344285D01*
X107829047Y-50497619D01*
X107829047Y-49288095D02*
X107708095Y-49530000D01*
X107466190Y-49650952D01*
X105289047Y-49650952D01*
X107829047Y-48320476D02*
X106135714Y-48320476D01*
X106619523Y-48320476D02*
X106377619Y-48199523D01*
X106256666Y-48078571D01*
X106135714Y-47836666D01*
X106135714Y-47594761D01*
X107829047Y-46748095D02*
X106135714Y-46748095D01*
X106377619Y-46748095D02*
X106256666Y-46627142D01*
X106135714Y-46385238D01*
X106135714Y-46022380D01*
X106256666Y-45780476D01*
X106498571Y-45659523D01*
X107829047Y-45659523D01*
X106498571Y-45659523D02*
X106256666Y-45538571D01*
X106135714Y-45296666D01*
X106135714Y-44933809D01*
X106256666Y-44691904D01*
X106498571Y-44570952D01*
X107829047Y-44570952D01*
X107708095Y-43482380D02*
X107829047Y-43119523D01*
X107829047Y-42514761D01*
X107708095Y-42272857D01*
X107587142Y-42151904D01*
X107345238Y-42030952D01*
X107103333Y-42030952D01*
X106861428Y-42151904D01*
X106740476Y-42272857D01*
X106619523Y-42514761D01*
X106498571Y-42998571D01*
X106377619Y-43240476D01*
X106256666Y-43361428D01*
X106014761Y-43482380D01*
X105772857Y-43482380D01*
X105530952Y-43361428D01*
X105410000Y-43240476D01*
X105289047Y-42998571D01*
X105289047Y-42393809D01*
X105410000Y-42030952D01*
X107829047Y-40942380D02*
X106135714Y-40942380D01*
X105289047Y-40942380D02*
X105410000Y-41063333D01*
X105530952Y-40942380D01*
X105410000Y-40821428D01*
X105289047Y-40942380D01*
X105530952Y-40942380D01*
X107829047Y-39370000D02*
X107708095Y-39611904D01*
X107466190Y-39732857D01*
X105289047Y-39732857D01*
X82368571Y-51041904D02*
X82368571Y-51888571D01*
X83699047Y-51888571D02*
X81159047Y-51888571D01*
X81159047Y-50679047D01*
X81159047Y-50074285D02*
X81159047Y-48622857D01*
X83699047Y-49348571D02*
X81159047Y-49348571D01*
X83699047Y-47776190D02*
X82005714Y-47776190D01*
X82489523Y-47776190D02*
X82247619Y-47655238D01*
X82126666Y-47534285D01*
X82005714Y-47292380D01*
X82005714Y-47050476D01*
X83699047Y-46203809D02*
X82005714Y-46203809D01*
X82247619Y-46203809D02*
X82126666Y-46082857D01*
X82005714Y-45840952D01*
X82005714Y-45478095D01*
X82126666Y-45236190D01*
X82368571Y-45115238D01*
X83699047Y-45115238D01*
X82368571Y-45115238D02*
X82126666Y-44994285D01*
X82005714Y-44752380D01*
X82005714Y-44389523D01*
X82126666Y-44147619D01*
X82368571Y-44026666D01*
X83699047Y-44026666D01*
X83578095Y-41849523D02*
X83699047Y-42091428D01*
X83699047Y-42575238D01*
X83578095Y-42817142D01*
X83336190Y-42938095D01*
X82368571Y-42938095D01*
X82126666Y-42817142D01*
X82005714Y-42575238D01*
X82005714Y-42091428D01*
X82126666Y-41849523D01*
X82368571Y-41728571D01*
X82610476Y-41728571D01*
X82852380Y-42938095D01*
X82005714Y-40640000D02*
X83699047Y-40640000D01*
X82247619Y-40640000D02*
X82126666Y-40519047D01*
X82005714Y-40277142D01*
X82005714Y-39914285D01*
X82126666Y-39672380D01*
X82368571Y-39551428D01*
X83699047Y-39551428D01*
X59569047Y-51404761D02*
X57029047Y-51404761D01*
X57029047Y-50558095D02*
X57029047Y-49106666D01*
X59569047Y-49832380D02*
X57029047Y-49832380D01*
X59569047Y-48260000D02*
X57875714Y-48260000D01*
X58359523Y-48260000D02*
X58117619Y-48139047D01*
X57996666Y-48018095D01*
X57875714Y-47776190D01*
X57875714Y-47534285D01*
X59569047Y-46687619D02*
X57875714Y-46687619D01*
X58117619Y-46687619D02*
X57996666Y-46566666D01*
X57875714Y-46324761D01*
X57875714Y-45961904D01*
X57996666Y-45720000D01*
X58238571Y-45599047D01*
X59569047Y-45599047D01*
X58238571Y-45599047D02*
X57996666Y-45478095D01*
X57875714Y-45236190D01*
X57875714Y-44873333D01*
X57996666Y-44631428D01*
X58238571Y-44510476D01*
X59569047Y-44510476D01*
X59448095Y-42333333D02*
X59569047Y-42575238D01*
X59569047Y-43059047D01*
X59448095Y-43300952D01*
X59206190Y-43421904D01*
X58238571Y-43421904D01*
X57996666Y-43300952D01*
X57875714Y-43059047D01*
X57875714Y-42575238D01*
X57996666Y-42333333D01*
X58238571Y-42212380D01*
X58480476Y-42212380D01*
X58722380Y-43421904D01*
X57875714Y-41123809D02*
X59569047Y-41123809D01*
X58117619Y-41123809D02*
X57996666Y-41002857D01*
X57875714Y-40760952D01*
X57875714Y-40398095D01*
X57996666Y-40156190D01*
X58238571Y-40035238D01*
X59569047Y-40035238D01*
D11*
X59024761Y-112909047D02*
X60476190Y-112909047D01*
X59750476Y-115449047D02*
X59750476Y-112909047D01*
X61322857Y-115449047D02*
X61322857Y-112909047D01*
X62290476Y-112909047D01*
X62532380Y-113030000D01*
X62653333Y-113150952D01*
X62774285Y-113392857D01*
X62774285Y-113755714D01*
X62653333Y-113997619D01*
X62532380Y-114118571D01*
X62290476Y-114239523D01*
X61322857Y-114239523D01*
X63741904Y-115328095D02*
X64104761Y-115449047D01*
X64709523Y-115449047D01*
X64951428Y-115328095D01*
X65072380Y-115207142D01*
X65193333Y-114965238D01*
X65193333Y-114723333D01*
X65072380Y-114481428D01*
X64951428Y-114360476D01*
X64709523Y-114239523D01*
X64225714Y-114118571D01*
X63983809Y-113997619D01*
X63862857Y-113876666D01*
X63741904Y-113634761D01*
X63741904Y-113392857D01*
X63862857Y-113150952D01*
X63983809Y-113030000D01*
X64225714Y-112909047D01*
X64830476Y-112909047D01*
X65193333Y-113030000D01*
D13*
%TO.C,SW7*%
X196037200Y-90170000D02*
X207822800Y-90170000D01*
X207822800Y-90170000D02*
X207822800Y-105410000D01*
X196037200Y-105410000D02*
X207822800Y-105410000D01*
X196037200Y-90170000D02*
X196037200Y-105410000D01*
%TO.C,RV4*%
X156845000Y-64770000D02*
G75*
G03*
X156845000Y-64770000I-12065000J0D01*
G01*
X134620000Y-81915000D02*
X154940000Y-81915000D01*
X154965400Y-81887060D02*
X154965400Y-71247000D01*
X134627620Y-81907380D02*
X134627620Y-71247000D01*
%TO.C,J1*%
X88210400Y-141940000D02*
X95830400Y-141940000D01*
X95830400Y-141940000D02*
X95830400Y-149560000D01*
X95830400Y-149560000D02*
X88210400Y-149560000D01*
X88210400Y-149560000D02*
X88210400Y-141940000D01*
%TO.C,J2*%
X95830400Y-149560000D02*
X95830400Y-141940000D01*
X103450400Y-149560000D02*
X95830400Y-149560000D01*
X103450400Y-141940000D02*
X103450400Y-149560000D01*
X95830400Y-141940000D02*
X103450400Y-141940000D01*
%TO.C,J3*%
X107870000Y-141940000D02*
X120570000Y-141940000D01*
X120570000Y-149560000D02*
X107870000Y-149560000D01*
X120570000Y-141940000D02*
X124380000Y-141940000D01*
X124380000Y-141940000D02*
X124380000Y-149560000D01*
X124380000Y-149560000D02*
X120570000Y-149560000D01*
X107870000Y-141940000D02*
X104060000Y-141940000D01*
X104060000Y-141940000D02*
X104060000Y-149560000D01*
X104060000Y-149560000D02*
X107870000Y-149560000D01*
%TO.C,J4*%
X124380000Y-149560000D02*
X128190000Y-149560000D01*
X124380000Y-141940000D02*
X124380000Y-149560000D01*
X128190000Y-141940000D02*
X124380000Y-141940000D01*
X144700000Y-149560000D02*
X140890000Y-149560000D01*
X144700000Y-141940000D02*
X144700000Y-149560000D01*
X140890000Y-141940000D02*
X144700000Y-141940000D01*
X140890000Y-149560000D02*
X128190000Y-149560000D01*
X128190000Y-141940000D02*
X140890000Y-141940000D01*
%TO.C,J5*%
X148510000Y-141940000D02*
X161210000Y-141940000D01*
X161210000Y-149560000D02*
X148510000Y-149560000D01*
X161210000Y-141940000D02*
X165020000Y-141940000D01*
X165020000Y-141940000D02*
X165020000Y-149560000D01*
X165020000Y-149560000D02*
X161210000Y-149560000D01*
X148510000Y-141940000D02*
X144700000Y-141940000D01*
X144700000Y-141940000D02*
X144700000Y-149560000D01*
X144700000Y-149560000D02*
X148510000Y-149560000D01*
%TO.C,J6*%
X165020000Y-149560000D02*
X165020000Y-141940000D01*
X177720000Y-149560000D02*
X165020000Y-149560000D01*
X177720000Y-141940000D02*
X177720000Y-149560000D01*
X165020000Y-141940000D02*
X177720000Y-141940000D01*
%TO.C,RV1*%
X72263000Y-64770000D02*
G75*
G03*
X72263000Y-64770000I-10033000J0D01*
G01*
X53086000Y-77470000D02*
X71374000Y-77470000D01*
X71394320Y-77421740D02*
X71394320Y-68877180D01*
X53086000Y-77421740D02*
X53086000Y-68844160D01*
%TO.C,RV2*%
X81026000Y-77421740D02*
X81026000Y-68844160D01*
X99334320Y-77421740D02*
X99334320Y-68877180D01*
X81026000Y-77470000D02*
X99314000Y-77470000D01*
X100203000Y-64770000D02*
G75*
G03*
X100203000Y-64770000I-10033000J0D01*
G01*
%TO.C,RV3*%
X128143000Y-64770000D02*
G75*
G03*
X128143000Y-64770000I-10033000J0D01*
G01*
X108966000Y-77470000D02*
X127254000Y-77470000D01*
X127274320Y-77421740D02*
X127274320Y-68877180D01*
X108966000Y-77421740D02*
X108966000Y-68844160D01*
%TO.C,RV5*%
X163837620Y-80637380D02*
X163837620Y-69977000D01*
X184175400Y-80617060D02*
X184175400Y-69977000D01*
X163830000Y-80645000D02*
X184150000Y-80645000D01*
X186055000Y-63500000D02*
G75*
G03*
X186055000Y-63500000I-12065000J0D01*
G01*
%TO.C,RV6*%
X74295000Y-99060000D02*
G75*
G03*
X74295000Y-99060000I-12065000J0D01*
G01*
X52070000Y-116205000D02*
X72390000Y-116205000D01*
X72415400Y-116177060D02*
X72415400Y-105537000D01*
X52077620Y-116197380D02*
X52077620Y-105537000D01*
%TO.C,RV7*%
X80017620Y-116197380D02*
X80017620Y-105537000D01*
X100355400Y-116177060D02*
X100355400Y-105537000D01*
X80010000Y-116205000D02*
X100330000Y-116205000D01*
X102235000Y-99060000D02*
G75*
G03*
X102235000Y-99060000I-12065000J0D01*
G01*
%TO.C,RV8*%
X130175000Y-99060000D02*
G75*
G03*
X130175000Y-99060000I-12065000J0D01*
G01*
X107950000Y-116205000D02*
X128270000Y-116205000D01*
X128295400Y-116177060D02*
X128295400Y-105537000D01*
X107957620Y-116197380D02*
X107957620Y-105537000D01*
%TO.C,RV9*%
X135897620Y-116197380D02*
X135897620Y-105537000D01*
X156235400Y-116177060D02*
X156235400Y-105537000D01*
X135890000Y-116205000D02*
X156210000Y-116205000D01*
X158115000Y-99060000D02*
G75*
G03*
X158115000Y-99060000I-12065000J0D01*
G01*
%TO.C,RV10*%
X186055000Y-99060000D02*
G75*
G03*
X186055000Y-99060000I-12065000J0D01*
G01*
X163830000Y-116205000D02*
X184150000Y-116205000D01*
X184175400Y-116177060D02*
X184175400Y-105537000D01*
X163837620Y-116197380D02*
X163837620Y-105537000D01*
%TO.C,RV11*%
X191777620Y-80637380D02*
X191777620Y-69977000D01*
X212115400Y-80617060D02*
X212115400Y-69977000D01*
X191770000Y-80645000D02*
X212090000Y-80645000D01*
X213995000Y-63500000D02*
G75*
G03*
X213995000Y-63500000I-12065000J0D01*
G01*
%TO.C,SW1*%
X61620400Y-49707800D02*
X78079600Y-49707800D01*
X61620400Y-39547800D02*
X78079600Y-39547800D01*
X78079600Y-49707800D02*
X78079600Y-39547800D01*
X61620400Y-49707800D02*
X61620400Y-39547800D01*
%TO.C,SW2*%
X86233000Y-49707800D02*
X86233000Y-39547800D01*
X102692200Y-49707800D02*
X102692200Y-39547800D01*
X86233000Y-39547800D02*
X102692200Y-39547800D01*
X86233000Y-49707800D02*
X102692200Y-49707800D01*
%TO.C,SW3*%
X110363000Y-49707800D02*
X126822200Y-49707800D01*
X110363000Y-39547800D02*
X126822200Y-39547800D01*
X126822200Y-49707800D02*
X126822200Y-39547800D01*
X110363000Y-49707800D02*
X110363000Y-39547800D01*
%TO.C,SW4*%
X134493000Y-49707800D02*
X134493000Y-39547800D01*
X150952200Y-49707800D02*
X150952200Y-39547800D01*
X134493000Y-39547800D02*
X150952200Y-39547800D01*
X134493000Y-49707800D02*
X150952200Y-49707800D01*
%TO.C,SW5*%
X158140400Y-49707800D02*
X174599600Y-49707800D01*
X158140400Y-39547800D02*
X174599600Y-39547800D01*
X174599600Y-49707800D02*
X174599600Y-39547800D01*
X158140400Y-49707800D02*
X158140400Y-39547800D01*
%TO.C,SW6*%
X182270400Y-49707800D02*
X182270400Y-39547800D01*
X198729600Y-49707800D02*
X198729600Y-39547800D01*
X182270400Y-39547800D02*
X198729600Y-39547800D01*
X182270400Y-49707800D02*
X198729600Y-49707800D01*
%TO.C,SW7*%
D14*
X200624606Y-89144741D02*
X200767463Y-89192360D01*
X201005559Y-89192360D01*
X201100797Y-89144741D01*
X201148416Y-89097122D01*
X201196035Y-89001884D01*
X201196035Y-88906646D01*
X201148416Y-88811408D01*
X201100797Y-88763789D01*
X201005559Y-88716170D01*
X200815082Y-88668551D01*
X200719844Y-88620932D01*
X200672225Y-88573313D01*
X200624606Y-88478075D01*
X200624606Y-88382837D01*
X200672225Y-88287599D01*
X200719844Y-88239980D01*
X200815082Y-88192360D01*
X201053178Y-88192360D01*
X201196035Y-88239980D01*
X201529368Y-88192360D02*
X201767463Y-89192360D01*
X201957940Y-88478075D01*
X202148416Y-89192360D01*
X202386511Y-88192360D01*
X202672225Y-88192360D02*
X203338892Y-88192360D01*
X202910320Y-89192360D01*
X210052380Y-102858571D02*
X209576190Y-103191904D01*
X210052380Y-103430000D02*
X209052380Y-103430000D01*
X209052380Y-103049047D01*
X209100000Y-102953809D01*
X209147619Y-102906190D01*
X209242857Y-102858571D01*
X209385714Y-102858571D01*
X209480952Y-102906190D01*
X209528571Y-102953809D01*
X209576190Y-103049047D01*
X209576190Y-103430000D01*
X210052380Y-102287142D02*
X210004761Y-102382380D01*
X209957142Y-102430000D01*
X209861904Y-102477619D01*
X209576190Y-102477619D01*
X209480952Y-102430000D01*
X209433333Y-102382380D01*
X209385714Y-102287142D01*
X209385714Y-102144285D01*
X209433333Y-102049047D01*
X209480952Y-102001428D01*
X209576190Y-101953809D01*
X209861904Y-101953809D01*
X209957142Y-102001428D01*
X210004761Y-102049047D01*
X210052380Y-102144285D01*
X210052380Y-102287142D01*
X209385714Y-101668095D02*
X209385714Y-101287142D01*
X209052380Y-101525238D02*
X209909523Y-101525238D01*
X210004761Y-101477619D01*
X210052380Y-101382380D01*
X210052380Y-101287142D01*
X210052380Y-100525238D02*
X209528571Y-100525238D01*
X209433333Y-100572857D01*
X209385714Y-100668095D01*
X209385714Y-100858571D01*
X209433333Y-100953809D01*
X210004761Y-100525238D02*
X210052380Y-100620476D01*
X210052380Y-100858571D01*
X210004761Y-100953809D01*
X209909523Y-101001428D01*
X209814285Y-101001428D01*
X209719047Y-100953809D01*
X209671428Y-100858571D01*
X209671428Y-100620476D01*
X209623809Y-100525238D01*
X210052380Y-100049047D02*
X209385714Y-100049047D01*
X209576190Y-100049047D02*
X209480952Y-100001428D01*
X209433333Y-99953809D01*
X209385714Y-99858571D01*
X209385714Y-99763333D01*
X209385714Y-99525238D02*
X210052380Y-99287142D01*
X209385714Y-99049047D02*
X210052380Y-99287142D01*
X210290476Y-99382380D01*
X210338095Y-99430000D01*
X210385714Y-99525238D01*
X210147619Y-98906190D02*
X210147619Y-98144285D01*
X209528571Y-97906190D02*
X209528571Y-97572857D01*
X210052380Y-97430000D02*
X210052380Y-97906190D01*
X209052380Y-97906190D01*
X209052380Y-97430000D01*
X209385714Y-97001428D02*
X210052380Y-97001428D01*
X209480952Y-97001428D02*
X209433333Y-96953809D01*
X209385714Y-96858571D01*
X209385714Y-96715714D01*
X209433333Y-96620476D01*
X209528571Y-96572857D01*
X210052380Y-96572857D01*
X210004761Y-95668095D02*
X210052380Y-95763333D01*
X210052380Y-95953809D01*
X210004761Y-96049047D01*
X209957142Y-96096666D01*
X209861904Y-96144285D01*
X209576190Y-96144285D01*
X209480952Y-96096666D01*
X209433333Y-96049047D01*
X209385714Y-95953809D01*
X209385714Y-95763333D01*
X209433333Y-95668095D01*
X210052380Y-95096666D02*
X210004761Y-95191904D01*
X209957142Y-95239523D01*
X209861904Y-95287142D01*
X209576190Y-95287142D01*
X209480952Y-95239523D01*
X209433333Y-95191904D01*
X209385714Y-95096666D01*
X209385714Y-94953809D01*
X209433333Y-94858571D01*
X209480952Y-94810952D01*
X209576190Y-94763333D01*
X209861904Y-94763333D01*
X209957142Y-94810952D01*
X210004761Y-94858571D01*
X210052380Y-94953809D01*
X210052380Y-95096666D01*
X210052380Y-93906190D02*
X209052380Y-93906190D01*
X210004761Y-93906190D02*
X210052380Y-94001428D01*
X210052380Y-94191904D01*
X210004761Y-94287142D01*
X209957142Y-94334761D01*
X209861904Y-94382380D01*
X209576190Y-94382380D01*
X209480952Y-94334761D01*
X209433333Y-94287142D01*
X209385714Y-94191904D01*
X209385714Y-94001428D01*
X209433333Y-93906190D01*
X210004761Y-93049047D02*
X210052380Y-93144285D01*
X210052380Y-93334761D01*
X210004761Y-93430000D01*
X209909523Y-93477619D01*
X209528571Y-93477619D01*
X209433333Y-93430000D01*
X209385714Y-93334761D01*
X209385714Y-93144285D01*
X209433333Y-93049047D01*
X209528571Y-93001428D01*
X209623809Y-93001428D01*
X209719047Y-93477619D01*
X210052380Y-92572857D02*
X209385714Y-92572857D01*
X209576190Y-92572857D02*
X209480952Y-92525238D01*
X209433333Y-92477619D01*
X209385714Y-92382380D01*
X209385714Y-92287142D01*
%TO.C,REF\u002A\u002A*%
X49466666Y-136342380D02*
X49133333Y-135866190D01*
X48895238Y-136342380D02*
X48895238Y-135342380D01*
X49276190Y-135342380D01*
X49371428Y-135390000D01*
X49419047Y-135437619D01*
X49466666Y-135532857D01*
X49466666Y-135675714D01*
X49419047Y-135770952D01*
X49371428Y-135818571D01*
X49276190Y-135866190D01*
X48895238Y-135866190D01*
X49895238Y-135818571D02*
X50228571Y-135818571D01*
X50371428Y-136342380D02*
X49895238Y-136342380D01*
X49895238Y-135342380D01*
X50371428Y-135342380D01*
X51133333Y-135818571D02*
X50800000Y-135818571D01*
X50800000Y-136342380D02*
X50800000Y-135342380D01*
X51276190Y-135342380D01*
X51800000Y-135342380D02*
X51800000Y-135580476D01*
X51561904Y-135485238D02*
X51800000Y-135580476D01*
X52038095Y-135485238D01*
X51657142Y-135770952D02*
X51800000Y-135580476D01*
X51942857Y-135770952D01*
X52561904Y-135342380D02*
X52561904Y-135580476D01*
X52323809Y-135485238D02*
X52561904Y-135580476D01*
X52800000Y-135485238D01*
X52419047Y-135770952D02*
X52561904Y-135580476D01*
X52704761Y-135770952D01*
X206946666Y-136342380D02*
X206613333Y-135866190D01*
X206375238Y-136342380D02*
X206375238Y-135342380D01*
X206756190Y-135342380D01*
X206851428Y-135390000D01*
X206899047Y-135437619D01*
X206946666Y-135532857D01*
X206946666Y-135675714D01*
X206899047Y-135770952D01*
X206851428Y-135818571D01*
X206756190Y-135866190D01*
X206375238Y-135866190D01*
X207375238Y-135818571D02*
X207708571Y-135818571D01*
X207851428Y-136342380D02*
X207375238Y-136342380D01*
X207375238Y-135342380D01*
X207851428Y-135342380D01*
X208613333Y-135818571D02*
X208280000Y-135818571D01*
X208280000Y-136342380D02*
X208280000Y-135342380D01*
X208756190Y-135342380D01*
X209280000Y-135342380D02*
X209280000Y-135580476D01*
X209041904Y-135485238D02*
X209280000Y-135580476D01*
X209518095Y-135485238D01*
X209137142Y-135770952D02*
X209280000Y-135580476D01*
X209422857Y-135770952D01*
X210041904Y-135342380D02*
X210041904Y-135580476D01*
X209803809Y-135485238D02*
X210041904Y-135580476D01*
X210280000Y-135485238D01*
X209899047Y-135770952D02*
X210041904Y-135580476D01*
X210184761Y-135770952D01*
X49466666Y-40572380D02*
X49133333Y-40096190D01*
X48895238Y-40572380D02*
X48895238Y-39572380D01*
X49276190Y-39572380D01*
X49371428Y-39620000D01*
X49419047Y-39667619D01*
X49466666Y-39762857D01*
X49466666Y-39905714D01*
X49419047Y-40000952D01*
X49371428Y-40048571D01*
X49276190Y-40096190D01*
X48895238Y-40096190D01*
X49895238Y-40048571D02*
X50228571Y-40048571D01*
X50371428Y-40572380D02*
X49895238Y-40572380D01*
X49895238Y-39572380D01*
X50371428Y-39572380D01*
X51133333Y-40048571D02*
X50800000Y-40048571D01*
X50800000Y-40572380D02*
X50800000Y-39572380D01*
X51276190Y-39572380D01*
X51800000Y-39572380D02*
X51800000Y-39810476D01*
X51561904Y-39715238D02*
X51800000Y-39810476D01*
X52038095Y-39715238D01*
X51657142Y-40000952D02*
X51800000Y-39810476D01*
X51942857Y-40000952D01*
X52561904Y-39572380D02*
X52561904Y-39810476D01*
X52323809Y-39715238D02*
X52561904Y-39810476D01*
X52800000Y-39715238D01*
X52419047Y-40000952D02*
X52561904Y-39810476D01*
X52704761Y-40000952D01*
X206946666Y-40572380D02*
X206613333Y-40096190D01*
X206375238Y-40572380D02*
X206375238Y-39572380D01*
X206756190Y-39572380D01*
X206851428Y-39620000D01*
X206899047Y-39667619D01*
X206946666Y-39762857D01*
X206946666Y-39905714D01*
X206899047Y-40000952D01*
X206851428Y-40048571D01*
X206756190Y-40096190D01*
X206375238Y-40096190D01*
X207375238Y-40048571D02*
X207708571Y-40048571D01*
X207851428Y-40572380D02*
X207375238Y-40572380D01*
X207375238Y-39572380D01*
X207851428Y-39572380D01*
X208613333Y-40048571D02*
X208280000Y-40048571D01*
X208280000Y-40572380D02*
X208280000Y-39572380D01*
X208756190Y-39572380D01*
X209280000Y-39572380D02*
X209280000Y-39810476D01*
X209041904Y-39715238D02*
X209280000Y-39810476D01*
X209518095Y-39715238D01*
X209137142Y-40000952D02*
X209280000Y-39810476D01*
X209422857Y-40000952D01*
X210041904Y-39572380D02*
X210041904Y-39810476D01*
X209803809Y-39715238D02*
X210041904Y-39810476D01*
X210280000Y-39715238D01*
X209899047Y-40000952D02*
X210041904Y-39810476D01*
X210184761Y-40000952D01*
%TO.C,RV4*%
X144177141Y-56322220D02*
X143843808Y-55846030D01*
X143605713Y-56322220D02*
X143605713Y-55322220D01*
X143986665Y-55322220D01*
X144081903Y-55369840D01*
X144129522Y-55417459D01*
X144177141Y-55512697D01*
X144177141Y-55655554D01*
X144129522Y-55750792D01*
X144081903Y-55798411D01*
X143986665Y-55846030D01*
X143605713Y-55846030D01*
X144462856Y-55322220D02*
X144796189Y-56322220D01*
X145129522Y-55322220D01*
X145891427Y-55655554D02*
X145891427Y-56322220D01*
X145653332Y-55274601D02*
X145415237Y-55988887D01*
X146034284Y-55988887D01*
X144089523Y-75382380D02*
X143518095Y-75382380D01*
X143803809Y-75382380D02*
X143803809Y-74382380D01*
X143708571Y-74525238D01*
X143613333Y-74620476D01*
X143518095Y-74668095D01*
X144708571Y-74382380D02*
X144803809Y-74382380D01*
X144899047Y-74430000D01*
X144946666Y-74477619D01*
X144994285Y-74572857D01*
X145041904Y-74763333D01*
X145041904Y-75001428D01*
X144994285Y-75191904D01*
X144946666Y-75287142D01*
X144899047Y-75334761D01*
X144803809Y-75382380D01*
X144708571Y-75382380D01*
X144613333Y-75334761D01*
X144565714Y-75287142D01*
X144518095Y-75191904D01*
X144470476Y-75001428D01*
X144470476Y-74763333D01*
X144518095Y-74572857D01*
X144565714Y-74477619D01*
X144613333Y-74430000D01*
X144708571Y-74382380D01*
X145470476Y-75382380D02*
X145470476Y-74382380D01*
X146041904Y-75382380D02*
X145613333Y-74810952D01*
X146041904Y-74382380D02*
X145470476Y-74953809D01*
%TO.C,J1*%
X91736666Y-137212380D02*
X91736666Y-137926666D01*
X91689047Y-138069523D01*
X91593809Y-138164761D01*
X91450952Y-138212380D01*
X91355714Y-138212380D01*
X92736666Y-138212380D02*
X92165238Y-138212380D01*
X92450952Y-138212380D02*
X92450952Y-137212380D01*
X92355714Y-137355238D01*
X92260476Y-137450476D01*
X92165238Y-137498095D01*
%TO.C,J2*%
X99106666Y-137482380D02*
X99106666Y-138196666D01*
X99059047Y-138339523D01*
X98963809Y-138434761D01*
X98820952Y-138482380D01*
X98725714Y-138482380D01*
X99535238Y-137577619D02*
X99582857Y-137530000D01*
X99678095Y-137482380D01*
X99916190Y-137482380D01*
X100011428Y-137530000D01*
X100059047Y-137577619D01*
X100106666Y-137672857D01*
X100106666Y-137768095D01*
X100059047Y-137910952D01*
X99487619Y-138482380D01*
X100106666Y-138482380D01*
%TO.C,J3*%
X113936666Y-137832380D02*
X113936666Y-138546666D01*
X113889047Y-138689523D01*
X113793809Y-138784761D01*
X113650952Y-138832380D01*
X113555714Y-138832380D01*
X114317619Y-137832380D02*
X114936666Y-137832380D01*
X114603333Y-138213333D01*
X114746190Y-138213333D01*
X114841428Y-138260952D01*
X114889047Y-138308571D01*
X114936666Y-138403809D01*
X114936666Y-138641904D01*
X114889047Y-138737142D01*
X114841428Y-138784761D01*
X114746190Y-138832380D01*
X114460476Y-138832380D01*
X114365238Y-138784761D01*
X114317619Y-138737142D01*
%TO.C,J4*%
X133916666Y-138282380D02*
X133916666Y-138996666D01*
X133869047Y-139139523D01*
X133773809Y-139234761D01*
X133630952Y-139282380D01*
X133535714Y-139282380D01*
X134821428Y-138615714D02*
X134821428Y-139282380D01*
X134583333Y-138234761D02*
X134345238Y-138949047D01*
X134964285Y-138949047D01*
%TO.C,J5*%
X153906666Y-138282380D02*
X153906666Y-138996666D01*
X153859047Y-139139523D01*
X153763809Y-139234761D01*
X153620952Y-139282380D01*
X153525714Y-139282380D01*
X154859047Y-138282380D02*
X154382857Y-138282380D01*
X154335238Y-138758571D01*
X154382857Y-138710952D01*
X154478095Y-138663333D01*
X154716190Y-138663333D01*
X154811428Y-138710952D01*
X154859047Y-138758571D01*
X154906666Y-138853809D01*
X154906666Y-139091904D01*
X154859047Y-139187142D01*
X154811428Y-139234761D01*
X154716190Y-139282380D01*
X154478095Y-139282380D01*
X154382857Y-139234761D01*
X154335238Y-139187142D01*
%TO.C,J6*%
X170506666Y-138012380D02*
X170506666Y-138726666D01*
X170459047Y-138869523D01*
X170363809Y-138964761D01*
X170220952Y-139012380D01*
X170125714Y-139012380D01*
X171411428Y-138012380D02*
X171220952Y-138012380D01*
X171125714Y-138060000D01*
X171078095Y-138107619D01*
X170982857Y-138250476D01*
X170935238Y-138440952D01*
X170935238Y-138821904D01*
X170982857Y-138917142D01*
X171030476Y-138964761D01*
X171125714Y-139012380D01*
X171316190Y-139012380D01*
X171411428Y-138964761D01*
X171459047Y-138917142D01*
X171506666Y-138821904D01*
X171506666Y-138583809D01*
X171459047Y-138488571D01*
X171411428Y-138440952D01*
X171316190Y-138393333D01*
X171125714Y-138393333D01*
X171030476Y-138440952D01*
X170982857Y-138488571D01*
X170935238Y-138583809D01*
%TO.C,RV1*%
X61627141Y-57569360D02*
X61293808Y-57093170D01*
X61055713Y-57569360D02*
X61055713Y-56569360D01*
X61436665Y-56569360D01*
X61531903Y-56616980D01*
X61579522Y-56664599D01*
X61627141Y-56759837D01*
X61627141Y-56902694D01*
X61579522Y-56997932D01*
X61531903Y-57045551D01*
X61436665Y-57093170D01*
X61055713Y-57093170D01*
X61912856Y-56569360D02*
X62246189Y-57569360D01*
X62579522Y-56569360D01*
X63436665Y-57569360D02*
X62865237Y-57569360D01*
X63150951Y-57569360D02*
X63150951Y-56569360D01*
X63055713Y-56712218D01*
X62960475Y-56807456D01*
X62865237Y-56855075D01*
X61319873Y-74112380D02*
X60748444Y-74112380D01*
X61034159Y-74112380D02*
X61034159Y-73112380D01*
X60938920Y-73255238D01*
X60843682Y-73350476D01*
X60748444Y-73398095D01*
X61938920Y-73112380D02*
X62034159Y-73112380D01*
X62129397Y-73160000D01*
X62177016Y-73207619D01*
X62224635Y-73302857D01*
X62272254Y-73493333D01*
X62272254Y-73731428D01*
X62224635Y-73921904D01*
X62177016Y-74017142D01*
X62129397Y-74064761D01*
X62034159Y-74112380D01*
X61938920Y-74112380D01*
X61843682Y-74064761D01*
X61796063Y-74017142D01*
X61748444Y-73921904D01*
X61700825Y-73731428D01*
X61700825Y-73493333D01*
X61748444Y-73302857D01*
X61796063Y-73207619D01*
X61843682Y-73160000D01*
X61938920Y-73112380D01*
X62891301Y-73112380D02*
X62986540Y-73112380D01*
X63081778Y-73160000D01*
X63129397Y-73207619D01*
X63177016Y-73302857D01*
X63224635Y-73493333D01*
X63224635Y-73731428D01*
X63177016Y-73921904D01*
X63129397Y-74017142D01*
X63081778Y-74064761D01*
X62986540Y-74112380D01*
X62891301Y-74112380D01*
X62796063Y-74064761D01*
X62748444Y-74017142D01*
X62700825Y-73921904D01*
X62653206Y-73731428D01*
X62653206Y-73493333D01*
X62700825Y-73302857D01*
X62748444Y-73207619D01*
X62796063Y-73160000D01*
X62891301Y-73112380D01*
X63653206Y-74112380D02*
X63653206Y-73112380D01*
X64224635Y-74112380D02*
X63796063Y-73540952D01*
X64224635Y-73112380D02*
X63653206Y-73683809D01*
%TO.C,RV2*%
X89567141Y-57569360D02*
X89233808Y-57093170D01*
X88995713Y-57569360D02*
X88995713Y-56569360D01*
X89376665Y-56569360D01*
X89471903Y-56616980D01*
X89519522Y-56664599D01*
X89567141Y-56759837D01*
X89567141Y-56902694D01*
X89519522Y-56997932D01*
X89471903Y-57045551D01*
X89376665Y-57093170D01*
X88995713Y-57093170D01*
X89852856Y-56569360D02*
X90186189Y-57569360D01*
X90519522Y-56569360D01*
X90805237Y-56664599D02*
X90852856Y-56616980D01*
X90948094Y-56569360D01*
X91186189Y-56569360D01*
X91281427Y-56616980D01*
X91329046Y-56664599D01*
X91376665Y-56759837D01*
X91376665Y-56855075D01*
X91329046Y-56997932D01*
X90757618Y-57569360D01*
X91376665Y-57569360D01*
X89259873Y-74112380D02*
X88688444Y-74112380D01*
X88974159Y-74112380D02*
X88974159Y-73112380D01*
X88878920Y-73255238D01*
X88783682Y-73350476D01*
X88688444Y-73398095D01*
X89878920Y-73112380D02*
X89974159Y-73112380D01*
X90069397Y-73160000D01*
X90117016Y-73207619D01*
X90164635Y-73302857D01*
X90212254Y-73493333D01*
X90212254Y-73731428D01*
X90164635Y-73921904D01*
X90117016Y-74017142D01*
X90069397Y-74064761D01*
X89974159Y-74112380D01*
X89878920Y-74112380D01*
X89783682Y-74064761D01*
X89736063Y-74017142D01*
X89688444Y-73921904D01*
X89640825Y-73731428D01*
X89640825Y-73493333D01*
X89688444Y-73302857D01*
X89736063Y-73207619D01*
X89783682Y-73160000D01*
X89878920Y-73112380D01*
X90831301Y-73112380D02*
X90926540Y-73112380D01*
X91021778Y-73160000D01*
X91069397Y-73207619D01*
X91117016Y-73302857D01*
X91164635Y-73493333D01*
X91164635Y-73731428D01*
X91117016Y-73921904D01*
X91069397Y-74017142D01*
X91021778Y-74064761D01*
X90926540Y-74112380D01*
X90831301Y-74112380D01*
X90736063Y-74064761D01*
X90688444Y-74017142D01*
X90640825Y-73921904D01*
X90593206Y-73731428D01*
X90593206Y-73493333D01*
X90640825Y-73302857D01*
X90688444Y-73207619D01*
X90736063Y-73160000D01*
X90831301Y-73112380D01*
X91593206Y-74112380D02*
X91593206Y-73112380D01*
X92164635Y-74112380D02*
X91736063Y-73540952D01*
X92164635Y-73112380D02*
X91593206Y-73683809D01*
%TO.C,RV3*%
X117507141Y-57569360D02*
X117173808Y-57093170D01*
X116935713Y-57569360D02*
X116935713Y-56569360D01*
X117316665Y-56569360D01*
X117411903Y-56616980D01*
X117459522Y-56664599D01*
X117507141Y-56759837D01*
X117507141Y-56902694D01*
X117459522Y-56997932D01*
X117411903Y-57045551D01*
X117316665Y-57093170D01*
X116935713Y-57093170D01*
X117792856Y-56569360D02*
X118126189Y-57569360D01*
X118459522Y-56569360D01*
X118697618Y-56569360D02*
X119316665Y-56569360D01*
X118983332Y-56950313D01*
X119126189Y-56950313D01*
X119221427Y-56997932D01*
X119269046Y-57045551D01*
X119316665Y-57140789D01*
X119316665Y-57378884D01*
X119269046Y-57474122D01*
X119221427Y-57521741D01*
X119126189Y-57569360D01*
X118840475Y-57569360D01*
X118745237Y-57521741D01*
X118697618Y-57474122D01*
X117199873Y-74112380D02*
X116628444Y-74112380D01*
X116914159Y-74112380D02*
X116914159Y-73112380D01*
X116818920Y-73255238D01*
X116723682Y-73350476D01*
X116628444Y-73398095D01*
X117818920Y-73112380D02*
X117914159Y-73112380D01*
X118009397Y-73160000D01*
X118057016Y-73207619D01*
X118104635Y-73302857D01*
X118152254Y-73493333D01*
X118152254Y-73731428D01*
X118104635Y-73921904D01*
X118057016Y-74017142D01*
X118009397Y-74064761D01*
X117914159Y-74112380D01*
X117818920Y-74112380D01*
X117723682Y-74064761D01*
X117676063Y-74017142D01*
X117628444Y-73921904D01*
X117580825Y-73731428D01*
X117580825Y-73493333D01*
X117628444Y-73302857D01*
X117676063Y-73207619D01*
X117723682Y-73160000D01*
X117818920Y-73112380D01*
X118771301Y-73112380D02*
X118866540Y-73112380D01*
X118961778Y-73160000D01*
X119009397Y-73207619D01*
X119057016Y-73302857D01*
X119104635Y-73493333D01*
X119104635Y-73731428D01*
X119057016Y-73921904D01*
X119009397Y-74017142D01*
X118961778Y-74064761D01*
X118866540Y-74112380D01*
X118771301Y-74112380D01*
X118676063Y-74064761D01*
X118628444Y-74017142D01*
X118580825Y-73921904D01*
X118533206Y-73731428D01*
X118533206Y-73493333D01*
X118580825Y-73302857D01*
X118628444Y-73207619D01*
X118676063Y-73160000D01*
X118771301Y-73112380D01*
X119533206Y-74112380D02*
X119533206Y-73112380D01*
X120104635Y-74112380D02*
X119676063Y-73540952D01*
X120104635Y-73112380D02*
X119533206Y-73683809D01*
%TO.C,RV5*%
X173387141Y-55052220D02*
X173053808Y-54576030D01*
X172815713Y-55052220D02*
X172815713Y-54052220D01*
X173196665Y-54052220D01*
X173291903Y-54099840D01*
X173339522Y-54147459D01*
X173387141Y-54242697D01*
X173387141Y-54385554D01*
X173339522Y-54480792D01*
X173291903Y-54528411D01*
X173196665Y-54576030D01*
X172815713Y-54576030D01*
X173672856Y-54052220D02*
X174006189Y-55052220D01*
X174339522Y-54052220D01*
X175149046Y-54052220D02*
X174672856Y-54052220D01*
X174625237Y-54528411D01*
X174672856Y-54480792D01*
X174768094Y-54433173D01*
X175006189Y-54433173D01*
X175101427Y-54480792D01*
X175149046Y-54528411D01*
X175196665Y-54623649D01*
X175196665Y-54861744D01*
X175149046Y-54956982D01*
X175101427Y-55004601D01*
X175006189Y-55052220D01*
X174768094Y-55052220D01*
X174672856Y-55004601D01*
X174625237Y-54956982D01*
X173299523Y-74112380D02*
X172728095Y-74112380D01*
X173013809Y-74112380D02*
X173013809Y-73112380D01*
X172918571Y-73255238D01*
X172823333Y-73350476D01*
X172728095Y-73398095D01*
X173918571Y-73112380D02*
X174013809Y-73112380D01*
X174109047Y-73160000D01*
X174156666Y-73207619D01*
X174204285Y-73302857D01*
X174251904Y-73493333D01*
X174251904Y-73731428D01*
X174204285Y-73921904D01*
X174156666Y-74017142D01*
X174109047Y-74064761D01*
X174013809Y-74112380D01*
X173918571Y-74112380D01*
X173823333Y-74064761D01*
X173775714Y-74017142D01*
X173728095Y-73921904D01*
X173680476Y-73731428D01*
X173680476Y-73493333D01*
X173728095Y-73302857D01*
X173775714Y-73207619D01*
X173823333Y-73160000D01*
X173918571Y-73112380D01*
X174680476Y-74112380D02*
X174680476Y-73112380D01*
X175251904Y-74112380D02*
X174823333Y-73540952D01*
X175251904Y-73112380D02*
X174680476Y-73683809D01*
%TO.C,RV6*%
X61627141Y-90612220D02*
X61293808Y-90136030D01*
X61055713Y-90612220D02*
X61055713Y-89612220D01*
X61436665Y-89612220D01*
X61531903Y-89659840D01*
X61579522Y-89707459D01*
X61627141Y-89802697D01*
X61627141Y-89945554D01*
X61579522Y-90040792D01*
X61531903Y-90088411D01*
X61436665Y-90136030D01*
X61055713Y-90136030D01*
X61912856Y-89612220D02*
X62246189Y-90612220D01*
X62579522Y-89612220D01*
X63341427Y-89612220D02*
X63150951Y-89612220D01*
X63055713Y-89659840D01*
X63008094Y-89707459D01*
X62912856Y-89850316D01*
X62865237Y-90040792D01*
X62865237Y-90421744D01*
X62912856Y-90516982D01*
X62960475Y-90564601D01*
X63055713Y-90612220D01*
X63246189Y-90612220D01*
X63341427Y-90564601D01*
X63389046Y-90516982D01*
X63436665Y-90421744D01*
X63436665Y-90183649D01*
X63389046Y-90088411D01*
X63341427Y-90040792D01*
X63246189Y-89993173D01*
X63055713Y-89993173D01*
X62960475Y-90040792D01*
X62912856Y-90088411D01*
X62865237Y-90183649D01*
X61539523Y-109672380D02*
X60968095Y-109672380D01*
X61253809Y-109672380D02*
X61253809Y-108672380D01*
X61158571Y-108815238D01*
X61063333Y-108910476D01*
X60968095Y-108958095D01*
X62158571Y-108672380D02*
X62253809Y-108672380D01*
X62349047Y-108720000D01*
X62396666Y-108767619D01*
X62444285Y-108862857D01*
X62491904Y-109053333D01*
X62491904Y-109291428D01*
X62444285Y-109481904D01*
X62396666Y-109577142D01*
X62349047Y-109624761D01*
X62253809Y-109672380D01*
X62158571Y-109672380D01*
X62063333Y-109624761D01*
X62015714Y-109577142D01*
X61968095Y-109481904D01*
X61920476Y-109291428D01*
X61920476Y-109053333D01*
X61968095Y-108862857D01*
X62015714Y-108767619D01*
X62063333Y-108720000D01*
X62158571Y-108672380D01*
X62920476Y-109672380D02*
X62920476Y-108672380D01*
X63491904Y-109672380D02*
X63063333Y-109100952D01*
X63491904Y-108672380D02*
X62920476Y-109243809D01*
%TO.C,RV7*%
X89567141Y-90612220D02*
X89233808Y-90136030D01*
X88995713Y-90612220D02*
X88995713Y-89612220D01*
X89376665Y-89612220D01*
X89471903Y-89659840D01*
X89519522Y-89707459D01*
X89567141Y-89802697D01*
X89567141Y-89945554D01*
X89519522Y-90040792D01*
X89471903Y-90088411D01*
X89376665Y-90136030D01*
X88995713Y-90136030D01*
X89852856Y-89612220D02*
X90186189Y-90612220D01*
X90519522Y-89612220D01*
X90757618Y-89612220D02*
X91424284Y-89612220D01*
X90995713Y-90612220D01*
X89573503Y-109672380D02*
X89002075Y-109672380D01*
X89287789Y-109672380D02*
X89287789Y-108672380D01*
X89192551Y-108815238D01*
X89097313Y-108910476D01*
X89002075Y-108958095D01*
X90192551Y-108672380D02*
X90287789Y-108672380D01*
X90383027Y-108720000D01*
X90430646Y-108767619D01*
X90478265Y-108862857D01*
X90525884Y-109053333D01*
X90525884Y-109291428D01*
X90478265Y-109481904D01*
X90430646Y-109577142D01*
X90383027Y-109624761D01*
X90287789Y-109672380D01*
X90192551Y-109672380D01*
X90097313Y-109624761D01*
X90049694Y-109577142D01*
X90002075Y-109481904D01*
X89954456Y-109291428D01*
X89954456Y-109053333D01*
X90002075Y-108862857D01*
X90049694Y-108767619D01*
X90097313Y-108720000D01*
X90192551Y-108672380D01*
X90954456Y-109672380D02*
X90954456Y-108672380D01*
X91525884Y-109672380D02*
X91097313Y-109100952D01*
X91525884Y-108672380D02*
X90954456Y-109243809D01*
%TO.C,RV8*%
X117507141Y-90612220D02*
X117173808Y-90136030D01*
X116935713Y-90612220D02*
X116935713Y-89612220D01*
X117316665Y-89612220D01*
X117411903Y-89659840D01*
X117459522Y-89707459D01*
X117507141Y-89802697D01*
X117507141Y-89945554D01*
X117459522Y-90040792D01*
X117411903Y-90088411D01*
X117316665Y-90136030D01*
X116935713Y-90136030D01*
X117792856Y-89612220D02*
X118126189Y-90612220D01*
X118459522Y-89612220D01*
X118935713Y-90040792D02*
X118840475Y-89993173D01*
X118792856Y-89945554D01*
X118745237Y-89850316D01*
X118745237Y-89802697D01*
X118792856Y-89707459D01*
X118840475Y-89659840D01*
X118935713Y-89612220D01*
X119126189Y-89612220D01*
X119221427Y-89659840D01*
X119269046Y-89707459D01*
X119316665Y-89802697D01*
X119316665Y-89850316D01*
X119269046Y-89945554D01*
X119221427Y-89993173D01*
X119126189Y-90040792D01*
X118935713Y-90040792D01*
X118840475Y-90088411D01*
X118792856Y-90136030D01*
X118745237Y-90231268D01*
X118745237Y-90421744D01*
X118792856Y-90516982D01*
X118840475Y-90564601D01*
X118935713Y-90612220D01*
X119126189Y-90612220D01*
X119221427Y-90564601D01*
X119269046Y-90516982D01*
X119316665Y-90421744D01*
X119316665Y-90231268D01*
X119269046Y-90136030D01*
X119221427Y-90088411D01*
X119126189Y-90040792D01*
X117419523Y-109672380D02*
X116848095Y-109672380D01*
X117133809Y-109672380D02*
X117133809Y-108672380D01*
X117038571Y-108815238D01*
X116943333Y-108910476D01*
X116848095Y-108958095D01*
X118038571Y-108672380D02*
X118133809Y-108672380D01*
X118229047Y-108720000D01*
X118276666Y-108767619D01*
X118324285Y-108862857D01*
X118371904Y-109053333D01*
X118371904Y-109291428D01*
X118324285Y-109481904D01*
X118276666Y-109577142D01*
X118229047Y-109624761D01*
X118133809Y-109672380D01*
X118038571Y-109672380D01*
X117943333Y-109624761D01*
X117895714Y-109577142D01*
X117848095Y-109481904D01*
X117800476Y-109291428D01*
X117800476Y-109053333D01*
X117848095Y-108862857D01*
X117895714Y-108767619D01*
X117943333Y-108720000D01*
X118038571Y-108672380D01*
X118800476Y-109672380D02*
X118800476Y-108672380D01*
X119371904Y-109672380D02*
X118943333Y-109100952D01*
X119371904Y-108672380D02*
X118800476Y-109243809D01*
%TO.C,RV9*%
X145447141Y-90612220D02*
X145113808Y-90136030D01*
X144875713Y-90612220D02*
X144875713Y-89612220D01*
X145256665Y-89612220D01*
X145351903Y-89659840D01*
X145399522Y-89707459D01*
X145447141Y-89802697D01*
X145447141Y-89945554D01*
X145399522Y-90040792D01*
X145351903Y-90088411D01*
X145256665Y-90136030D01*
X144875713Y-90136030D01*
X145732856Y-89612220D02*
X146066189Y-90612220D01*
X146399522Y-89612220D01*
X146780475Y-90612220D02*
X146970951Y-90612220D01*
X147066189Y-90564601D01*
X147113808Y-90516982D01*
X147209046Y-90374125D01*
X147256665Y-90183649D01*
X147256665Y-89802697D01*
X147209046Y-89707459D01*
X147161427Y-89659840D01*
X147066189Y-89612220D01*
X146875713Y-89612220D01*
X146780475Y-89659840D01*
X146732856Y-89707459D01*
X146685237Y-89802697D01*
X146685237Y-90040792D01*
X146732856Y-90136030D01*
X146780475Y-90183649D01*
X146875713Y-90231268D01*
X147066189Y-90231268D01*
X147161427Y-90183649D01*
X147209046Y-90136030D01*
X147256665Y-90040792D01*
X145359523Y-109672380D02*
X144788095Y-109672380D01*
X145073809Y-109672380D02*
X145073809Y-108672380D01*
X144978571Y-108815238D01*
X144883333Y-108910476D01*
X144788095Y-108958095D01*
X145978571Y-108672380D02*
X146073809Y-108672380D01*
X146169047Y-108720000D01*
X146216666Y-108767619D01*
X146264285Y-108862857D01*
X146311904Y-109053333D01*
X146311904Y-109291428D01*
X146264285Y-109481904D01*
X146216666Y-109577142D01*
X146169047Y-109624761D01*
X146073809Y-109672380D01*
X145978571Y-109672380D01*
X145883333Y-109624761D01*
X145835714Y-109577142D01*
X145788095Y-109481904D01*
X145740476Y-109291428D01*
X145740476Y-109053333D01*
X145788095Y-108862857D01*
X145835714Y-108767619D01*
X145883333Y-108720000D01*
X145978571Y-108672380D01*
X146740476Y-109672380D02*
X146740476Y-108672380D01*
X147311904Y-109672380D02*
X146883333Y-109100952D01*
X147311904Y-108672380D02*
X146740476Y-109243809D01*
%TO.C,RV10*%
X172910951Y-90612220D02*
X172577618Y-90136030D01*
X172339522Y-90612220D02*
X172339522Y-89612220D01*
X172720475Y-89612220D01*
X172815713Y-89659840D01*
X172863332Y-89707459D01*
X172910951Y-89802697D01*
X172910951Y-89945554D01*
X172863332Y-90040792D01*
X172815713Y-90088411D01*
X172720475Y-90136030D01*
X172339522Y-90136030D01*
X173196665Y-89612220D02*
X173529999Y-90612220D01*
X173863332Y-89612220D01*
X174720475Y-90612220D02*
X174149046Y-90612220D01*
X174434760Y-90612220D02*
X174434760Y-89612220D01*
X174339522Y-89755078D01*
X174244284Y-89850316D01*
X174149046Y-89897935D01*
X175339522Y-89612220D02*
X175434760Y-89612220D01*
X175529999Y-89659840D01*
X175577618Y-89707459D01*
X175625237Y-89802697D01*
X175672856Y-89993173D01*
X175672856Y-90231268D01*
X175625237Y-90421744D01*
X175577618Y-90516982D01*
X175529999Y-90564601D01*
X175434760Y-90612220D01*
X175339522Y-90612220D01*
X175244284Y-90564601D01*
X175196665Y-90516982D01*
X175149046Y-90421744D01*
X175101427Y-90231268D01*
X175101427Y-89993173D01*
X175149046Y-89802697D01*
X175196665Y-89707459D01*
X175244284Y-89659840D01*
X175339522Y-89612220D01*
X173299523Y-109672380D02*
X172728095Y-109672380D01*
X173013809Y-109672380D02*
X173013809Y-108672380D01*
X172918571Y-108815238D01*
X172823333Y-108910476D01*
X172728095Y-108958095D01*
X173918571Y-108672380D02*
X174013809Y-108672380D01*
X174109047Y-108720000D01*
X174156666Y-108767619D01*
X174204285Y-108862857D01*
X174251904Y-109053333D01*
X174251904Y-109291428D01*
X174204285Y-109481904D01*
X174156666Y-109577142D01*
X174109047Y-109624761D01*
X174013809Y-109672380D01*
X173918571Y-109672380D01*
X173823333Y-109624761D01*
X173775714Y-109577142D01*
X173728095Y-109481904D01*
X173680476Y-109291428D01*
X173680476Y-109053333D01*
X173728095Y-108862857D01*
X173775714Y-108767619D01*
X173823333Y-108720000D01*
X173918571Y-108672380D01*
X174680476Y-109672380D02*
X174680476Y-108672380D01*
X175251904Y-109672380D02*
X174823333Y-109100952D01*
X175251904Y-108672380D02*
X174680476Y-109243809D01*
%TO.C,RV11*%
X200850951Y-55052220D02*
X200517618Y-54576030D01*
X200279522Y-55052220D02*
X200279522Y-54052220D01*
X200660475Y-54052220D01*
X200755713Y-54099840D01*
X200803332Y-54147459D01*
X200850951Y-54242697D01*
X200850951Y-54385554D01*
X200803332Y-54480792D01*
X200755713Y-54528411D01*
X200660475Y-54576030D01*
X200279522Y-54576030D01*
X201136665Y-54052220D02*
X201469999Y-55052220D01*
X201803332Y-54052220D01*
X202660475Y-55052220D02*
X202089046Y-55052220D01*
X202374760Y-55052220D02*
X202374760Y-54052220D01*
X202279522Y-54195078D01*
X202184284Y-54290316D01*
X202089046Y-54337935D01*
X203612856Y-55052220D02*
X203041427Y-55052220D01*
X203327141Y-55052220D02*
X203327141Y-54052220D01*
X203231903Y-54195078D01*
X203136665Y-54290316D01*
X203041427Y-54337935D01*
X201239523Y-74112380D02*
X200668095Y-74112380D01*
X200953809Y-74112380D02*
X200953809Y-73112380D01*
X200858571Y-73255238D01*
X200763333Y-73350476D01*
X200668095Y-73398095D01*
X201858571Y-73112380D02*
X201953809Y-73112380D01*
X202049047Y-73160000D01*
X202096666Y-73207619D01*
X202144285Y-73302857D01*
X202191904Y-73493333D01*
X202191904Y-73731428D01*
X202144285Y-73921904D01*
X202096666Y-74017142D01*
X202049047Y-74064761D01*
X201953809Y-74112380D01*
X201858571Y-74112380D01*
X201763333Y-74064761D01*
X201715714Y-74017142D01*
X201668095Y-73921904D01*
X201620476Y-73731428D01*
X201620476Y-73493333D01*
X201668095Y-73302857D01*
X201715714Y-73207619D01*
X201763333Y-73160000D01*
X201858571Y-73112380D01*
X202620476Y-74112380D02*
X202620476Y-73112380D01*
X203191904Y-74112380D02*
X202763333Y-73540952D01*
X203191904Y-73112380D02*
X202620476Y-73683809D01*
%TO.C,SW1*%
X62166666Y-52474761D02*
X62309523Y-52522380D01*
X62547619Y-52522380D01*
X62642857Y-52474761D01*
X62690476Y-52427142D01*
X62738095Y-52331904D01*
X62738095Y-52236666D01*
X62690476Y-52141428D01*
X62642857Y-52093809D01*
X62547619Y-52046190D01*
X62357142Y-51998571D01*
X62261904Y-51950952D01*
X62214285Y-51903333D01*
X62166666Y-51808095D01*
X62166666Y-51712857D01*
X62214285Y-51617619D01*
X62261904Y-51570000D01*
X62357142Y-51522380D01*
X62595238Y-51522380D01*
X62738095Y-51570000D01*
X63071428Y-51522380D02*
X63309523Y-52522380D01*
X63500000Y-51808095D01*
X63690476Y-52522380D01*
X63928571Y-51522380D01*
X64833333Y-52522380D02*
X64261904Y-52522380D01*
X64547619Y-52522380D02*
X64547619Y-51522380D01*
X64452380Y-51665238D01*
X64357142Y-51760476D01*
X64261904Y-51808095D01*
X67651904Y-51570000D02*
X67556666Y-51522380D01*
X67413809Y-51522380D01*
X67270952Y-51570000D01*
X67175714Y-51665238D01*
X67128095Y-51760476D01*
X67080476Y-51950952D01*
X67080476Y-52093809D01*
X67128095Y-52284285D01*
X67175714Y-52379523D01*
X67270952Y-52474761D01*
X67413809Y-52522380D01*
X67509047Y-52522380D01*
X67651904Y-52474761D01*
X67699523Y-52427142D01*
X67699523Y-52093809D01*
X67509047Y-52093809D01*
X68461428Y-51998571D02*
X68128095Y-51998571D01*
X68128095Y-52522380D02*
X68128095Y-51522380D01*
X68604285Y-51522380D01*
X68985238Y-52141428D02*
X69747142Y-52141428D01*
X70747142Y-52522380D02*
X70175714Y-52522380D01*
X70461428Y-52522380D02*
X70461428Y-51522380D01*
X70366190Y-51665238D01*
X70270952Y-51760476D01*
X70175714Y-51808095D01*
X71128095Y-51617619D02*
X71175714Y-51570000D01*
X71270952Y-51522380D01*
X71509047Y-51522380D01*
X71604285Y-51570000D01*
X71651904Y-51617619D01*
X71699523Y-51712857D01*
X71699523Y-51808095D01*
X71651904Y-51950952D01*
X71080476Y-52522380D01*
X71699523Y-52522380D01*
X72032857Y-51522380D02*
X72651904Y-51522380D01*
X72318571Y-51903333D01*
X72461428Y-51903333D01*
X72556666Y-51950952D01*
X72604285Y-51998571D01*
X72651904Y-52093809D01*
X72651904Y-52331904D01*
X72604285Y-52427142D01*
X72556666Y-52474761D01*
X72461428Y-52522380D01*
X72175714Y-52522380D01*
X72080476Y-52474761D01*
X72032857Y-52427142D01*
X73080476Y-52141428D02*
X73842380Y-52141428D01*
X74509047Y-51522380D02*
X74604285Y-51522380D01*
X74699523Y-51570000D01*
X74747142Y-51617619D01*
X74794761Y-51712857D01*
X74842380Y-51903333D01*
X74842380Y-52141428D01*
X74794761Y-52331904D01*
X74747142Y-52427142D01*
X74699523Y-52474761D01*
X74604285Y-52522380D01*
X74509047Y-52522380D01*
X74413809Y-52474761D01*
X74366190Y-52427142D01*
X74318571Y-52331904D01*
X74270952Y-52141428D01*
X74270952Y-51903333D01*
X74318571Y-51712857D01*
X74366190Y-51617619D01*
X74413809Y-51570000D01*
X74509047Y-51522380D01*
X75461428Y-51522380D02*
X75556666Y-51522380D01*
X75651904Y-51570000D01*
X75699523Y-51617619D01*
X75747142Y-51712857D01*
X75794761Y-51903333D01*
X75794761Y-52141428D01*
X75747142Y-52331904D01*
X75699523Y-52427142D01*
X75651904Y-52474761D01*
X75556666Y-52522380D01*
X75461428Y-52522380D01*
X75366190Y-52474761D01*
X75318571Y-52427142D01*
X75270952Y-52331904D01*
X75223333Y-52141428D01*
X75223333Y-51903333D01*
X75270952Y-51712857D01*
X75318571Y-51617619D01*
X75366190Y-51570000D01*
X75461428Y-51522380D01*
X76699523Y-51522380D02*
X76223333Y-51522380D01*
X76175714Y-51998571D01*
X76223333Y-51950952D01*
X76318571Y-51903333D01*
X76556666Y-51903333D01*
X76651904Y-51950952D01*
X76699523Y-51998571D01*
X76747142Y-52093809D01*
X76747142Y-52331904D01*
X76699523Y-52427142D01*
X76651904Y-52474761D01*
X76556666Y-52522380D01*
X76318571Y-52522380D01*
X76223333Y-52474761D01*
X76175714Y-52427142D01*
X77604285Y-51855714D02*
X77604285Y-52522380D01*
X77366190Y-51474761D02*
X77128095Y-52189047D01*
X77747142Y-52189047D01*
X78752380Y-45377619D02*
X78752380Y-45187142D01*
X78800000Y-45091904D01*
X78895238Y-44996666D01*
X79085714Y-44949047D01*
X79419047Y-44949047D01*
X79609523Y-44996666D01*
X79704761Y-45091904D01*
X79752380Y-45187142D01*
X79752380Y-45377619D01*
X79704761Y-45472857D01*
X79609523Y-45568095D01*
X79419047Y-45615714D01*
X79085714Y-45615714D01*
X78895238Y-45568095D01*
X78800000Y-45472857D01*
X78752380Y-45377619D01*
X79085714Y-44520476D02*
X79752380Y-44520476D01*
X79180952Y-44520476D02*
X79133333Y-44472857D01*
X79085714Y-44377619D01*
X79085714Y-44234761D01*
X79133333Y-44139523D01*
X79228571Y-44091904D01*
X79752380Y-44091904D01*
%TO.C,SW2*%
X86296666Y-52474761D02*
X86439523Y-52522380D01*
X86677619Y-52522380D01*
X86772857Y-52474761D01*
X86820476Y-52427142D01*
X86868095Y-52331904D01*
X86868095Y-52236666D01*
X86820476Y-52141428D01*
X86772857Y-52093809D01*
X86677619Y-52046190D01*
X86487142Y-51998571D01*
X86391904Y-51950952D01*
X86344285Y-51903333D01*
X86296666Y-51808095D01*
X86296666Y-51712857D01*
X86344285Y-51617619D01*
X86391904Y-51570000D01*
X86487142Y-51522380D01*
X86725238Y-51522380D01*
X86868095Y-51570000D01*
X87201428Y-51522380D02*
X87439523Y-52522380D01*
X87630000Y-51808095D01*
X87820476Y-52522380D01*
X88058571Y-51522380D01*
X88391904Y-51617619D02*
X88439523Y-51570000D01*
X88534761Y-51522380D01*
X88772857Y-51522380D01*
X88868095Y-51570000D01*
X88915714Y-51617619D01*
X88963333Y-51712857D01*
X88963333Y-51808095D01*
X88915714Y-51950952D01*
X88344285Y-52522380D01*
X88963333Y-52522380D01*
X93051904Y-51570000D02*
X92956666Y-51522380D01*
X92813809Y-51522380D01*
X92670952Y-51570000D01*
X92575714Y-51665238D01*
X92528095Y-51760476D01*
X92480476Y-51950952D01*
X92480476Y-52093809D01*
X92528095Y-52284285D01*
X92575714Y-52379523D01*
X92670952Y-52474761D01*
X92813809Y-52522380D01*
X92909047Y-52522380D01*
X93051904Y-52474761D01*
X93099523Y-52427142D01*
X93099523Y-52093809D01*
X92909047Y-52093809D01*
X93861428Y-51998571D02*
X93528095Y-51998571D01*
X93528095Y-52522380D02*
X93528095Y-51522380D01*
X94004285Y-51522380D01*
X94385238Y-52141428D02*
X95147142Y-52141428D01*
X96147142Y-52522380D02*
X95575714Y-52522380D01*
X95861428Y-52522380D02*
X95861428Y-51522380D01*
X95766190Y-51665238D01*
X95670952Y-51760476D01*
X95575714Y-51808095D01*
X96528095Y-51617619D02*
X96575714Y-51570000D01*
X96670952Y-51522380D01*
X96909047Y-51522380D01*
X97004285Y-51570000D01*
X97051904Y-51617619D01*
X97099523Y-51712857D01*
X97099523Y-51808095D01*
X97051904Y-51950952D01*
X96480476Y-52522380D01*
X97099523Y-52522380D01*
X97432857Y-51522380D02*
X98051904Y-51522380D01*
X97718571Y-51903333D01*
X97861428Y-51903333D01*
X97956666Y-51950952D01*
X98004285Y-51998571D01*
X98051904Y-52093809D01*
X98051904Y-52331904D01*
X98004285Y-52427142D01*
X97956666Y-52474761D01*
X97861428Y-52522380D01*
X97575714Y-52522380D01*
X97480476Y-52474761D01*
X97432857Y-52427142D01*
X98480476Y-52141428D02*
X99242380Y-52141428D01*
X99909047Y-51522380D02*
X100004285Y-51522380D01*
X100099523Y-51570000D01*
X100147142Y-51617619D01*
X100194761Y-51712857D01*
X100242380Y-51903333D01*
X100242380Y-52141428D01*
X100194761Y-52331904D01*
X100147142Y-52427142D01*
X100099523Y-52474761D01*
X100004285Y-52522380D01*
X99909047Y-52522380D01*
X99813809Y-52474761D01*
X99766190Y-52427142D01*
X99718571Y-52331904D01*
X99670952Y-52141428D01*
X99670952Y-51903333D01*
X99718571Y-51712857D01*
X99766190Y-51617619D01*
X99813809Y-51570000D01*
X99909047Y-51522380D01*
X100861428Y-51522380D02*
X100956666Y-51522380D01*
X101051904Y-51570000D01*
X101099523Y-51617619D01*
X101147142Y-51712857D01*
X101194761Y-51903333D01*
X101194761Y-52141428D01*
X101147142Y-52331904D01*
X101099523Y-52427142D01*
X101051904Y-52474761D01*
X100956666Y-52522380D01*
X100861428Y-52522380D01*
X100766190Y-52474761D01*
X100718571Y-52427142D01*
X100670952Y-52331904D01*
X100623333Y-52141428D01*
X100623333Y-51903333D01*
X100670952Y-51712857D01*
X100718571Y-51617619D01*
X100766190Y-51570000D01*
X100861428Y-51522380D01*
X102099523Y-51522380D02*
X101623333Y-51522380D01*
X101575714Y-51998571D01*
X101623333Y-51950952D01*
X101718571Y-51903333D01*
X101956666Y-51903333D01*
X102051904Y-51950952D01*
X102099523Y-51998571D01*
X102147142Y-52093809D01*
X102147142Y-52331904D01*
X102099523Y-52427142D01*
X102051904Y-52474761D01*
X101956666Y-52522380D01*
X101718571Y-52522380D01*
X101623333Y-52474761D01*
X101575714Y-52427142D01*
X103004285Y-51855714D02*
X103004285Y-52522380D01*
X102766190Y-51474761D02*
X102528095Y-52189047D01*
X103147142Y-52189047D01*
X103242380Y-45377619D02*
X103242380Y-45187142D01*
X103290000Y-45091904D01*
X103385238Y-44996666D01*
X103575714Y-44949047D01*
X103909047Y-44949047D01*
X104099523Y-44996666D01*
X104194761Y-45091904D01*
X104242380Y-45187142D01*
X104242380Y-45377619D01*
X104194761Y-45472857D01*
X104099523Y-45568095D01*
X103909047Y-45615714D01*
X103575714Y-45615714D01*
X103385238Y-45568095D01*
X103290000Y-45472857D01*
X103242380Y-45377619D01*
X103575714Y-44520476D02*
X104242380Y-44520476D01*
X103670952Y-44520476D02*
X103623333Y-44472857D01*
X103575714Y-44377619D01*
X103575714Y-44234761D01*
X103623333Y-44139523D01*
X103718571Y-44091904D01*
X104242380Y-44091904D01*
%TO.C,SW3*%
X110426666Y-52474761D02*
X110569523Y-52522380D01*
X110807619Y-52522380D01*
X110902857Y-52474761D01*
X110950476Y-52427142D01*
X110998095Y-52331904D01*
X110998095Y-52236666D01*
X110950476Y-52141428D01*
X110902857Y-52093809D01*
X110807619Y-52046190D01*
X110617142Y-51998571D01*
X110521904Y-51950952D01*
X110474285Y-51903333D01*
X110426666Y-51808095D01*
X110426666Y-51712857D01*
X110474285Y-51617619D01*
X110521904Y-51570000D01*
X110617142Y-51522380D01*
X110855238Y-51522380D01*
X110998095Y-51570000D01*
X111331428Y-51522380D02*
X111569523Y-52522380D01*
X111760000Y-51808095D01*
X111950476Y-52522380D01*
X112188571Y-51522380D01*
X112474285Y-51522380D02*
X113093333Y-51522380D01*
X112760000Y-51903333D01*
X112902857Y-51903333D01*
X112998095Y-51950952D01*
X113045714Y-51998571D01*
X113093333Y-52093809D01*
X113093333Y-52331904D01*
X113045714Y-52427142D01*
X112998095Y-52474761D01*
X112902857Y-52522380D01*
X112617142Y-52522380D01*
X112521904Y-52474761D01*
X112474285Y-52427142D01*
X115911904Y-51570000D02*
X115816666Y-51522380D01*
X115673809Y-51522380D01*
X115530952Y-51570000D01*
X115435714Y-51665238D01*
X115388095Y-51760476D01*
X115340476Y-51950952D01*
X115340476Y-52093809D01*
X115388095Y-52284285D01*
X115435714Y-52379523D01*
X115530952Y-52474761D01*
X115673809Y-52522380D01*
X115769047Y-52522380D01*
X115911904Y-52474761D01*
X115959523Y-52427142D01*
X115959523Y-52093809D01*
X115769047Y-52093809D01*
X116721428Y-51998571D02*
X116388095Y-51998571D01*
X116388095Y-52522380D02*
X116388095Y-51522380D01*
X116864285Y-51522380D01*
X117245238Y-52141428D02*
X118007142Y-52141428D01*
X119007142Y-52522380D02*
X118435714Y-52522380D01*
X118721428Y-52522380D02*
X118721428Y-51522380D01*
X118626190Y-51665238D01*
X118530952Y-51760476D01*
X118435714Y-51808095D01*
X119388095Y-51617619D02*
X119435714Y-51570000D01*
X119530952Y-51522380D01*
X119769047Y-51522380D01*
X119864285Y-51570000D01*
X119911904Y-51617619D01*
X119959523Y-51712857D01*
X119959523Y-51808095D01*
X119911904Y-51950952D01*
X119340476Y-52522380D01*
X119959523Y-52522380D01*
X120292857Y-51522380D02*
X120911904Y-51522380D01*
X120578571Y-51903333D01*
X120721428Y-51903333D01*
X120816666Y-51950952D01*
X120864285Y-51998571D01*
X120911904Y-52093809D01*
X120911904Y-52331904D01*
X120864285Y-52427142D01*
X120816666Y-52474761D01*
X120721428Y-52522380D01*
X120435714Y-52522380D01*
X120340476Y-52474761D01*
X120292857Y-52427142D01*
X121340476Y-52141428D02*
X122102380Y-52141428D01*
X122769047Y-51522380D02*
X122864285Y-51522380D01*
X122959523Y-51570000D01*
X123007142Y-51617619D01*
X123054761Y-51712857D01*
X123102380Y-51903333D01*
X123102380Y-52141428D01*
X123054761Y-52331904D01*
X123007142Y-52427142D01*
X122959523Y-52474761D01*
X122864285Y-52522380D01*
X122769047Y-52522380D01*
X122673809Y-52474761D01*
X122626190Y-52427142D01*
X122578571Y-52331904D01*
X122530952Y-52141428D01*
X122530952Y-51903333D01*
X122578571Y-51712857D01*
X122626190Y-51617619D01*
X122673809Y-51570000D01*
X122769047Y-51522380D01*
X123721428Y-51522380D02*
X123816666Y-51522380D01*
X123911904Y-51570000D01*
X123959523Y-51617619D01*
X124007142Y-51712857D01*
X124054761Y-51903333D01*
X124054761Y-52141428D01*
X124007142Y-52331904D01*
X123959523Y-52427142D01*
X123911904Y-52474761D01*
X123816666Y-52522380D01*
X123721428Y-52522380D01*
X123626190Y-52474761D01*
X123578571Y-52427142D01*
X123530952Y-52331904D01*
X123483333Y-52141428D01*
X123483333Y-51903333D01*
X123530952Y-51712857D01*
X123578571Y-51617619D01*
X123626190Y-51570000D01*
X123721428Y-51522380D01*
X124959523Y-51522380D02*
X124483333Y-51522380D01*
X124435714Y-51998571D01*
X124483333Y-51950952D01*
X124578571Y-51903333D01*
X124816666Y-51903333D01*
X124911904Y-51950952D01*
X124959523Y-51998571D01*
X125007142Y-52093809D01*
X125007142Y-52331904D01*
X124959523Y-52427142D01*
X124911904Y-52474761D01*
X124816666Y-52522380D01*
X124578571Y-52522380D01*
X124483333Y-52474761D01*
X124435714Y-52427142D01*
X125864285Y-51855714D02*
X125864285Y-52522380D01*
X125626190Y-51474761D02*
X125388095Y-52189047D01*
X126007142Y-52189047D01*
X127342380Y-45127619D02*
X127342380Y-44937142D01*
X127390000Y-44841904D01*
X127485238Y-44746666D01*
X127675714Y-44699047D01*
X128009047Y-44699047D01*
X128199523Y-44746666D01*
X128294761Y-44841904D01*
X128342380Y-44937142D01*
X128342380Y-45127619D01*
X128294761Y-45222857D01*
X128199523Y-45318095D01*
X128009047Y-45365714D01*
X127675714Y-45365714D01*
X127485238Y-45318095D01*
X127390000Y-45222857D01*
X127342380Y-45127619D01*
X127675714Y-44270476D02*
X128342380Y-44270476D01*
X127770952Y-44270476D02*
X127723333Y-44222857D01*
X127675714Y-44127619D01*
X127675714Y-43984761D01*
X127723333Y-43889523D01*
X127818571Y-43841904D01*
X128342380Y-43841904D01*
%TO.C,SW4*%
X134556666Y-52474761D02*
X134699523Y-52522380D01*
X134937619Y-52522380D01*
X135032857Y-52474761D01*
X135080476Y-52427142D01*
X135128095Y-52331904D01*
X135128095Y-52236666D01*
X135080476Y-52141428D01*
X135032857Y-52093809D01*
X134937619Y-52046190D01*
X134747142Y-51998571D01*
X134651904Y-51950952D01*
X134604285Y-51903333D01*
X134556666Y-51808095D01*
X134556666Y-51712857D01*
X134604285Y-51617619D01*
X134651904Y-51570000D01*
X134747142Y-51522380D01*
X134985238Y-51522380D01*
X135128095Y-51570000D01*
X135461428Y-51522380D02*
X135699523Y-52522380D01*
X135890000Y-51808095D01*
X136080476Y-52522380D01*
X136318571Y-51522380D01*
X137128095Y-51855714D02*
X137128095Y-52522380D01*
X136890000Y-51474761D02*
X136651904Y-52189047D01*
X137270952Y-52189047D01*
X140041904Y-51570000D02*
X139946666Y-51522380D01*
X139803809Y-51522380D01*
X139660952Y-51570000D01*
X139565714Y-51665238D01*
X139518095Y-51760476D01*
X139470476Y-51950952D01*
X139470476Y-52093809D01*
X139518095Y-52284285D01*
X139565714Y-52379523D01*
X139660952Y-52474761D01*
X139803809Y-52522380D01*
X139899047Y-52522380D01*
X140041904Y-52474761D01*
X140089523Y-52427142D01*
X140089523Y-52093809D01*
X139899047Y-52093809D01*
X140851428Y-51998571D02*
X140518095Y-51998571D01*
X140518095Y-52522380D02*
X140518095Y-51522380D01*
X140994285Y-51522380D01*
X141375238Y-52141428D02*
X142137142Y-52141428D01*
X143137142Y-52522380D02*
X142565714Y-52522380D01*
X142851428Y-52522380D02*
X142851428Y-51522380D01*
X142756190Y-51665238D01*
X142660952Y-51760476D01*
X142565714Y-51808095D01*
X143518095Y-51617619D02*
X143565714Y-51570000D01*
X143660952Y-51522380D01*
X143899047Y-51522380D01*
X143994285Y-51570000D01*
X144041904Y-51617619D01*
X144089523Y-51712857D01*
X144089523Y-51808095D01*
X144041904Y-51950952D01*
X143470476Y-52522380D01*
X144089523Y-52522380D01*
X144422857Y-51522380D02*
X145041904Y-51522380D01*
X144708571Y-51903333D01*
X144851428Y-51903333D01*
X144946666Y-51950952D01*
X144994285Y-51998571D01*
X145041904Y-52093809D01*
X145041904Y-52331904D01*
X144994285Y-52427142D01*
X144946666Y-52474761D01*
X144851428Y-52522380D01*
X144565714Y-52522380D01*
X144470476Y-52474761D01*
X144422857Y-52427142D01*
X145470476Y-52141428D02*
X146232380Y-52141428D01*
X146899047Y-51522380D02*
X146994285Y-51522380D01*
X147089523Y-51570000D01*
X147137142Y-51617619D01*
X147184761Y-51712857D01*
X147232380Y-51903333D01*
X147232380Y-52141428D01*
X147184761Y-52331904D01*
X147137142Y-52427142D01*
X147089523Y-52474761D01*
X146994285Y-52522380D01*
X146899047Y-52522380D01*
X146803809Y-52474761D01*
X146756190Y-52427142D01*
X146708571Y-52331904D01*
X146660952Y-52141428D01*
X146660952Y-51903333D01*
X146708571Y-51712857D01*
X146756190Y-51617619D01*
X146803809Y-51570000D01*
X146899047Y-51522380D01*
X147851428Y-51522380D02*
X147946666Y-51522380D01*
X148041904Y-51570000D01*
X148089523Y-51617619D01*
X148137142Y-51712857D01*
X148184761Y-51903333D01*
X148184761Y-52141428D01*
X148137142Y-52331904D01*
X148089523Y-52427142D01*
X148041904Y-52474761D01*
X147946666Y-52522380D01*
X147851428Y-52522380D01*
X147756190Y-52474761D01*
X147708571Y-52427142D01*
X147660952Y-52331904D01*
X147613333Y-52141428D01*
X147613333Y-51903333D01*
X147660952Y-51712857D01*
X147708571Y-51617619D01*
X147756190Y-51570000D01*
X147851428Y-51522380D01*
X149089523Y-51522380D02*
X148613333Y-51522380D01*
X148565714Y-51998571D01*
X148613333Y-51950952D01*
X148708571Y-51903333D01*
X148946666Y-51903333D01*
X149041904Y-51950952D01*
X149089523Y-51998571D01*
X149137142Y-52093809D01*
X149137142Y-52331904D01*
X149089523Y-52427142D01*
X149041904Y-52474761D01*
X148946666Y-52522380D01*
X148708571Y-52522380D01*
X148613333Y-52474761D01*
X148565714Y-52427142D01*
X149994285Y-51855714D02*
X149994285Y-52522380D01*
X149756190Y-51474761D02*
X149518095Y-52189047D01*
X150137142Y-52189047D01*
X151572380Y-45247619D02*
X151572380Y-45057142D01*
X151620000Y-44961904D01*
X151715238Y-44866666D01*
X151905714Y-44819047D01*
X152239047Y-44819047D01*
X152429523Y-44866666D01*
X152524761Y-44961904D01*
X152572380Y-45057142D01*
X152572380Y-45247619D01*
X152524761Y-45342857D01*
X152429523Y-45438095D01*
X152239047Y-45485714D01*
X151905714Y-45485714D01*
X151715238Y-45438095D01*
X151620000Y-45342857D01*
X151572380Y-45247619D01*
X151905714Y-44390476D02*
X152572380Y-44390476D01*
X152000952Y-44390476D02*
X151953333Y-44342857D01*
X151905714Y-44247619D01*
X151905714Y-44104761D01*
X151953333Y-44009523D01*
X152048571Y-43961904D01*
X152572380Y-43961904D01*
%TO.C,SW5*%
X158686666Y-52474761D02*
X158829523Y-52522380D01*
X159067619Y-52522380D01*
X159162857Y-52474761D01*
X159210476Y-52427142D01*
X159258095Y-52331904D01*
X159258095Y-52236666D01*
X159210476Y-52141428D01*
X159162857Y-52093809D01*
X159067619Y-52046190D01*
X158877142Y-51998571D01*
X158781904Y-51950952D01*
X158734285Y-51903333D01*
X158686666Y-51808095D01*
X158686666Y-51712857D01*
X158734285Y-51617619D01*
X158781904Y-51570000D01*
X158877142Y-51522380D01*
X159115238Y-51522380D01*
X159258095Y-51570000D01*
X159591428Y-51522380D02*
X159829523Y-52522380D01*
X160020000Y-51808095D01*
X160210476Y-52522380D01*
X160448571Y-51522380D01*
X161305714Y-51522380D02*
X160829523Y-51522380D01*
X160781904Y-51998571D01*
X160829523Y-51950952D01*
X160924761Y-51903333D01*
X161162857Y-51903333D01*
X161258095Y-51950952D01*
X161305714Y-51998571D01*
X161353333Y-52093809D01*
X161353333Y-52331904D01*
X161305714Y-52427142D01*
X161258095Y-52474761D01*
X161162857Y-52522380D01*
X160924761Y-52522380D01*
X160829523Y-52474761D01*
X160781904Y-52427142D01*
X164171904Y-51570000D02*
X164076666Y-51522380D01*
X163933809Y-51522380D01*
X163790952Y-51570000D01*
X163695714Y-51665238D01*
X163648095Y-51760476D01*
X163600476Y-51950952D01*
X163600476Y-52093809D01*
X163648095Y-52284285D01*
X163695714Y-52379523D01*
X163790952Y-52474761D01*
X163933809Y-52522380D01*
X164029047Y-52522380D01*
X164171904Y-52474761D01*
X164219523Y-52427142D01*
X164219523Y-52093809D01*
X164029047Y-52093809D01*
X164981428Y-51998571D02*
X164648095Y-51998571D01*
X164648095Y-52522380D02*
X164648095Y-51522380D01*
X165124285Y-51522380D01*
X165505238Y-52141428D02*
X166267142Y-52141428D01*
X167267142Y-52522380D02*
X166695714Y-52522380D01*
X166981428Y-52522380D02*
X166981428Y-51522380D01*
X166886190Y-51665238D01*
X166790952Y-51760476D01*
X166695714Y-51808095D01*
X167648095Y-51617619D02*
X167695714Y-51570000D01*
X167790952Y-51522380D01*
X168029047Y-51522380D01*
X168124285Y-51570000D01*
X168171904Y-51617619D01*
X168219523Y-51712857D01*
X168219523Y-51808095D01*
X168171904Y-51950952D01*
X167600476Y-52522380D01*
X168219523Y-52522380D01*
X168552857Y-51522380D02*
X169171904Y-51522380D01*
X168838571Y-51903333D01*
X168981428Y-51903333D01*
X169076666Y-51950952D01*
X169124285Y-51998571D01*
X169171904Y-52093809D01*
X169171904Y-52331904D01*
X169124285Y-52427142D01*
X169076666Y-52474761D01*
X168981428Y-52522380D01*
X168695714Y-52522380D01*
X168600476Y-52474761D01*
X168552857Y-52427142D01*
X169600476Y-52141428D02*
X170362380Y-52141428D01*
X171029047Y-51522380D02*
X171124285Y-51522380D01*
X171219523Y-51570000D01*
X171267142Y-51617619D01*
X171314761Y-51712857D01*
X171362380Y-51903333D01*
X171362380Y-52141428D01*
X171314761Y-52331904D01*
X171267142Y-52427142D01*
X171219523Y-52474761D01*
X171124285Y-52522380D01*
X171029047Y-52522380D01*
X170933809Y-52474761D01*
X170886190Y-52427142D01*
X170838571Y-52331904D01*
X170790952Y-52141428D01*
X170790952Y-51903333D01*
X170838571Y-51712857D01*
X170886190Y-51617619D01*
X170933809Y-51570000D01*
X171029047Y-51522380D01*
X171981428Y-51522380D02*
X172076666Y-51522380D01*
X172171904Y-51570000D01*
X172219523Y-51617619D01*
X172267142Y-51712857D01*
X172314761Y-51903333D01*
X172314761Y-52141428D01*
X172267142Y-52331904D01*
X172219523Y-52427142D01*
X172171904Y-52474761D01*
X172076666Y-52522380D01*
X171981428Y-52522380D01*
X171886190Y-52474761D01*
X171838571Y-52427142D01*
X171790952Y-52331904D01*
X171743333Y-52141428D01*
X171743333Y-51903333D01*
X171790952Y-51712857D01*
X171838571Y-51617619D01*
X171886190Y-51570000D01*
X171981428Y-51522380D01*
X173219523Y-51522380D02*
X172743333Y-51522380D01*
X172695714Y-51998571D01*
X172743333Y-51950952D01*
X172838571Y-51903333D01*
X173076666Y-51903333D01*
X173171904Y-51950952D01*
X173219523Y-51998571D01*
X173267142Y-52093809D01*
X173267142Y-52331904D01*
X173219523Y-52427142D01*
X173171904Y-52474761D01*
X173076666Y-52522380D01*
X172838571Y-52522380D01*
X172743333Y-52474761D01*
X172695714Y-52427142D01*
X174124285Y-51855714D02*
X174124285Y-52522380D01*
X173886190Y-51474761D02*
X173648095Y-52189047D01*
X174267142Y-52189047D01*
X175302380Y-45127619D02*
X175302380Y-44937142D01*
X175350000Y-44841904D01*
X175445238Y-44746666D01*
X175635714Y-44699047D01*
X175969047Y-44699047D01*
X176159523Y-44746666D01*
X176254761Y-44841904D01*
X176302380Y-44937142D01*
X176302380Y-45127619D01*
X176254761Y-45222857D01*
X176159523Y-45318095D01*
X175969047Y-45365714D01*
X175635714Y-45365714D01*
X175445238Y-45318095D01*
X175350000Y-45222857D01*
X175302380Y-45127619D01*
X175635714Y-44270476D02*
X176302380Y-44270476D01*
X175730952Y-44270476D02*
X175683333Y-44222857D01*
X175635714Y-44127619D01*
X175635714Y-43984761D01*
X175683333Y-43889523D01*
X175778571Y-43841904D01*
X176302380Y-43841904D01*
%TO.C,SW6*%
X182816666Y-52474761D02*
X182959523Y-52522380D01*
X183197619Y-52522380D01*
X183292857Y-52474761D01*
X183340476Y-52427142D01*
X183388095Y-52331904D01*
X183388095Y-52236666D01*
X183340476Y-52141428D01*
X183292857Y-52093809D01*
X183197619Y-52046190D01*
X183007142Y-51998571D01*
X182911904Y-51950952D01*
X182864285Y-51903333D01*
X182816666Y-51808095D01*
X182816666Y-51712857D01*
X182864285Y-51617619D01*
X182911904Y-51570000D01*
X183007142Y-51522380D01*
X183245238Y-51522380D01*
X183388095Y-51570000D01*
X183721428Y-51522380D02*
X183959523Y-52522380D01*
X184150000Y-51808095D01*
X184340476Y-52522380D01*
X184578571Y-51522380D01*
X185388095Y-51522380D02*
X185197619Y-51522380D01*
X185102380Y-51570000D01*
X185054761Y-51617619D01*
X184959523Y-51760476D01*
X184911904Y-51950952D01*
X184911904Y-52331904D01*
X184959523Y-52427142D01*
X185007142Y-52474761D01*
X185102380Y-52522380D01*
X185292857Y-52522380D01*
X185388095Y-52474761D01*
X185435714Y-52427142D01*
X185483333Y-52331904D01*
X185483333Y-52093809D01*
X185435714Y-51998571D01*
X185388095Y-51950952D01*
X185292857Y-51903333D01*
X185102380Y-51903333D01*
X185007142Y-51950952D01*
X184959523Y-51998571D01*
X184911904Y-52093809D01*
X188301904Y-51570000D02*
X188206666Y-51522380D01*
X188063809Y-51522380D01*
X187920952Y-51570000D01*
X187825714Y-51665238D01*
X187778095Y-51760476D01*
X187730476Y-51950952D01*
X187730476Y-52093809D01*
X187778095Y-52284285D01*
X187825714Y-52379523D01*
X187920952Y-52474761D01*
X188063809Y-52522380D01*
X188159047Y-52522380D01*
X188301904Y-52474761D01*
X188349523Y-52427142D01*
X188349523Y-52093809D01*
X188159047Y-52093809D01*
X189111428Y-51998571D02*
X188778095Y-51998571D01*
X188778095Y-52522380D02*
X188778095Y-51522380D01*
X189254285Y-51522380D01*
X189635238Y-52141428D02*
X190397142Y-52141428D01*
X191397142Y-52522380D02*
X190825714Y-52522380D01*
X191111428Y-52522380D02*
X191111428Y-51522380D01*
X191016190Y-51665238D01*
X190920952Y-51760476D01*
X190825714Y-51808095D01*
X191778095Y-51617619D02*
X191825714Y-51570000D01*
X191920952Y-51522380D01*
X192159047Y-51522380D01*
X192254285Y-51570000D01*
X192301904Y-51617619D01*
X192349523Y-51712857D01*
X192349523Y-51808095D01*
X192301904Y-51950952D01*
X191730476Y-52522380D01*
X192349523Y-52522380D01*
X192682857Y-51522380D02*
X193301904Y-51522380D01*
X192968571Y-51903333D01*
X193111428Y-51903333D01*
X193206666Y-51950952D01*
X193254285Y-51998571D01*
X193301904Y-52093809D01*
X193301904Y-52331904D01*
X193254285Y-52427142D01*
X193206666Y-52474761D01*
X193111428Y-52522380D01*
X192825714Y-52522380D01*
X192730476Y-52474761D01*
X192682857Y-52427142D01*
X193730476Y-52141428D02*
X194492380Y-52141428D01*
X195159047Y-51522380D02*
X195254285Y-51522380D01*
X195349523Y-51570000D01*
X195397142Y-51617619D01*
X195444761Y-51712857D01*
X195492380Y-51903333D01*
X195492380Y-52141428D01*
X195444761Y-52331904D01*
X195397142Y-52427142D01*
X195349523Y-52474761D01*
X195254285Y-52522380D01*
X195159047Y-52522380D01*
X195063809Y-52474761D01*
X195016190Y-52427142D01*
X194968571Y-52331904D01*
X194920952Y-52141428D01*
X194920952Y-51903333D01*
X194968571Y-51712857D01*
X195016190Y-51617619D01*
X195063809Y-51570000D01*
X195159047Y-51522380D01*
X196111428Y-51522380D02*
X196206666Y-51522380D01*
X196301904Y-51570000D01*
X196349523Y-51617619D01*
X196397142Y-51712857D01*
X196444761Y-51903333D01*
X196444761Y-52141428D01*
X196397142Y-52331904D01*
X196349523Y-52427142D01*
X196301904Y-52474761D01*
X196206666Y-52522380D01*
X196111428Y-52522380D01*
X196016190Y-52474761D01*
X195968571Y-52427142D01*
X195920952Y-52331904D01*
X195873333Y-52141428D01*
X195873333Y-51903333D01*
X195920952Y-51712857D01*
X195968571Y-51617619D01*
X196016190Y-51570000D01*
X196111428Y-51522380D01*
X197349523Y-51522380D02*
X196873333Y-51522380D01*
X196825714Y-51998571D01*
X196873333Y-51950952D01*
X196968571Y-51903333D01*
X197206666Y-51903333D01*
X197301904Y-51950952D01*
X197349523Y-51998571D01*
X197397142Y-52093809D01*
X197397142Y-52331904D01*
X197349523Y-52427142D01*
X197301904Y-52474761D01*
X197206666Y-52522380D01*
X196968571Y-52522380D01*
X196873333Y-52474761D01*
X196825714Y-52427142D01*
X198254285Y-51855714D02*
X198254285Y-52522380D01*
X198016190Y-51474761D02*
X197778095Y-52189047D01*
X198397142Y-52189047D01*
X199532380Y-45247619D02*
X199532380Y-45057142D01*
X199580000Y-44961904D01*
X199675238Y-44866666D01*
X199865714Y-44819047D01*
X200199047Y-44819047D01*
X200389523Y-44866666D01*
X200484761Y-44961904D01*
X200532380Y-45057142D01*
X200532380Y-45247619D01*
X200484761Y-45342857D01*
X200389523Y-45438095D01*
X200199047Y-45485714D01*
X199865714Y-45485714D01*
X199675238Y-45438095D01*
X199580000Y-45342857D01*
X199532380Y-45247619D01*
X199865714Y-44390476D02*
X200532380Y-44390476D01*
X199960952Y-44390476D02*
X199913333Y-44342857D01*
X199865714Y-44247619D01*
X199865714Y-44104761D01*
X199913333Y-44009523D01*
X200008571Y-43961904D01*
X200532380Y-43961904D01*
%TD*%
M02*
