%TF.GenerationSoftware,KiCad,Pcbnew,(5.1.6)-1*%
%TF.CreationDate,2020-07-24T14:32:39-07:00*%
%TF.ProjectId,BPEM488 Inputs,4250454d-3438-4382-9049-6e707574732e,rev?*%
%TF.SameCoordinates,Original*%
%TF.FileFunction,Soldermask,Bot*%
%TF.FilePolarity,Negative*%
%FSLAX46Y46*%
G04 Gerber Fmt 4.6, Leading zero omitted, Abs format (unit mm)*
G04 Created by KiCad (PCBNEW (5.1.6)-1) date 2020-07-24 14:32:39*
%MOMM*%
%LPD*%
G01*
G04 APERTURE LIST*
%ADD10C,1.624000*%
%ADD11R,1.624000X1.624000*%
%ADD12C,3.021000*%
%ADD13C,7.974000*%
%ADD14C,8.609000*%
%ADD15C,3.656000*%
%ADD16R,2.640000X2.640000*%
%ADD17C,2.640000*%
%ADD18C,2.700000*%
%ADD19R,2.700000X2.700000*%
%ADD20C,10.133000*%
%ADD21C,4.164000*%
%ADD22C,3.402000*%
%ADD23R,3.402000X3.402000*%
G04 APERTURE END LIST*
D10*
%TO.C,SW7*%
X204470000Y-107950000D03*
D11*
X199390000Y-107950000D03*
D10*
X201930000Y-107950000D03*
D12*
X201930000Y-104140000D03*
D13*
X201930000Y-97790000D03*
%TD*%
D14*
%TO.C,RV4*%
X144780000Y-64770000D03*
D15*
X133350000Y-64770000D03*
D16*
X138074400Y-85090000D03*
D17*
X144780000Y-85090000D03*
X151485600Y-85090000D03*
%TD*%
D18*
%TO.C,J1*%
X93900000Y-145750000D03*
D19*
X90090000Y-145750000D03*
%TD*%
%TO.C,J2*%
X97710000Y-145750000D03*
D18*
X101520000Y-145750000D03*
%TD*%
%TO.C,J3*%
X114220000Y-145750000D03*
X110410000Y-145750000D03*
X118030000Y-145750000D03*
X121840000Y-145750000D03*
D19*
X106600000Y-145750000D03*
%TD*%
%TO.C,J4*%
X126920000Y-145750000D03*
D18*
X142160000Y-145750000D03*
X138350000Y-145750000D03*
X130730000Y-145750000D03*
X134540000Y-145750000D03*
%TD*%
%TO.C,J5*%
X154860000Y-145750000D03*
X151050000Y-145750000D03*
X158670000Y-145750000D03*
X162480000Y-145750000D03*
D19*
X147240000Y-145750000D03*
%TD*%
D18*
%TO.C,J6*%
X171370000Y-145750000D03*
D19*
X167560000Y-145750000D03*
D18*
X175180000Y-145750000D03*
%TD*%
D20*
%TO.C,RV1*%
X62230000Y-64770000D03*
D21*
X51435000Y-64770000D03*
D16*
X55245000Y-83185000D03*
D17*
X62230000Y-83185000D03*
X69215000Y-83185000D03*
%TD*%
%TO.C,RV2*%
X97155000Y-83185000D03*
X90170000Y-83185000D03*
D16*
X83185000Y-83185000D03*
D21*
X79375000Y-64770000D03*
D20*
X90170000Y-64770000D03*
%TD*%
%TO.C,RV3*%
X118110000Y-64770000D03*
D21*
X107315000Y-64770000D03*
D16*
X111125000Y-83185000D03*
D17*
X118110000Y-83185000D03*
X125095000Y-83185000D03*
%TD*%
%TO.C,RV5*%
X180695600Y-83820000D03*
X173990000Y-83820000D03*
D16*
X167284400Y-83820000D03*
D15*
X162560000Y-63500000D03*
D14*
X173990000Y-63500000D03*
%TD*%
%TO.C,RV6*%
X62230000Y-99060000D03*
D15*
X50800000Y-99060000D03*
D16*
X55524400Y-119380000D03*
D17*
X62230000Y-119380000D03*
X68935600Y-119380000D03*
%TD*%
%TO.C,RV7*%
X96875600Y-119380000D03*
X90170000Y-119380000D03*
D16*
X83464400Y-119380000D03*
D15*
X78740000Y-99060000D03*
D14*
X90170000Y-99060000D03*
%TD*%
%TO.C,RV8*%
X118110000Y-99060000D03*
D15*
X106680000Y-99060000D03*
D16*
X111404400Y-119380000D03*
D17*
X118110000Y-119380000D03*
X124815600Y-119380000D03*
%TD*%
%TO.C,RV9*%
X152755600Y-119380000D03*
X146050000Y-119380000D03*
D16*
X139344400Y-119380000D03*
D15*
X134620000Y-99060000D03*
D14*
X146050000Y-99060000D03*
%TD*%
%TO.C,RV10*%
X173990000Y-99060000D03*
D15*
X162560000Y-99060000D03*
D16*
X167284400Y-119380000D03*
D17*
X173990000Y-119380000D03*
X180695600Y-119380000D03*
%TD*%
%TO.C,RV11*%
X208635600Y-83820000D03*
X201930000Y-83820000D03*
D16*
X195224400Y-83820000D03*
D15*
X190500000Y-63500000D03*
D14*
X201930000Y-63500000D03*
%TD*%
D22*
%TO.C,SW1*%
X74447400Y-45720000D03*
D23*
X69850000Y-45720000D03*
%TD*%
%TO.C,SW2*%
X94462600Y-45720000D03*
D22*
X99060000Y-45720000D03*
%TD*%
%TO.C,SW3*%
X123190000Y-45720000D03*
D23*
X118592600Y-45720000D03*
%TD*%
%TO.C,SW4*%
X142722600Y-45720000D03*
D22*
X147320000Y-45720000D03*
%TD*%
%TO.C,SW5*%
X170967400Y-45720000D03*
D23*
X166370000Y-45720000D03*
%TD*%
%TO.C,SW6*%
X190500000Y-45720000D03*
D22*
X195097400Y-45720000D03*
%TD*%
M02*
