M48
; DRILL file {KiCad (5.1.6)-1} date 07/18/20 16:31:02
; FORMAT={-:-/ absolute / inch / decimal}
; #@! TF.CreationDate,2020-07-18T16:31:02-07:00
; #@! TF.GenerationSoftware,Kicad,Pcbnew,(5.1.6)-1
; #@! TF.FileFunction,Plated,1,2,PTH
FMAT,2
INCH
T1C0.0157
T2C0.0300
T3C0.0500
T4C0.0512
T5C0.0650
T6C0.1000
T7C0.1250
T8C0.1400
T9C0.2900
T10C0.3200
T11C0.3800
%
G90
G05
T1
X3.9189Y-5.4028
X4.2685Y-5.4028
X4.422Y-5.4063
X4.5795Y-5.4028
X5.0795Y-5.3957
X5.3839Y-5.4028
X5.5236Y-5.3992
X5.8732Y-5.4063
X6.0272Y-5.4098
X6.174Y-5.4169
X6.3346Y-5.4516
X6.674Y-5.511
X6.8346Y-5.5358
X7.8102Y-4.3539
T2
X7.85Y-4.25
X7.95Y-4.25
X8.05Y-4.25
T3
X4.375Y-3.275
X4.65Y-3.275
X4.925Y-3.275
X7.686Y-3.3
X7.95Y-3.3
X8.214Y-3.3
X2.175Y-3.275
X2.45Y-3.275
X2.725Y-3.275
X6.586Y-3.3
X6.85Y-3.3
X7.114Y-3.3
X5.486Y-4.7
X5.75Y-4.7
X6.014Y-4.7
X4.386Y-4.7
X4.65Y-4.7
X4.914Y-4.7
X6.586Y-4.7
X6.85Y-4.7
X7.114Y-4.7
X3.286Y-4.7
X3.55Y-4.7
X3.814Y-4.7
X3.275Y-3.275
X3.55Y-3.275
X3.825Y-3.275
X5.436Y-3.35
X5.7Y-3.35
X5.964Y-3.35
X2.186Y-4.7
X2.45Y-4.7
X2.714Y-4.7
T4
X6.5969Y-5.7382
X6.7469Y-5.7382
X6.8969Y-5.7382
X5.7969Y-5.7382
X5.9469Y-5.7382
X6.0969Y-5.7382
X6.2469Y-5.7382
X6.3969Y-5.7382
X4.1969Y-5.7382
X4.3469Y-5.7382
X4.4969Y-5.7382
X4.6469Y-5.7382
X4.7969Y-5.7382
X3.5469Y-5.7382
X3.6969Y-5.7382
X4.9969Y-5.7382
X5.1469Y-5.7382
X5.2969Y-5.7382
X5.4469Y-5.7382
X5.5969Y-5.7382
X3.8469Y-5.7382
X3.9969Y-5.7382
T5
X2.75Y-1.8
X2.931Y-1.8
X6.55Y-1.8
X6.731Y-1.8
X7.5Y-1.8
X7.681Y-1.8
X4.669Y-1.8
X4.85Y-1.8
X5.619Y-1.8
X5.8Y-1.8
X3.719Y-1.8
X3.9Y-1.8
T6
X7.95Y-4.1
T7
X6.4Y-3.9
X3.1Y-3.9
X5.25Y-2.55
X2.0Y-3.9
X7.5Y-2.5
X6.4Y-2.5
X5.3Y-3.9
X4.2Y-3.9
T8
X3.125Y-2.55
X4.225Y-2.55
X2.025Y-2.55
T9
X7.95Y-3.85
T10
X6.85Y-3.9
X3.55Y-3.9
X5.7Y-2.55
X2.45Y-3.9
X7.95Y-2.5
X6.85Y-2.5
X5.75Y-3.9
X4.65Y-3.9
T11
X3.55Y-2.55
X4.65Y-2.55
X2.45Y-2.55
T0
M30
