%TF.GenerationSoftware,KiCad,Pcbnew,(5.1.6)-1*%
%TF.CreationDate,2020-07-24T14:32:39-07:00*%
%TF.ProjectId,BPEM488 Inputs,4250454d-3438-4382-9049-6e707574732e,rev?*%
%TF.SameCoordinates,Original*%
%TF.FileFunction,Copper,L2,Bot*%
%TF.FilePolarity,Positive*%
%FSLAX46Y46*%
G04 Gerber Fmt 4.6, Leading zero omitted, Abs format (unit mm)*
G04 Created by KiCad (PCBNEW (5.1.6)-1) date 2020-07-24 14:32:39*
%MOMM*%
%LPD*%
G01*
G04 APERTURE LIST*
%TA.AperFunction,ComponentPad*%
%ADD10C,1.524000*%
%TD*%
%TA.AperFunction,ComponentPad*%
%ADD11R,1.524000X1.524000*%
%TD*%
%TA.AperFunction,ComponentPad*%
%ADD12C,2.921000*%
%TD*%
%TA.AperFunction,ComponentPad*%
%ADD13C,7.874000*%
%TD*%
%TA.AperFunction,ComponentPad*%
%ADD14C,8.509000*%
%TD*%
%TA.AperFunction,ComponentPad*%
%ADD15C,3.556000*%
%TD*%
%TA.AperFunction,ComponentPad*%
%ADD16R,2.540000X2.540000*%
%TD*%
%TA.AperFunction,ComponentPad*%
%ADD17C,2.540000*%
%TD*%
%TA.AperFunction,ComponentPad*%
%ADD18C,2.600000*%
%TD*%
%TA.AperFunction,ComponentPad*%
%ADD19R,2.600000X2.600000*%
%TD*%
%TA.AperFunction,ComponentPad*%
%ADD20C,10.033000*%
%TD*%
%TA.AperFunction,ComponentPad*%
%ADD21C,4.064000*%
%TD*%
%TA.AperFunction,ComponentPad*%
%ADD22C,3.302000*%
%TD*%
%TA.AperFunction,ComponentPad*%
%ADD23R,3.302000X3.302000*%
%TD*%
%TA.AperFunction,ViaPad*%
%ADD24C,0.800000*%
%TD*%
%TA.AperFunction,Conductor*%
%ADD25C,1.000000*%
%TD*%
%TA.AperFunction,Conductor*%
%ADD26C,0.254000*%
%TD*%
G04 APERTURE END LIST*
D10*
%TO.P,SW7,B*%
%TO.N,/B*%
X204470000Y-107950000D03*
D11*
%TO.P,SW7,A*%
%TO.N,/A*%
X199390000Y-107950000D03*
D10*
%TO.P,SW7,C*%
%TO.N,/C*%
X201930000Y-107950000D03*
D12*
%TO.P,SW7,*%
%TO.N,*%
X201930000Y-104140000D03*
D13*
X201930000Y-97790000D03*
%TD*%
D14*
%TO.P,RV4,*%
%TO.N,*%
X144780000Y-64770000D03*
D15*
X133350000Y-64770000D03*
D16*
%TO.P,RV4,1*%
%TO.N,VDD*%
X138074400Y-85090000D03*
D17*
%TO.P,RV4,2*%
%TO.N,Net-(J4-Pad4)*%
X144780000Y-85090000D03*
%TO.P,RV4,3*%
%TO.N,GND*%
X151485600Y-85090000D03*
%TD*%
D18*
%TO.P,J1,2*%
%TO.N,GND*%
X93900000Y-145750000D03*
D19*
%TO.P,J1,1*%
%TO.N,VDD*%
X90090000Y-145750000D03*
%TD*%
%TO.P,J2,1*%
%TO.N,Net-(J2-Pad1)*%
X97710000Y-145750000D03*
D18*
%TO.P,J2,2*%
%TO.N,Net-(J2-Pad2)*%
X101520000Y-145750000D03*
%TD*%
%TO.P,J3,3*%
%TO.N,Net-(J3-Pad3)*%
X114220000Y-145750000D03*
%TO.P,J3,2*%
%TO.N,Net-(J3-Pad2)*%
X110410000Y-145750000D03*
%TO.P,J3,4*%
%TO.N,Net-(J3-Pad4)*%
X118030000Y-145750000D03*
%TO.P,J3,5*%
%TO.N,Net-(J3-Pad5)*%
X121840000Y-145750000D03*
D19*
%TO.P,J3,1*%
%TO.N,Net-(J3-Pad1)*%
X106600000Y-145750000D03*
%TD*%
%TO.P,J4,1*%
%TO.N,Net-(J4-Pad1)*%
X126920000Y-145750000D03*
D18*
%TO.P,J4,5*%
%TO.N,Net-(J4-Pad5)*%
X142160000Y-145750000D03*
%TO.P,J4,4*%
%TO.N,Net-(J4-Pad4)*%
X138350000Y-145750000D03*
%TO.P,J4,2*%
%TO.N,Net-(J4-Pad2)*%
X130730000Y-145750000D03*
%TO.P,J4,3*%
%TO.N,Net-(J4-Pad3)*%
X134540000Y-145750000D03*
%TD*%
%TO.P,J5,3*%
%TO.N,Net-(J5-Pad3)*%
X154860000Y-145750000D03*
%TO.P,J5,2*%
%TO.N,Net-(J5-Pad2)*%
X151050000Y-145750000D03*
%TO.P,J5,4*%
%TO.N,Net-(J5-Pad4)*%
X158670000Y-145750000D03*
%TO.P,J5,5*%
%TO.N,Net-(J5-Pad5)*%
X162480000Y-145750000D03*
D19*
%TO.P,J5,1*%
%TO.N,Net-(J5-Pad1)*%
X147240000Y-145750000D03*
%TD*%
D18*
%TO.P,J6,2*%
%TO.N,/C*%
X171370000Y-145750000D03*
D19*
%TO.P,J6,1*%
%TO.N,/A*%
X167560000Y-145750000D03*
D18*
%TO.P,J6,3*%
%TO.N,/B*%
X175180000Y-145750000D03*
%TD*%
D20*
%TO.P,RV1,*%
%TO.N,*%
X62230000Y-64770000D03*
D21*
X51435000Y-64770000D03*
D16*
%TO.P,RV1,1*%
%TO.N,Net-(RV1-Pad1)*%
X55245000Y-83185000D03*
D17*
%TO.P,RV1,2*%
%TO.N,Net-(J2-Pad2)*%
X62230000Y-83185000D03*
%TO.P,RV1,3*%
%TO.N,GND*%
X69215000Y-83185000D03*
%TD*%
%TO.P,RV2,3*%
%TO.N,GND*%
X97155000Y-83185000D03*
%TO.P,RV2,2*%
%TO.N,Net-(J3-Pad3)*%
X90170000Y-83185000D03*
D16*
%TO.P,RV2,1*%
%TO.N,Net-(RV2-Pad1)*%
X83185000Y-83185000D03*
D21*
%TO.P,RV2,*%
%TO.N,*%
X79375000Y-64770000D03*
D20*
X90170000Y-64770000D03*
%TD*%
%TO.P,RV3,*%
%TO.N,*%
X118110000Y-64770000D03*
D21*
X107315000Y-64770000D03*
D16*
%TO.P,RV3,1*%
%TO.N,Net-(RV3-Pad1)*%
X111125000Y-83185000D03*
D17*
%TO.P,RV3,2*%
%TO.N,Net-(J4-Pad1)*%
X118110000Y-83185000D03*
%TO.P,RV3,3*%
%TO.N,GND*%
X125095000Y-83185000D03*
%TD*%
%TO.P,RV5,3*%
%TO.N,GND*%
X180695600Y-83820000D03*
%TO.P,RV5,2*%
%TO.N,Net-(J5-Pad2)*%
X173990000Y-83820000D03*
D16*
%TO.P,RV5,1*%
%TO.N,VDD*%
X167284400Y-83820000D03*
D15*
%TO.P,RV5,*%
%TO.N,*%
X162560000Y-63500000D03*
D14*
X173990000Y-63500000D03*
%TD*%
%TO.P,RV6,*%
%TO.N,*%
X62230000Y-99060000D03*
D15*
X50800000Y-99060000D03*
D16*
%TO.P,RV6,1*%
%TO.N,VDD*%
X55524400Y-119380000D03*
D17*
%TO.P,RV6,2*%
%TO.N,Net-(J2-Pad1)*%
X62230000Y-119380000D03*
%TO.P,RV6,3*%
%TO.N,GND*%
X68935600Y-119380000D03*
%TD*%
%TO.P,RV7,3*%
%TO.N,GND*%
X96875600Y-119380000D03*
%TO.P,RV7,2*%
%TO.N,Net-(J3-Pad2)*%
X90170000Y-119380000D03*
D16*
%TO.P,RV7,1*%
%TO.N,VDD*%
X83464400Y-119380000D03*
D15*
%TO.P,RV7,*%
%TO.N,*%
X78740000Y-99060000D03*
D14*
X90170000Y-99060000D03*
%TD*%
%TO.P,RV8,*%
%TO.N,*%
X118110000Y-99060000D03*
D15*
X106680000Y-99060000D03*
D16*
%TO.P,RV8,1*%
%TO.N,VDD*%
X111404400Y-119380000D03*
D17*
%TO.P,RV8,2*%
%TO.N,Net-(J3-Pad5)*%
X118110000Y-119380000D03*
%TO.P,RV8,3*%
%TO.N,GND*%
X124815600Y-119380000D03*
%TD*%
%TO.P,RV9,3*%
%TO.N,GND*%
X152755600Y-119380000D03*
%TO.P,RV9,2*%
%TO.N,Net-(J4-Pad3)*%
X146050000Y-119380000D03*
D16*
%TO.P,RV9,1*%
%TO.N,VDD*%
X139344400Y-119380000D03*
D15*
%TO.P,RV9,*%
%TO.N,*%
X134620000Y-99060000D03*
D14*
X146050000Y-99060000D03*
%TD*%
%TO.P,RV10,*%
%TO.N,*%
X173990000Y-99060000D03*
D15*
X162560000Y-99060000D03*
D16*
%TO.P,RV10,1*%
%TO.N,VDD*%
X167284400Y-119380000D03*
D17*
%TO.P,RV10,2*%
%TO.N,Net-(J5-Pad1)*%
X173990000Y-119380000D03*
%TO.P,RV10,3*%
%TO.N,GND*%
X180695600Y-119380000D03*
%TD*%
%TO.P,RV11,3*%
%TO.N,GND*%
X208635600Y-83820000D03*
%TO.P,RV11,2*%
%TO.N,Net-(J5-Pad5)*%
X201930000Y-83820000D03*
D16*
%TO.P,RV11,1*%
%TO.N,VDD*%
X195224400Y-83820000D03*
D15*
%TO.P,RV11,*%
%TO.N,*%
X190500000Y-63500000D03*
D14*
X201930000Y-63500000D03*
%TD*%
D22*
%TO.P,SW1,2*%
%TO.N,GND*%
X74447400Y-45720000D03*
D23*
%TO.P,SW1,1*%
%TO.N,Net-(J3-Pad1)*%
X69850000Y-45720000D03*
%TD*%
%TO.P,SW2,1*%
%TO.N,Net-(J3-Pad4)*%
X94462600Y-45720000D03*
D22*
%TO.P,SW2,2*%
%TO.N,GND*%
X99060000Y-45720000D03*
%TD*%
%TO.P,SW3,2*%
%TO.N,GND*%
X123190000Y-45720000D03*
D23*
%TO.P,SW3,1*%
%TO.N,Net-(J4-Pad2)*%
X118592600Y-45720000D03*
%TD*%
%TO.P,SW4,1*%
%TO.N,Net-(J4-Pad5)*%
X142722600Y-45720000D03*
D22*
%TO.P,SW4,2*%
%TO.N,GND*%
X147320000Y-45720000D03*
%TD*%
%TO.P,SW5,2*%
%TO.N,GND*%
X170967400Y-45720000D03*
D23*
%TO.P,SW5,1*%
%TO.N,Net-(J5-Pad3)*%
X166370000Y-45720000D03*
%TD*%
%TO.P,SW6,1*%
%TO.N,Net-(J5-Pad4)*%
X190500000Y-45720000D03*
D22*
%TO.P,SW6,2*%
%TO.N,GND*%
X195097400Y-45720000D03*
%TD*%
D24*
%TO.N,GND*%
X99540000Y-137230000D03*
X108420000Y-137230000D03*
X112320000Y-137320000D03*
X116320000Y-137230000D03*
X129020000Y-137050000D03*
X136750000Y-137230000D03*
X140300000Y-137140000D03*
X149180000Y-137320000D03*
X153090000Y-137410000D03*
X156820000Y-137590000D03*
X160900000Y-138470000D03*
X169520000Y-139980000D03*
X173600000Y-140610000D03*
X198380000Y-110590000D03*
%TD*%
D25*
%TO.N,VDD*%
X83464400Y-119380000D02*
X83464400Y-127014400D01*
X90090000Y-133640000D02*
X90090000Y-145750000D01*
X83464400Y-127014400D02*
X90090000Y-133640000D01*
X83464400Y-119380000D02*
X83464400Y-119564400D01*
X83464400Y-119564400D02*
X88050000Y-124150000D01*
X106634400Y-124150000D02*
X111404400Y-119380000D01*
X88050000Y-124150000D02*
X106634400Y-124150000D01*
X111404400Y-119380000D02*
X111404400Y-120344400D01*
X111404400Y-120344400D02*
X115210000Y-124150000D01*
X134574400Y-124150000D02*
X139344400Y-119380000D01*
X115210000Y-124150000D02*
X134574400Y-124150000D01*
X139344400Y-119380000D02*
X139344400Y-120124400D01*
X139344400Y-120124400D02*
X143550000Y-124330000D01*
X162334400Y-124330000D02*
X167284400Y-119380000D01*
X143550000Y-124330000D02*
X162334400Y-124330000D01*
X167284400Y-83820000D02*
X167284400Y-84074400D01*
X167284400Y-84074400D02*
X171040000Y-87830000D01*
X191214400Y-87830000D02*
X195224400Y-83820000D01*
X171040000Y-87830000D02*
X191214400Y-87830000D01*
%TD*%
D26*
%TO.N,GND*%
G36*
X215240001Y-149200000D02*
G01*
X45110000Y-149200000D01*
X45110000Y-141892621D01*
X47273000Y-141892621D01*
X47273000Y-142587379D01*
X47408540Y-143268788D01*
X47674413Y-143910661D01*
X48060400Y-144488332D01*
X48551668Y-144979600D01*
X49129339Y-145365587D01*
X49771212Y-145631460D01*
X50452621Y-145767000D01*
X51147379Y-145767000D01*
X51828788Y-145631460D01*
X52470661Y-145365587D01*
X53048332Y-144979600D01*
X53539600Y-144488332D01*
X53925587Y-143910661D01*
X54191460Y-143268788D01*
X54327000Y-142587379D01*
X54327000Y-141892621D01*
X54191460Y-141211212D01*
X53925587Y-140569339D01*
X53539600Y-139991668D01*
X53048332Y-139500400D01*
X52470661Y-139114413D01*
X51828788Y-138848540D01*
X51147379Y-138713000D01*
X50452621Y-138713000D01*
X49771212Y-138848540D01*
X49129339Y-139114413D01*
X48551668Y-139500400D01*
X48060400Y-139991668D01*
X47674413Y-140569339D01*
X47408540Y-141211212D01*
X47273000Y-141892621D01*
X45110000Y-141892621D01*
X45110000Y-118110000D01*
X53373157Y-118110000D01*
X53373157Y-120650000D01*
X53390090Y-120821922D01*
X53440238Y-120987237D01*
X53521673Y-121139592D01*
X53631267Y-121273133D01*
X53764808Y-121382727D01*
X53917163Y-121464162D01*
X54082478Y-121514310D01*
X54254400Y-121531243D01*
X56794400Y-121531243D01*
X56966322Y-121514310D01*
X57131637Y-121464162D01*
X57283992Y-121382727D01*
X57417533Y-121273133D01*
X57527127Y-121139592D01*
X57608562Y-120987237D01*
X57658710Y-120821922D01*
X57675643Y-120650000D01*
X57675643Y-119168539D01*
X60083000Y-119168539D01*
X60083000Y-119591461D01*
X60165508Y-120006257D01*
X60327354Y-120396986D01*
X60562317Y-120748632D01*
X60861368Y-121047683D01*
X61213014Y-121282646D01*
X61603743Y-121444492D01*
X62018539Y-121527000D01*
X62441461Y-121527000D01*
X62856257Y-121444492D01*
X63246986Y-121282646D01*
X63598632Y-121047683D01*
X63897683Y-120748632D01*
X63924931Y-120707852D01*
X67787353Y-120707852D01*
X67915676Y-120999871D01*
X68251295Y-121167723D01*
X68613211Y-121266874D01*
X68987516Y-121293514D01*
X69359827Y-121246618D01*
X69715835Y-121127988D01*
X69955524Y-120999871D01*
X70083847Y-120707852D01*
X68935600Y-119559605D01*
X67787353Y-120707852D01*
X63924931Y-120707852D01*
X64132646Y-120396986D01*
X64294492Y-120006257D01*
X64377000Y-119591461D01*
X64377000Y-119431916D01*
X67022086Y-119431916D01*
X67068982Y-119804227D01*
X67187612Y-120160235D01*
X67315729Y-120399924D01*
X67607748Y-120528247D01*
X68755995Y-119380000D01*
X69115205Y-119380000D01*
X70263452Y-120528247D01*
X70555471Y-120399924D01*
X70723323Y-120064305D01*
X70822474Y-119702389D01*
X70849114Y-119328084D01*
X70802218Y-118955773D01*
X70683588Y-118599765D01*
X70555471Y-118360076D01*
X70263452Y-118231753D01*
X69115205Y-119380000D01*
X68755995Y-119380000D01*
X67607748Y-118231753D01*
X67315729Y-118360076D01*
X67147877Y-118695695D01*
X67048726Y-119057611D01*
X67022086Y-119431916D01*
X64377000Y-119431916D01*
X64377000Y-119168539D01*
X64294492Y-118753743D01*
X64132646Y-118363014D01*
X63924932Y-118052148D01*
X67787353Y-118052148D01*
X68935600Y-119200395D01*
X70025995Y-118110000D01*
X81313157Y-118110000D01*
X81313157Y-120650000D01*
X81330090Y-120821922D01*
X81380238Y-120987237D01*
X81461673Y-121139592D01*
X81571267Y-121273133D01*
X81704808Y-121382727D01*
X81857163Y-121464162D01*
X82022478Y-121514310D01*
X82087400Y-121520704D01*
X82087401Y-126946750D01*
X82080738Y-127014400D01*
X82107325Y-127284339D01*
X82186063Y-127543904D01*
X82186064Y-127543905D01*
X82313928Y-127783121D01*
X82486004Y-127992797D01*
X82538546Y-128035917D01*
X88713000Y-134210372D01*
X88713001Y-143576341D01*
X88618078Y-143585690D01*
X88452763Y-143635838D01*
X88300408Y-143717273D01*
X88166867Y-143826867D01*
X88057273Y-143960408D01*
X87975838Y-144112763D01*
X87925690Y-144278078D01*
X87908757Y-144450000D01*
X87908757Y-147050000D01*
X87925690Y-147221922D01*
X87975838Y-147387237D01*
X88057273Y-147539592D01*
X88166867Y-147673133D01*
X88300408Y-147782727D01*
X88452763Y-147864162D01*
X88618078Y-147914310D01*
X88790000Y-147931243D01*
X91390000Y-147931243D01*
X91561922Y-147914310D01*
X91727237Y-147864162D01*
X91879592Y-147782727D01*
X92013133Y-147673133D01*
X92122727Y-147539592D01*
X92204162Y-147387237D01*
X92254310Y-147221922D01*
X92266394Y-147099224D01*
X92730381Y-147099224D01*
X92862317Y-147394312D01*
X93203045Y-147565159D01*
X93570557Y-147666250D01*
X93950729Y-147693701D01*
X94328951Y-147646457D01*
X94690690Y-147526333D01*
X94937683Y-147394312D01*
X95069619Y-147099224D01*
X93900000Y-145929605D01*
X92730381Y-147099224D01*
X92266394Y-147099224D01*
X92271243Y-147050000D01*
X92271243Y-146794638D01*
X92550776Y-146919619D01*
X93720395Y-145750000D01*
X94079605Y-145750000D01*
X95249224Y-146919619D01*
X95528757Y-146794638D01*
X95528757Y-147050000D01*
X95545690Y-147221922D01*
X95595838Y-147387237D01*
X95677273Y-147539592D01*
X95786867Y-147673133D01*
X95920408Y-147782727D01*
X96072763Y-147864162D01*
X96238078Y-147914310D01*
X96410000Y-147931243D01*
X99010000Y-147931243D01*
X99181922Y-147914310D01*
X99347237Y-147864162D01*
X99499592Y-147782727D01*
X99633133Y-147673133D01*
X99742727Y-147539592D01*
X99824162Y-147387237D01*
X99874310Y-147221922D01*
X99877795Y-147186539D01*
X100132243Y-147440987D01*
X100488804Y-147679233D01*
X100884992Y-147843340D01*
X101305584Y-147927000D01*
X101734416Y-147927000D01*
X102155008Y-147843340D01*
X102551196Y-147679233D01*
X102907757Y-147440987D01*
X103210987Y-147137757D01*
X103449233Y-146781196D01*
X103613340Y-146385008D01*
X103697000Y-145964416D01*
X103697000Y-145535584D01*
X103613340Y-145114992D01*
X103449233Y-144718804D01*
X103269625Y-144450000D01*
X104418757Y-144450000D01*
X104418757Y-147050000D01*
X104435690Y-147221922D01*
X104485838Y-147387237D01*
X104567273Y-147539592D01*
X104676867Y-147673133D01*
X104810408Y-147782727D01*
X104962763Y-147864162D01*
X105128078Y-147914310D01*
X105300000Y-147931243D01*
X107900000Y-147931243D01*
X108071922Y-147914310D01*
X108237237Y-147864162D01*
X108389592Y-147782727D01*
X108523133Y-147673133D01*
X108632727Y-147539592D01*
X108714162Y-147387237D01*
X108764310Y-147221922D01*
X108767795Y-147186539D01*
X109022243Y-147440987D01*
X109378804Y-147679233D01*
X109774992Y-147843340D01*
X110195584Y-147927000D01*
X110624416Y-147927000D01*
X111045008Y-147843340D01*
X111441196Y-147679233D01*
X111797757Y-147440987D01*
X112100987Y-147137757D01*
X112315000Y-146817463D01*
X112529013Y-147137757D01*
X112832243Y-147440987D01*
X113188804Y-147679233D01*
X113584992Y-147843340D01*
X114005584Y-147927000D01*
X114434416Y-147927000D01*
X114855008Y-147843340D01*
X115251196Y-147679233D01*
X115607757Y-147440987D01*
X115910987Y-147137757D01*
X116125000Y-146817463D01*
X116339013Y-147137757D01*
X116642243Y-147440987D01*
X116998804Y-147679233D01*
X117394992Y-147843340D01*
X117815584Y-147927000D01*
X118244416Y-147927000D01*
X118665008Y-147843340D01*
X119061196Y-147679233D01*
X119417757Y-147440987D01*
X119720987Y-147137757D01*
X119935000Y-146817463D01*
X120149013Y-147137757D01*
X120452243Y-147440987D01*
X120808804Y-147679233D01*
X121204992Y-147843340D01*
X121625584Y-147927000D01*
X122054416Y-147927000D01*
X122475008Y-147843340D01*
X122871196Y-147679233D01*
X123227757Y-147440987D01*
X123530987Y-147137757D01*
X123769233Y-146781196D01*
X123933340Y-146385008D01*
X124017000Y-145964416D01*
X124017000Y-145535584D01*
X123933340Y-145114992D01*
X123769233Y-144718804D01*
X123589625Y-144450000D01*
X124738757Y-144450000D01*
X124738757Y-147050000D01*
X124755690Y-147221922D01*
X124805838Y-147387237D01*
X124887273Y-147539592D01*
X124996867Y-147673133D01*
X125130408Y-147782727D01*
X125282763Y-147864162D01*
X125448078Y-147914310D01*
X125620000Y-147931243D01*
X128220000Y-147931243D01*
X128391922Y-147914310D01*
X128557237Y-147864162D01*
X128709592Y-147782727D01*
X128843133Y-147673133D01*
X128952727Y-147539592D01*
X129034162Y-147387237D01*
X129084310Y-147221922D01*
X129087795Y-147186539D01*
X129342243Y-147440987D01*
X129698804Y-147679233D01*
X130094992Y-147843340D01*
X130515584Y-147927000D01*
X130944416Y-147927000D01*
X131365008Y-147843340D01*
X131761196Y-147679233D01*
X132117757Y-147440987D01*
X132420987Y-147137757D01*
X132635000Y-146817463D01*
X132849013Y-147137757D01*
X133152243Y-147440987D01*
X133508804Y-147679233D01*
X133904992Y-147843340D01*
X134325584Y-147927000D01*
X134754416Y-147927000D01*
X135175008Y-147843340D01*
X135571196Y-147679233D01*
X135927757Y-147440987D01*
X136230987Y-147137757D01*
X136445000Y-146817463D01*
X136659013Y-147137757D01*
X136962243Y-147440987D01*
X137318804Y-147679233D01*
X137714992Y-147843340D01*
X138135584Y-147927000D01*
X138564416Y-147927000D01*
X138985008Y-147843340D01*
X139381196Y-147679233D01*
X139737757Y-147440987D01*
X140040987Y-147137757D01*
X140255000Y-146817463D01*
X140469013Y-147137757D01*
X140772243Y-147440987D01*
X141128804Y-147679233D01*
X141524992Y-147843340D01*
X141945584Y-147927000D01*
X142374416Y-147927000D01*
X142795008Y-147843340D01*
X143191196Y-147679233D01*
X143547757Y-147440987D01*
X143850987Y-147137757D01*
X144089233Y-146781196D01*
X144253340Y-146385008D01*
X144337000Y-145964416D01*
X144337000Y-145535584D01*
X144253340Y-145114992D01*
X144089233Y-144718804D01*
X143909625Y-144450000D01*
X145058757Y-144450000D01*
X145058757Y-147050000D01*
X145075690Y-147221922D01*
X145125838Y-147387237D01*
X145207273Y-147539592D01*
X145316867Y-147673133D01*
X145450408Y-147782727D01*
X145602763Y-147864162D01*
X145768078Y-147914310D01*
X145940000Y-147931243D01*
X148540000Y-147931243D01*
X148711922Y-147914310D01*
X148877237Y-147864162D01*
X149029592Y-147782727D01*
X149163133Y-147673133D01*
X149272727Y-147539592D01*
X149354162Y-147387237D01*
X149404310Y-147221922D01*
X149407795Y-147186539D01*
X149662243Y-147440987D01*
X150018804Y-147679233D01*
X150414992Y-147843340D01*
X150835584Y-147927000D01*
X151264416Y-147927000D01*
X151685008Y-147843340D01*
X152081196Y-147679233D01*
X152437757Y-147440987D01*
X152740987Y-147137757D01*
X152955000Y-146817463D01*
X153169013Y-147137757D01*
X153472243Y-147440987D01*
X153828804Y-147679233D01*
X154224992Y-147843340D01*
X154645584Y-147927000D01*
X155074416Y-147927000D01*
X155495008Y-147843340D01*
X155891196Y-147679233D01*
X156247757Y-147440987D01*
X156550987Y-147137757D01*
X156765000Y-146817463D01*
X156979013Y-147137757D01*
X157282243Y-147440987D01*
X157638804Y-147679233D01*
X158034992Y-147843340D01*
X158455584Y-147927000D01*
X158884416Y-147927000D01*
X159305008Y-147843340D01*
X159701196Y-147679233D01*
X160057757Y-147440987D01*
X160360987Y-147137757D01*
X160575000Y-146817463D01*
X160789013Y-147137757D01*
X161092243Y-147440987D01*
X161448804Y-147679233D01*
X161844992Y-147843340D01*
X162265584Y-147927000D01*
X162694416Y-147927000D01*
X163115008Y-147843340D01*
X163511196Y-147679233D01*
X163867757Y-147440987D01*
X164170987Y-147137757D01*
X164409233Y-146781196D01*
X164573340Y-146385008D01*
X164657000Y-145964416D01*
X164657000Y-145535584D01*
X164573340Y-145114992D01*
X164409233Y-144718804D01*
X164229625Y-144450000D01*
X165378757Y-144450000D01*
X165378757Y-147050000D01*
X165395690Y-147221922D01*
X165445838Y-147387237D01*
X165527273Y-147539592D01*
X165636867Y-147673133D01*
X165770408Y-147782727D01*
X165922763Y-147864162D01*
X166088078Y-147914310D01*
X166260000Y-147931243D01*
X168860000Y-147931243D01*
X169031922Y-147914310D01*
X169197237Y-147864162D01*
X169349592Y-147782727D01*
X169483133Y-147673133D01*
X169592727Y-147539592D01*
X169674162Y-147387237D01*
X169724310Y-147221922D01*
X169727795Y-147186539D01*
X169982243Y-147440987D01*
X170338804Y-147679233D01*
X170734992Y-147843340D01*
X171155584Y-147927000D01*
X171584416Y-147927000D01*
X172005008Y-147843340D01*
X172401196Y-147679233D01*
X172757757Y-147440987D01*
X173060987Y-147137757D01*
X173275000Y-146817463D01*
X173489013Y-147137757D01*
X173792243Y-147440987D01*
X174148804Y-147679233D01*
X174544992Y-147843340D01*
X174965584Y-147927000D01*
X175394416Y-147927000D01*
X175815008Y-147843340D01*
X176211196Y-147679233D01*
X176567757Y-147440987D01*
X176870987Y-147137757D01*
X177109233Y-146781196D01*
X177273340Y-146385008D01*
X177357000Y-145964416D01*
X177357000Y-145535584D01*
X177273340Y-145114992D01*
X177109233Y-144718804D01*
X176870987Y-144362243D01*
X176567757Y-144059013D01*
X176211196Y-143820767D01*
X175815008Y-143656660D01*
X175394416Y-143573000D01*
X174965584Y-143573000D01*
X174544992Y-143656660D01*
X174148804Y-143820767D01*
X173792243Y-144059013D01*
X173489013Y-144362243D01*
X173275000Y-144682537D01*
X173060987Y-144362243D01*
X172757757Y-144059013D01*
X172401196Y-143820767D01*
X172005008Y-143656660D01*
X171584416Y-143573000D01*
X171155584Y-143573000D01*
X170734992Y-143656660D01*
X170338804Y-143820767D01*
X169982243Y-144059013D01*
X169727795Y-144313461D01*
X169724310Y-144278078D01*
X169674162Y-144112763D01*
X169592727Y-143960408D01*
X169483133Y-143826867D01*
X169349592Y-143717273D01*
X169197237Y-143635838D01*
X169031922Y-143585690D01*
X168860000Y-143568757D01*
X166260000Y-143568757D01*
X166088078Y-143585690D01*
X165922763Y-143635838D01*
X165770408Y-143717273D01*
X165636867Y-143826867D01*
X165527273Y-143960408D01*
X165445838Y-144112763D01*
X165395690Y-144278078D01*
X165378757Y-144450000D01*
X164229625Y-144450000D01*
X164170987Y-144362243D01*
X163867757Y-144059013D01*
X163511196Y-143820767D01*
X163115008Y-143656660D01*
X162694416Y-143573000D01*
X162265584Y-143573000D01*
X161844992Y-143656660D01*
X161448804Y-143820767D01*
X161092243Y-144059013D01*
X160789013Y-144362243D01*
X160575000Y-144682537D01*
X160360987Y-144362243D01*
X160057757Y-144059013D01*
X159701196Y-143820767D01*
X159305008Y-143656660D01*
X158884416Y-143573000D01*
X158455584Y-143573000D01*
X158034992Y-143656660D01*
X157638804Y-143820767D01*
X157282243Y-144059013D01*
X156979013Y-144362243D01*
X156765000Y-144682537D01*
X156550987Y-144362243D01*
X156247757Y-144059013D01*
X155891196Y-143820767D01*
X155495008Y-143656660D01*
X155074416Y-143573000D01*
X154645584Y-143573000D01*
X154224992Y-143656660D01*
X153828804Y-143820767D01*
X153472243Y-144059013D01*
X153169013Y-144362243D01*
X152955000Y-144682537D01*
X152740987Y-144362243D01*
X152437757Y-144059013D01*
X152081196Y-143820767D01*
X151685008Y-143656660D01*
X151264416Y-143573000D01*
X150835584Y-143573000D01*
X150414992Y-143656660D01*
X150018804Y-143820767D01*
X149662243Y-144059013D01*
X149407795Y-144313461D01*
X149404310Y-144278078D01*
X149354162Y-144112763D01*
X149272727Y-143960408D01*
X149163133Y-143826867D01*
X149029592Y-143717273D01*
X148877237Y-143635838D01*
X148711922Y-143585690D01*
X148540000Y-143568757D01*
X145940000Y-143568757D01*
X145768078Y-143585690D01*
X145602763Y-143635838D01*
X145450408Y-143717273D01*
X145316867Y-143826867D01*
X145207273Y-143960408D01*
X145125838Y-144112763D01*
X145075690Y-144278078D01*
X145058757Y-144450000D01*
X143909625Y-144450000D01*
X143850987Y-144362243D01*
X143547757Y-144059013D01*
X143191196Y-143820767D01*
X142795008Y-143656660D01*
X142374416Y-143573000D01*
X141945584Y-143573000D01*
X141524992Y-143656660D01*
X141128804Y-143820767D01*
X140772243Y-144059013D01*
X140469013Y-144362243D01*
X140255000Y-144682537D01*
X140040987Y-144362243D01*
X139737757Y-144059013D01*
X139381196Y-143820767D01*
X138985008Y-143656660D01*
X138564416Y-143573000D01*
X138135584Y-143573000D01*
X137714992Y-143656660D01*
X137318804Y-143820767D01*
X136962243Y-144059013D01*
X136659013Y-144362243D01*
X136445000Y-144682537D01*
X136230987Y-144362243D01*
X135927757Y-144059013D01*
X135571196Y-143820767D01*
X135175008Y-143656660D01*
X134754416Y-143573000D01*
X134325584Y-143573000D01*
X133904992Y-143656660D01*
X133508804Y-143820767D01*
X133152243Y-144059013D01*
X132849013Y-144362243D01*
X132635000Y-144682537D01*
X132420987Y-144362243D01*
X132117757Y-144059013D01*
X131761196Y-143820767D01*
X131365008Y-143656660D01*
X130944416Y-143573000D01*
X130515584Y-143573000D01*
X130094992Y-143656660D01*
X129698804Y-143820767D01*
X129342243Y-144059013D01*
X129087795Y-144313461D01*
X129084310Y-144278078D01*
X129034162Y-144112763D01*
X128952727Y-143960408D01*
X128843133Y-143826867D01*
X128709592Y-143717273D01*
X128557237Y-143635838D01*
X128391922Y-143585690D01*
X128220000Y-143568757D01*
X125620000Y-143568757D01*
X125448078Y-143585690D01*
X125282763Y-143635838D01*
X125130408Y-143717273D01*
X124996867Y-143826867D01*
X124887273Y-143960408D01*
X124805838Y-144112763D01*
X124755690Y-144278078D01*
X124738757Y-144450000D01*
X123589625Y-144450000D01*
X123530987Y-144362243D01*
X123227757Y-144059013D01*
X122871196Y-143820767D01*
X122475008Y-143656660D01*
X122054416Y-143573000D01*
X121625584Y-143573000D01*
X121204992Y-143656660D01*
X120808804Y-143820767D01*
X120452243Y-144059013D01*
X120149013Y-144362243D01*
X119935000Y-144682537D01*
X119720987Y-144362243D01*
X119417757Y-144059013D01*
X119061196Y-143820767D01*
X118665008Y-143656660D01*
X118244416Y-143573000D01*
X117815584Y-143573000D01*
X117394992Y-143656660D01*
X116998804Y-143820767D01*
X116642243Y-144059013D01*
X116339013Y-144362243D01*
X116125000Y-144682537D01*
X115910987Y-144362243D01*
X115607757Y-144059013D01*
X115251196Y-143820767D01*
X114855008Y-143656660D01*
X114434416Y-143573000D01*
X114005584Y-143573000D01*
X113584992Y-143656660D01*
X113188804Y-143820767D01*
X112832243Y-144059013D01*
X112529013Y-144362243D01*
X112315000Y-144682537D01*
X112100987Y-144362243D01*
X111797757Y-144059013D01*
X111441196Y-143820767D01*
X111045008Y-143656660D01*
X110624416Y-143573000D01*
X110195584Y-143573000D01*
X109774992Y-143656660D01*
X109378804Y-143820767D01*
X109022243Y-144059013D01*
X108767795Y-144313461D01*
X108764310Y-144278078D01*
X108714162Y-144112763D01*
X108632727Y-143960408D01*
X108523133Y-143826867D01*
X108389592Y-143717273D01*
X108237237Y-143635838D01*
X108071922Y-143585690D01*
X107900000Y-143568757D01*
X105300000Y-143568757D01*
X105128078Y-143585690D01*
X104962763Y-143635838D01*
X104810408Y-143717273D01*
X104676867Y-143826867D01*
X104567273Y-143960408D01*
X104485838Y-144112763D01*
X104435690Y-144278078D01*
X104418757Y-144450000D01*
X103269625Y-144450000D01*
X103210987Y-144362243D01*
X102907757Y-144059013D01*
X102551196Y-143820767D01*
X102155008Y-143656660D01*
X101734416Y-143573000D01*
X101305584Y-143573000D01*
X100884992Y-143656660D01*
X100488804Y-143820767D01*
X100132243Y-144059013D01*
X99877795Y-144313461D01*
X99874310Y-144278078D01*
X99824162Y-144112763D01*
X99742727Y-143960408D01*
X99633133Y-143826867D01*
X99499592Y-143717273D01*
X99347237Y-143635838D01*
X99181922Y-143585690D01*
X99010000Y-143568757D01*
X96410000Y-143568757D01*
X96238078Y-143585690D01*
X96072763Y-143635838D01*
X95920408Y-143717273D01*
X95786867Y-143826867D01*
X95677273Y-143960408D01*
X95595838Y-144112763D01*
X95545690Y-144278078D01*
X95528757Y-144450000D01*
X95528757Y-144705362D01*
X95249224Y-144580381D01*
X94079605Y-145750000D01*
X93720395Y-145750000D01*
X92550776Y-144580381D01*
X92271243Y-144705362D01*
X92271243Y-144450000D01*
X92266395Y-144400776D01*
X92730381Y-144400776D01*
X93900000Y-145570395D01*
X95069619Y-144400776D01*
X94937683Y-144105688D01*
X94596955Y-143934841D01*
X94229443Y-143833750D01*
X93849271Y-143806299D01*
X93471049Y-143853543D01*
X93109310Y-143973667D01*
X92862317Y-144105688D01*
X92730381Y-144400776D01*
X92266395Y-144400776D01*
X92254310Y-144278078D01*
X92204162Y-144112763D01*
X92122727Y-143960408D01*
X92013133Y-143826867D01*
X91879592Y-143717273D01*
X91727237Y-143635838D01*
X91561922Y-143585690D01*
X91467000Y-143576341D01*
X91467000Y-141892621D01*
X204753000Y-141892621D01*
X204753000Y-142587379D01*
X204888540Y-143268788D01*
X205154413Y-143910661D01*
X205540400Y-144488332D01*
X206031668Y-144979600D01*
X206609339Y-145365587D01*
X207251212Y-145631460D01*
X207932621Y-145767000D01*
X208627379Y-145767000D01*
X209308788Y-145631460D01*
X209950661Y-145365587D01*
X210528332Y-144979600D01*
X211019600Y-144488332D01*
X211405587Y-143910661D01*
X211671460Y-143268788D01*
X211807000Y-142587379D01*
X211807000Y-141892621D01*
X211671460Y-141211212D01*
X211405587Y-140569339D01*
X211019600Y-139991668D01*
X210528332Y-139500400D01*
X209950661Y-139114413D01*
X209308788Y-138848540D01*
X208627379Y-138713000D01*
X207932621Y-138713000D01*
X207251212Y-138848540D01*
X206609339Y-139114413D01*
X206031668Y-139500400D01*
X205540400Y-139991668D01*
X205154413Y-140569339D01*
X204888540Y-141211212D01*
X204753000Y-141892621D01*
X91467000Y-141892621D01*
X91467000Y-133707636D01*
X91473662Y-133639999D01*
X91467000Y-133572360D01*
X91447075Y-133370061D01*
X91368337Y-133110495D01*
X91240473Y-132871279D01*
X91068396Y-132661603D01*
X91015860Y-132618488D01*
X84841400Y-126444029D01*
X84841400Y-122888772D01*
X87028483Y-125075855D01*
X87071603Y-125128397D01*
X87281279Y-125300473D01*
X87520495Y-125428337D01*
X87650278Y-125467706D01*
X87780060Y-125507075D01*
X88050000Y-125533662D01*
X88117640Y-125527000D01*
X106566760Y-125527000D01*
X106634400Y-125533662D01*
X106904339Y-125507075D01*
X106904342Y-125507074D01*
X107163905Y-125428337D01*
X107403121Y-125300473D01*
X107612797Y-125128397D01*
X107655921Y-125075850D01*
X110922200Y-121809571D01*
X114188483Y-125075855D01*
X114231603Y-125128397D01*
X114441279Y-125300473D01*
X114680495Y-125428337D01*
X114940061Y-125507075D01*
X115142360Y-125527000D01*
X115142362Y-125527000D01*
X115209999Y-125533662D01*
X115277636Y-125527000D01*
X134506760Y-125527000D01*
X134574400Y-125533662D01*
X134844339Y-125507075D01*
X134844342Y-125507074D01*
X135103905Y-125428337D01*
X135343121Y-125300473D01*
X135552797Y-125128397D01*
X135595921Y-125075850D01*
X138972200Y-121699572D01*
X142528488Y-125255861D01*
X142571603Y-125308397D01*
X142624139Y-125351512D01*
X142624142Y-125351515D01*
X142677826Y-125395571D01*
X142781279Y-125480473D01*
X143020495Y-125608337D01*
X143094342Y-125630738D01*
X143280060Y-125687075D01*
X143550000Y-125713662D01*
X143617640Y-125707000D01*
X162266760Y-125707000D01*
X162334400Y-125713662D01*
X162604339Y-125687075D01*
X162790058Y-125630738D01*
X162863905Y-125608337D01*
X163103121Y-125480473D01*
X163312797Y-125308397D01*
X163355921Y-125255850D01*
X167080529Y-121531243D01*
X168554400Y-121531243D01*
X168726322Y-121514310D01*
X168891637Y-121464162D01*
X169043992Y-121382727D01*
X169177533Y-121273133D01*
X169287127Y-121139592D01*
X169368562Y-120987237D01*
X169418710Y-120821922D01*
X169435643Y-120650000D01*
X169435643Y-119168539D01*
X171843000Y-119168539D01*
X171843000Y-119591461D01*
X171925508Y-120006257D01*
X172087354Y-120396986D01*
X172322317Y-120748632D01*
X172621368Y-121047683D01*
X172973014Y-121282646D01*
X173363743Y-121444492D01*
X173778539Y-121527000D01*
X174201461Y-121527000D01*
X174616257Y-121444492D01*
X175006986Y-121282646D01*
X175358632Y-121047683D01*
X175657683Y-120748632D01*
X175684931Y-120707852D01*
X179547353Y-120707852D01*
X179675676Y-120999871D01*
X180011295Y-121167723D01*
X180373211Y-121266874D01*
X180747516Y-121293514D01*
X181119827Y-121246618D01*
X181475835Y-121127988D01*
X181715524Y-120999871D01*
X181843847Y-120707852D01*
X180695600Y-119559605D01*
X179547353Y-120707852D01*
X175684931Y-120707852D01*
X175892646Y-120396986D01*
X176054492Y-120006257D01*
X176137000Y-119591461D01*
X176137000Y-119431916D01*
X178782086Y-119431916D01*
X178828982Y-119804227D01*
X178947612Y-120160235D01*
X179075729Y-120399924D01*
X179367748Y-120528247D01*
X180515995Y-119380000D01*
X180875205Y-119380000D01*
X182023452Y-120528247D01*
X182315471Y-120399924D01*
X182483323Y-120064305D01*
X182582474Y-119702389D01*
X182609114Y-119328084D01*
X182562218Y-118955773D01*
X182443588Y-118599765D01*
X182315471Y-118360076D01*
X182023452Y-118231753D01*
X180875205Y-119380000D01*
X180515995Y-119380000D01*
X179367748Y-118231753D01*
X179075729Y-118360076D01*
X178907877Y-118695695D01*
X178808726Y-119057611D01*
X178782086Y-119431916D01*
X176137000Y-119431916D01*
X176137000Y-119168539D01*
X176054492Y-118753743D01*
X175892646Y-118363014D01*
X175684932Y-118052148D01*
X179547353Y-118052148D01*
X180695600Y-119200395D01*
X181843847Y-118052148D01*
X181715524Y-117760129D01*
X181379905Y-117592277D01*
X181017989Y-117493126D01*
X180643684Y-117466486D01*
X180271373Y-117513382D01*
X179915365Y-117632012D01*
X179675676Y-117760129D01*
X179547353Y-118052148D01*
X175684932Y-118052148D01*
X175657683Y-118011368D01*
X175358632Y-117712317D01*
X175006986Y-117477354D01*
X174616257Y-117315508D01*
X174201461Y-117233000D01*
X173778539Y-117233000D01*
X173363743Y-117315508D01*
X172973014Y-117477354D01*
X172621368Y-117712317D01*
X172322317Y-118011368D01*
X172087354Y-118363014D01*
X171925508Y-118753743D01*
X171843000Y-119168539D01*
X169435643Y-119168539D01*
X169435643Y-118110000D01*
X169418710Y-117938078D01*
X169368562Y-117772763D01*
X169287127Y-117620408D01*
X169177533Y-117486867D01*
X169043992Y-117377273D01*
X168891637Y-117295838D01*
X168726322Y-117245690D01*
X168554400Y-117228757D01*
X166014400Y-117228757D01*
X165842478Y-117245690D01*
X165677163Y-117295838D01*
X165524808Y-117377273D01*
X165391267Y-117486867D01*
X165281673Y-117620408D01*
X165200238Y-117772763D01*
X165150090Y-117938078D01*
X165133157Y-118110000D01*
X165133157Y-119583871D01*
X161764029Y-122953000D01*
X144120373Y-122953000D01*
X141495643Y-120328271D01*
X141495643Y-119168539D01*
X143903000Y-119168539D01*
X143903000Y-119591461D01*
X143985508Y-120006257D01*
X144147354Y-120396986D01*
X144382317Y-120748632D01*
X144681368Y-121047683D01*
X145033014Y-121282646D01*
X145423743Y-121444492D01*
X145838539Y-121527000D01*
X146261461Y-121527000D01*
X146676257Y-121444492D01*
X147066986Y-121282646D01*
X147418632Y-121047683D01*
X147717683Y-120748632D01*
X147744931Y-120707852D01*
X151607353Y-120707852D01*
X151735676Y-120999871D01*
X152071295Y-121167723D01*
X152433211Y-121266874D01*
X152807516Y-121293514D01*
X153179827Y-121246618D01*
X153535835Y-121127988D01*
X153775524Y-120999871D01*
X153903847Y-120707852D01*
X152755600Y-119559605D01*
X151607353Y-120707852D01*
X147744931Y-120707852D01*
X147952646Y-120396986D01*
X148114492Y-120006257D01*
X148197000Y-119591461D01*
X148197000Y-119431916D01*
X150842086Y-119431916D01*
X150888982Y-119804227D01*
X151007612Y-120160235D01*
X151135729Y-120399924D01*
X151427748Y-120528247D01*
X152575995Y-119380000D01*
X152935205Y-119380000D01*
X154083452Y-120528247D01*
X154375471Y-120399924D01*
X154543323Y-120064305D01*
X154642474Y-119702389D01*
X154669114Y-119328084D01*
X154622218Y-118955773D01*
X154503588Y-118599765D01*
X154375471Y-118360076D01*
X154083452Y-118231753D01*
X152935205Y-119380000D01*
X152575995Y-119380000D01*
X151427748Y-118231753D01*
X151135729Y-118360076D01*
X150967877Y-118695695D01*
X150868726Y-119057611D01*
X150842086Y-119431916D01*
X148197000Y-119431916D01*
X148197000Y-119168539D01*
X148114492Y-118753743D01*
X147952646Y-118363014D01*
X147744932Y-118052148D01*
X151607353Y-118052148D01*
X152755600Y-119200395D01*
X153903847Y-118052148D01*
X153775524Y-117760129D01*
X153439905Y-117592277D01*
X153077989Y-117493126D01*
X152703684Y-117466486D01*
X152331373Y-117513382D01*
X151975365Y-117632012D01*
X151735676Y-117760129D01*
X151607353Y-118052148D01*
X147744932Y-118052148D01*
X147717683Y-118011368D01*
X147418632Y-117712317D01*
X147066986Y-117477354D01*
X146676257Y-117315508D01*
X146261461Y-117233000D01*
X145838539Y-117233000D01*
X145423743Y-117315508D01*
X145033014Y-117477354D01*
X144681368Y-117712317D01*
X144382317Y-118011368D01*
X144147354Y-118363014D01*
X143985508Y-118753743D01*
X143903000Y-119168539D01*
X141495643Y-119168539D01*
X141495643Y-118110000D01*
X141478710Y-117938078D01*
X141428562Y-117772763D01*
X141347127Y-117620408D01*
X141237533Y-117486867D01*
X141103992Y-117377273D01*
X140951637Y-117295838D01*
X140786322Y-117245690D01*
X140614400Y-117228757D01*
X138074400Y-117228757D01*
X137902478Y-117245690D01*
X137737163Y-117295838D01*
X137584808Y-117377273D01*
X137451267Y-117486867D01*
X137341673Y-117620408D01*
X137260238Y-117772763D01*
X137210090Y-117938078D01*
X137193157Y-118110000D01*
X137193157Y-119583871D01*
X134004029Y-122773000D01*
X115780372Y-122773000D01*
X113555643Y-120548272D01*
X113555643Y-119168539D01*
X115963000Y-119168539D01*
X115963000Y-119591461D01*
X116045508Y-120006257D01*
X116207354Y-120396986D01*
X116442317Y-120748632D01*
X116741368Y-121047683D01*
X117093014Y-121282646D01*
X117483743Y-121444492D01*
X117898539Y-121527000D01*
X118321461Y-121527000D01*
X118736257Y-121444492D01*
X119126986Y-121282646D01*
X119478632Y-121047683D01*
X119777683Y-120748632D01*
X119804931Y-120707852D01*
X123667353Y-120707852D01*
X123795676Y-120999871D01*
X124131295Y-121167723D01*
X124493211Y-121266874D01*
X124867516Y-121293514D01*
X125239827Y-121246618D01*
X125595835Y-121127988D01*
X125835524Y-120999871D01*
X125963847Y-120707852D01*
X124815600Y-119559605D01*
X123667353Y-120707852D01*
X119804931Y-120707852D01*
X120012646Y-120396986D01*
X120174492Y-120006257D01*
X120257000Y-119591461D01*
X120257000Y-119431916D01*
X122902086Y-119431916D01*
X122948982Y-119804227D01*
X123067612Y-120160235D01*
X123195729Y-120399924D01*
X123487748Y-120528247D01*
X124635995Y-119380000D01*
X124995205Y-119380000D01*
X126143452Y-120528247D01*
X126435471Y-120399924D01*
X126603323Y-120064305D01*
X126702474Y-119702389D01*
X126729114Y-119328084D01*
X126682218Y-118955773D01*
X126563588Y-118599765D01*
X126435471Y-118360076D01*
X126143452Y-118231753D01*
X124995205Y-119380000D01*
X124635995Y-119380000D01*
X123487748Y-118231753D01*
X123195729Y-118360076D01*
X123027877Y-118695695D01*
X122928726Y-119057611D01*
X122902086Y-119431916D01*
X120257000Y-119431916D01*
X120257000Y-119168539D01*
X120174492Y-118753743D01*
X120012646Y-118363014D01*
X119804932Y-118052148D01*
X123667353Y-118052148D01*
X124815600Y-119200395D01*
X125963847Y-118052148D01*
X125835524Y-117760129D01*
X125499905Y-117592277D01*
X125137989Y-117493126D01*
X124763684Y-117466486D01*
X124391373Y-117513382D01*
X124035365Y-117632012D01*
X123795676Y-117760129D01*
X123667353Y-118052148D01*
X119804932Y-118052148D01*
X119777683Y-118011368D01*
X119478632Y-117712317D01*
X119126986Y-117477354D01*
X118736257Y-117315508D01*
X118321461Y-117233000D01*
X117898539Y-117233000D01*
X117483743Y-117315508D01*
X117093014Y-117477354D01*
X116741368Y-117712317D01*
X116442317Y-118011368D01*
X116207354Y-118363014D01*
X116045508Y-118753743D01*
X115963000Y-119168539D01*
X113555643Y-119168539D01*
X113555643Y-118110000D01*
X113538710Y-117938078D01*
X113488562Y-117772763D01*
X113407127Y-117620408D01*
X113297533Y-117486867D01*
X113163992Y-117377273D01*
X113011637Y-117295838D01*
X112846322Y-117245690D01*
X112674400Y-117228757D01*
X110134400Y-117228757D01*
X109962478Y-117245690D01*
X109797163Y-117295838D01*
X109644808Y-117377273D01*
X109511267Y-117486867D01*
X109401673Y-117620408D01*
X109320238Y-117772763D01*
X109270090Y-117938078D01*
X109253157Y-118110000D01*
X109253157Y-119583871D01*
X106064029Y-122773000D01*
X88620372Y-122773000D01*
X85615643Y-119768272D01*
X85615643Y-119168539D01*
X88023000Y-119168539D01*
X88023000Y-119591461D01*
X88105508Y-120006257D01*
X88267354Y-120396986D01*
X88502317Y-120748632D01*
X88801368Y-121047683D01*
X89153014Y-121282646D01*
X89543743Y-121444492D01*
X89958539Y-121527000D01*
X90381461Y-121527000D01*
X90796257Y-121444492D01*
X91186986Y-121282646D01*
X91538632Y-121047683D01*
X91837683Y-120748632D01*
X91864931Y-120707852D01*
X95727353Y-120707852D01*
X95855676Y-120999871D01*
X96191295Y-121167723D01*
X96553211Y-121266874D01*
X96927516Y-121293514D01*
X97299827Y-121246618D01*
X97655835Y-121127988D01*
X97895524Y-120999871D01*
X98023847Y-120707852D01*
X96875600Y-119559605D01*
X95727353Y-120707852D01*
X91864931Y-120707852D01*
X92072646Y-120396986D01*
X92234492Y-120006257D01*
X92317000Y-119591461D01*
X92317000Y-119431916D01*
X94962086Y-119431916D01*
X95008982Y-119804227D01*
X95127612Y-120160235D01*
X95255729Y-120399924D01*
X95547748Y-120528247D01*
X96695995Y-119380000D01*
X97055205Y-119380000D01*
X98203452Y-120528247D01*
X98495471Y-120399924D01*
X98663323Y-120064305D01*
X98762474Y-119702389D01*
X98789114Y-119328084D01*
X98742218Y-118955773D01*
X98623588Y-118599765D01*
X98495471Y-118360076D01*
X98203452Y-118231753D01*
X97055205Y-119380000D01*
X96695995Y-119380000D01*
X95547748Y-118231753D01*
X95255729Y-118360076D01*
X95087877Y-118695695D01*
X94988726Y-119057611D01*
X94962086Y-119431916D01*
X92317000Y-119431916D01*
X92317000Y-119168539D01*
X92234492Y-118753743D01*
X92072646Y-118363014D01*
X91864932Y-118052148D01*
X95727353Y-118052148D01*
X96875600Y-119200395D01*
X98023847Y-118052148D01*
X97895524Y-117760129D01*
X97559905Y-117592277D01*
X97197989Y-117493126D01*
X96823684Y-117466486D01*
X96451373Y-117513382D01*
X96095365Y-117632012D01*
X95855676Y-117760129D01*
X95727353Y-118052148D01*
X91864932Y-118052148D01*
X91837683Y-118011368D01*
X91538632Y-117712317D01*
X91186986Y-117477354D01*
X90796257Y-117315508D01*
X90381461Y-117233000D01*
X89958539Y-117233000D01*
X89543743Y-117315508D01*
X89153014Y-117477354D01*
X88801368Y-117712317D01*
X88502317Y-118011368D01*
X88267354Y-118363014D01*
X88105508Y-118753743D01*
X88023000Y-119168539D01*
X85615643Y-119168539D01*
X85615643Y-118110000D01*
X85598710Y-117938078D01*
X85548562Y-117772763D01*
X85467127Y-117620408D01*
X85357533Y-117486867D01*
X85223992Y-117377273D01*
X85071637Y-117295838D01*
X84906322Y-117245690D01*
X84734400Y-117228757D01*
X82194400Y-117228757D01*
X82022478Y-117245690D01*
X81857163Y-117295838D01*
X81704808Y-117377273D01*
X81571267Y-117486867D01*
X81461673Y-117620408D01*
X81380238Y-117772763D01*
X81330090Y-117938078D01*
X81313157Y-118110000D01*
X70025995Y-118110000D01*
X70083847Y-118052148D01*
X69955524Y-117760129D01*
X69619905Y-117592277D01*
X69257989Y-117493126D01*
X68883684Y-117466486D01*
X68511373Y-117513382D01*
X68155365Y-117632012D01*
X67915676Y-117760129D01*
X67787353Y-118052148D01*
X63924932Y-118052148D01*
X63897683Y-118011368D01*
X63598632Y-117712317D01*
X63246986Y-117477354D01*
X62856257Y-117315508D01*
X62441461Y-117233000D01*
X62018539Y-117233000D01*
X61603743Y-117315508D01*
X61213014Y-117477354D01*
X60861368Y-117712317D01*
X60562317Y-118011368D01*
X60327354Y-118363014D01*
X60165508Y-118753743D01*
X60083000Y-119168539D01*
X57675643Y-119168539D01*
X57675643Y-118110000D01*
X57658710Y-117938078D01*
X57608562Y-117772763D01*
X57527127Y-117620408D01*
X57417533Y-117486867D01*
X57283992Y-117377273D01*
X57131637Y-117295838D01*
X56966322Y-117245690D01*
X56794400Y-117228757D01*
X54254400Y-117228757D01*
X54082478Y-117245690D01*
X53917163Y-117295838D01*
X53764808Y-117377273D01*
X53631267Y-117486867D01*
X53521673Y-117620408D01*
X53440238Y-117772763D01*
X53390090Y-117938078D01*
X53373157Y-118110000D01*
X45110000Y-118110000D01*
X45110000Y-98798505D01*
X48145000Y-98798505D01*
X48145000Y-99321495D01*
X48247031Y-99834435D01*
X48447170Y-100317614D01*
X48737727Y-100752464D01*
X49107536Y-101122273D01*
X49542386Y-101412830D01*
X50025565Y-101612969D01*
X50538505Y-101715000D01*
X51061495Y-101715000D01*
X51574435Y-101612969D01*
X52057614Y-101412830D01*
X52492464Y-101122273D01*
X52862273Y-100752464D01*
X53152830Y-100317614D01*
X53352969Y-99834435D01*
X53455000Y-99321495D01*
X53455000Y-98798505D01*
X53406483Y-98554591D01*
X57098500Y-98554591D01*
X57098500Y-99565409D01*
X57295701Y-100556803D01*
X57682524Y-101490677D01*
X58244104Y-102331140D01*
X58958860Y-103045896D01*
X59799323Y-103607476D01*
X60733197Y-103994299D01*
X61724591Y-104191500D01*
X62735409Y-104191500D01*
X63726803Y-103994299D01*
X64660677Y-103607476D01*
X65501140Y-103045896D01*
X66215896Y-102331140D01*
X66777476Y-101490677D01*
X67164299Y-100556803D01*
X67361500Y-99565409D01*
X67361500Y-98798505D01*
X76085000Y-98798505D01*
X76085000Y-99321495D01*
X76187031Y-99834435D01*
X76387170Y-100317614D01*
X76677727Y-100752464D01*
X77047536Y-101122273D01*
X77482386Y-101412830D01*
X77965565Y-101612969D01*
X78478505Y-101715000D01*
X79001495Y-101715000D01*
X79514435Y-101612969D01*
X79997614Y-101412830D01*
X80432464Y-101122273D01*
X80802273Y-100752464D01*
X81092830Y-100317614D01*
X81292969Y-99834435D01*
X81395000Y-99321495D01*
X81395000Y-98798505D01*
X81346483Y-98554591D01*
X85038500Y-98554591D01*
X85038500Y-99565409D01*
X85235701Y-100556803D01*
X85622524Y-101490677D01*
X86184104Y-102331140D01*
X86898860Y-103045896D01*
X87739323Y-103607476D01*
X88673197Y-103994299D01*
X89664591Y-104191500D01*
X90675409Y-104191500D01*
X91666803Y-103994299D01*
X92600677Y-103607476D01*
X93441140Y-103045896D01*
X94155896Y-102331140D01*
X94717476Y-101490677D01*
X95104299Y-100556803D01*
X95301500Y-99565409D01*
X95301500Y-98798505D01*
X104025000Y-98798505D01*
X104025000Y-99321495D01*
X104127031Y-99834435D01*
X104327170Y-100317614D01*
X104617727Y-100752464D01*
X104987536Y-101122273D01*
X105422386Y-101412830D01*
X105905565Y-101612969D01*
X106418505Y-101715000D01*
X106941495Y-101715000D01*
X107454435Y-101612969D01*
X107937614Y-101412830D01*
X108372464Y-101122273D01*
X108742273Y-100752464D01*
X109032830Y-100317614D01*
X109232969Y-99834435D01*
X109335000Y-99321495D01*
X109335000Y-98798505D01*
X109286483Y-98554591D01*
X112978500Y-98554591D01*
X112978500Y-99565409D01*
X113175701Y-100556803D01*
X113562524Y-101490677D01*
X114124104Y-102331140D01*
X114838860Y-103045896D01*
X115679323Y-103607476D01*
X116613197Y-103994299D01*
X117604591Y-104191500D01*
X118615409Y-104191500D01*
X119606803Y-103994299D01*
X120540677Y-103607476D01*
X121381140Y-103045896D01*
X122095896Y-102331140D01*
X122657476Y-101490677D01*
X123044299Y-100556803D01*
X123241500Y-99565409D01*
X123241500Y-98798505D01*
X131965000Y-98798505D01*
X131965000Y-99321495D01*
X132067031Y-99834435D01*
X132267170Y-100317614D01*
X132557727Y-100752464D01*
X132927536Y-101122273D01*
X133362386Y-101412830D01*
X133845565Y-101612969D01*
X134358505Y-101715000D01*
X134881495Y-101715000D01*
X135394435Y-101612969D01*
X135877614Y-101412830D01*
X136312464Y-101122273D01*
X136682273Y-100752464D01*
X136972830Y-100317614D01*
X137172969Y-99834435D01*
X137275000Y-99321495D01*
X137275000Y-98798505D01*
X137226483Y-98554591D01*
X140918500Y-98554591D01*
X140918500Y-99565409D01*
X141115701Y-100556803D01*
X141502524Y-101490677D01*
X142064104Y-102331140D01*
X142778860Y-103045896D01*
X143619323Y-103607476D01*
X144553197Y-103994299D01*
X145544591Y-104191500D01*
X146555409Y-104191500D01*
X147546803Y-103994299D01*
X148480677Y-103607476D01*
X149321140Y-103045896D01*
X150035896Y-102331140D01*
X150597476Y-101490677D01*
X150984299Y-100556803D01*
X151181500Y-99565409D01*
X151181500Y-98798505D01*
X159905000Y-98798505D01*
X159905000Y-99321495D01*
X160007031Y-99834435D01*
X160207170Y-100317614D01*
X160497727Y-100752464D01*
X160867536Y-101122273D01*
X161302386Y-101412830D01*
X161785565Y-101612969D01*
X162298505Y-101715000D01*
X162821495Y-101715000D01*
X163334435Y-101612969D01*
X163817614Y-101412830D01*
X164252464Y-101122273D01*
X164622273Y-100752464D01*
X164912830Y-100317614D01*
X165112969Y-99834435D01*
X165215000Y-99321495D01*
X165215000Y-98798505D01*
X165166483Y-98554591D01*
X168858500Y-98554591D01*
X168858500Y-99565409D01*
X169055701Y-100556803D01*
X169442524Y-101490677D01*
X170004104Y-102331140D01*
X170718860Y-103045896D01*
X171559323Y-103607476D01*
X172493197Y-103994299D01*
X173484591Y-104191500D01*
X174495409Y-104191500D01*
X175486803Y-103994299D01*
X176420677Y-103607476D01*
X177261140Y-103045896D01*
X177975896Y-102331140D01*
X178537476Y-101490677D01*
X178924299Y-100556803D01*
X179121500Y-99565409D01*
X179121500Y-98554591D01*
X178924299Y-97563197D01*
X178821850Y-97315862D01*
X197116000Y-97315862D01*
X197116000Y-98264138D01*
X197300999Y-99194192D01*
X197663888Y-100070284D01*
X198190722Y-100858746D01*
X198861254Y-101529278D01*
X199649716Y-102056112D01*
X200398152Y-102366124D01*
X200114345Y-102649931D01*
X199858535Y-103032779D01*
X199682329Y-103458176D01*
X199592500Y-103909776D01*
X199592500Y-104370224D01*
X199682329Y-104821824D01*
X199858535Y-105247221D01*
X200114345Y-105630069D01*
X200439931Y-105955655D01*
X200822779Y-106211465D01*
X201248176Y-106387671D01*
X201363501Y-106410611D01*
X201153643Y-106497537D01*
X200885199Y-106676906D01*
X200875248Y-106686857D01*
X200775133Y-106564867D01*
X200641592Y-106455273D01*
X200489237Y-106373838D01*
X200323922Y-106323690D01*
X200152000Y-106306757D01*
X198628000Y-106306757D01*
X198456078Y-106323690D01*
X198290763Y-106373838D01*
X198138408Y-106455273D01*
X198004867Y-106564867D01*
X197895273Y-106698408D01*
X197813838Y-106850763D01*
X197763690Y-107016078D01*
X197746757Y-107188000D01*
X197746757Y-108712000D01*
X197763690Y-108883922D01*
X197813838Y-109049237D01*
X197895273Y-109201592D01*
X198004867Y-109335133D01*
X198138408Y-109444727D01*
X198290763Y-109526162D01*
X198456078Y-109576310D01*
X198628000Y-109593243D01*
X200152000Y-109593243D01*
X200323922Y-109576310D01*
X200489237Y-109526162D01*
X200641592Y-109444727D01*
X200775133Y-109335133D01*
X200875248Y-109213143D01*
X200885199Y-109223094D01*
X201153643Y-109402463D01*
X201451921Y-109526014D01*
X201768573Y-109589000D01*
X202091427Y-109589000D01*
X202408079Y-109526014D01*
X202706357Y-109402463D01*
X202974801Y-109223094D01*
X203200000Y-108997895D01*
X203425199Y-109223094D01*
X203693643Y-109402463D01*
X203991921Y-109526014D01*
X204308573Y-109589000D01*
X204631427Y-109589000D01*
X204948079Y-109526014D01*
X205246357Y-109402463D01*
X205514801Y-109223094D01*
X205743094Y-108994801D01*
X205922463Y-108726357D01*
X206046014Y-108428079D01*
X206109000Y-108111427D01*
X206109000Y-107788573D01*
X206046014Y-107471921D01*
X205922463Y-107173643D01*
X205743094Y-106905199D01*
X205514801Y-106676906D01*
X205246357Y-106497537D01*
X204948079Y-106373986D01*
X204631427Y-106311000D01*
X204308573Y-106311000D01*
X203991921Y-106373986D01*
X203693643Y-106497537D01*
X203425199Y-106676906D01*
X203200000Y-106902105D01*
X202974801Y-106676906D01*
X202706357Y-106497537D01*
X202496499Y-106410611D01*
X202611824Y-106387671D01*
X203037221Y-106211465D01*
X203420069Y-105955655D01*
X203745655Y-105630069D01*
X204001465Y-105247221D01*
X204177671Y-104821824D01*
X204267500Y-104370224D01*
X204267500Y-103909776D01*
X204177671Y-103458176D01*
X204001465Y-103032779D01*
X203745655Y-102649931D01*
X203461848Y-102366124D01*
X204210284Y-102056112D01*
X204998746Y-101529278D01*
X205669278Y-100858746D01*
X206196112Y-100070284D01*
X206559001Y-99194192D01*
X206744000Y-98264138D01*
X206744000Y-97315862D01*
X206559001Y-96385808D01*
X206196112Y-95509716D01*
X205669278Y-94721254D01*
X204998746Y-94050722D01*
X204210284Y-93523888D01*
X203334192Y-93160999D01*
X202404138Y-92976000D01*
X201455862Y-92976000D01*
X200525808Y-93160999D01*
X199649716Y-93523888D01*
X198861254Y-94050722D01*
X198190722Y-94721254D01*
X197663888Y-95509716D01*
X197300999Y-96385808D01*
X197116000Y-97315862D01*
X178821850Y-97315862D01*
X178537476Y-96629323D01*
X177975896Y-95788860D01*
X177261140Y-95074104D01*
X176420677Y-94512524D01*
X175486803Y-94125701D01*
X174495409Y-93928500D01*
X173484591Y-93928500D01*
X172493197Y-94125701D01*
X171559323Y-94512524D01*
X170718860Y-95074104D01*
X170004104Y-95788860D01*
X169442524Y-96629323D01*
X169055701Y-97563197D01*
X168858500Y-98554591D01*
X165166483Y-98554591D01*
X165112969Y-98285565D01*
X164912830Y-97802386D01*
X164622273Y-97367536D01*
X164252464Y-96997727D01*
X163817614Y-96707170D01*
X163334435Y-96507031D01*
X162821495Y-96405000D01*
X162298505Y-96405000D01*
X161785565Y-96507031D01*
X161302386Y-96707170D01*
X160867536Y-96997727D01*
X160497727Y-97367536D01*
X160207170Y-97802386D01*
X160007031Y-98285565D01*
X159905000Y-98798505D01*
X151181500Y-98798505D01*
X151181500Y-98554591D01*
X150984299Y-97563197D01*
X150597476Y-96629323D01*
X150035896Y-95788860D01*
X149321140Y-95074104D01*
X148480677Y-94512524D01*
X147546803Y-94125701D01*
X146555409Y-93928500D01*
X145544591Y-93928500D01*
X144553197Y-94125701D01*
X143619323Y-94512524D01*
X142778860Y-95074104D01*
X142064104Y-95788860D01*
X141502524Y-96629323D01*
X141115701Y-97563197D01*
X140918500Y-98554591D01*
X137226483Y-98554591D01*
X137172969Y-98285565D01*
X136972830Y-97802386D01*
X136682273Y-97367536D01*
X136312464Y-96997727D01*
X135877614Y-96707170D01*
X135394435Y-96507031D01*
X134881495Y-96405000D01*
X134358505Y-96405000D01*
X133845565Y-96507031D01*
X133362386Y-96707170D01*
X132927536Y-96997727D01*
X132557727Y-97367536D01*
X132267170Y-97802386D01*
X132067031Y-98285565D01*
X131965000Y-98798505D01*
X123241500Y-98798505D01*
X123241500Y-98554591D01*
X123044299Y-97563197D01*
X122657476Y-96629323D01*
X122095896Y-95788860D01*
X121381140Y-95074104D01*
X120540677Y-94512524D01*
X119606803Y-94125701D01*
X118615409Y-93928500D01*
X117604591Y-93928500D01*
X116613197Y-94125701D01*
X115679323Y-94512524D01*
X114838860Y-95074104D01*
X114124104Y-95788860D01*
X113562524Y-96629323D01*
X113175701Y-97563197D01*
X112978500Y-98554591D01*
X109286483Y-98554591D01*
X109232969Y-98285565D01*
X109032830Y-97802386D01*
X108742273Y-97367536D01*
X108372464Y-96997727D01*
X107937614Y-96707170D01*
X107454435Y-96507031D01*
X106941495Y-96405000D01*
X106418505Y-96405000D01*
X105905565Y-96507031D01*
X105422386Y-96707170D01*
X104987536Y-96997727D01*
X104617727Y-97367536D01*
X104327170Y-97802386D01*
X104127031Y-98285565D01*
X104025000Y-98798505D01*
X95301500Y-98798505D01*
X95301500Y-98554591D01*
X95104299Y-97563197D01*
X94717476Y-96629323D01*
X94155896Y-95788860D01*
X93441140Y-95074104D01*
X92600677Y-94512524D01*
X91666803Y-94125701D01*
X90675409Y-93928500D01*
X89664591Y-93928500D01*
X88673197Y-94125701D01*
X87739323Y-94512524D01*
X86898860Y-95074104D01*
X86184104Y-95788860D01*
X85622524Y-96629323D01*
X85235701Y-97563197D01*
X85038500Y-98554591D01*
X81346483Y-98554591D01*
X81292969Y-98285565D01*
X81092830Y-97802386D01*
X80802273Y-97367536D01*
X80432464Y-96997727D01*
X79997614Y-96707170D01*
X79514435Y-96507031D01*
X79001495Y-96405000D01*
X78478505Y-96405000D01*
X77965565Y-96507031D01*
X77482386Y-96707170D01*
X77047536Y-96997727D01*
X76677727Y-97367536D01*
X76387170Y-97802386D01*
X76187031Y-98285565D01*
X76085000Y-98798505D01*
X67361500Y-98798505D01*
X67361500Y-98554591D01*
X67164299Y-97563197D01*
X66777476Y-96629323D01*
X66215896Y-95788860D01*
X65501140Y-95074104D01*
X64660677Y-94512524D01*
X63726803Y-94125701D01*
X62735409Y-93928500D01*
X61724591Y-93928500D01*
X60733197Y-94125701D01*
X59799323Y-94512524D01*
X58958860Y-95074104D01*
X58244104Y-95788860D01*
X57682524Y-96629323D01*
X57295701Y-97563197D01*
X57098500Y-98554591D01*
X53406483Y-98554591D01*
X53352969Y-98285565D01*
X53152830Y-97802386D01*
X52862273Y-97367536D01*
X52492464Y-96997727D01*
X52057614Y-96707170D01*
X51574435Y-96507031D01*
X51061495Y-96405000D01*
X50538505Y-96405000D01*
X50025565Y-96507031D01*
X49542386Y-96707170D01*
X49107536Y-96997727D01*
X48737727Y-97367536D01*
X48447170Y-97802386D01*
X48247031Y-98285565D01*
X48145000Y-98798505D01*
X45110000Y-98798505D01*
X45110000Y-81915000D01*
X53093757Y-81915000D01*
X53093757Y-84455000D01*
X53110690Y-84626922D01*
X53160838Y-84792237D01*
X53242273Y-84944592D01*
X53351867Y-85078133D01*
X53485408Y-85187727D01*
X53637763Y-85269162D01*
X53803078Y-85319310D01*
X53975000Y-85336243D01*
X56515000Y-85336243D01*
X56686922Y-85319310D01*
X56852237Y-85269162D01*
X57004592Y-85187727D01*
X57138133Y-85078133D01*
X57247727Y-84944592D01*
X57329162Y-84792237D01*
X57379310Y-84626922D01*
X57396243Y-84455000D01*
X57396243Y-82973539D01*
X60083000Y-82973539D01*
X60083000Y-83396461D01*
X60165508Y-83811257D01*
X60327354Y-84201986D01*
X60562317Y-84553632D01*
X60861368Y-84852683D01*
X61213014Y-85087646D01*
X61603743Y-85249492D01*
X62018539Y-85332000D01*
X62441461Y-85332000D01*
X62856257Y-85249492D01*
X63246986Y-85087646D01*
X63598632Y-84852683D01*
X63897683Y-84553632D01*
X63924931Y-84512852D01*
X68066753Y-84512852D01*
X68195076Y-84804871D01*
X68530695Y-84972723D01*
X68892611Y-85071874D01*
X69266916Y-85098514D01*
X69639227Y-85051618D01*
X69995235Y-84932988D01*
X70234924Y-84804871D01*
X70363247Y-84512852D01*
X69215000Y-83364605D01*
X68066753Y-84512852D01*
X63924931Y-84512852D01*
X64132646Y-84201986D01*
X64294492Y-83811257D01*
X64377000Y-83396461D01*
X64377000Y-83236916D01*
X67301486Y-83236916D01*
X67348382Y-83609227D01*
X67467012Y-83965235D01*
X67595129Y-84204924D01*
X67887148Y-84333247D01*
X69035395Y-83185000D01*
X69394605Y-83185000D01*
X70542852Y-84333247D01*
X70834871Y-84204924D01*
X71002723Y-83869305D01*
X71101874Y-83507389D01*
X71128514Y-83133084D01*
X71081618Y-82760773D01*
X70962988Y-82404765D01*
X70834871Y-82165076D01*
X70542852Y-82036753D01*
X69394605Y-83185000D01*
X69035395Y-83185000D01*
X67887148Y-82036753D01*
X67595129Y-82165076D01*
X67427277Y-82500695D01*
X67328126Y-82862611D01*
X67301486Y-83236916D01*
X64377000Y-83236916D01*
X64377000Y-82973539D01*
X64294492Y-82558743D01*
X64132646Y-82168014D01*
X63924932Y-81857148D01*
X68066753Y-81857148D01*
X69215000Y-83005395D01*
X70305395Y-81915000D01*
X81033757Y-81915000D01*
X81033757Y-84455000D01*
X81050690Y-84626922D01*
X81100838Y-84792237D01*
X81182273Y-84944592D01*
X81291867Y-85078133D01*
X81425408Y-85187727D01*
X81577763Y-85269162D01*
X81743078Y-85319310D01*
X81915000Y-85336243D01*
X84455000Y-85336243D01*
X84626922Y-85319310D01*
X84792237Y-85269162D01*
X84944592Y-85187727D01*
X85078133Y-85078133D01*
X85187727Y-84944592D01*
X85269162Y-84792237D01*
X85319310Y-84626922D01*
X85336243Y-84455000D01*
X85336243Y-82973539D01*
X88023000Y-82973539D01*
X88023000Y-83396461D01*
X88105508Y-83811257D01*
X88267354Y-84201986D01*
X88502317Y-84553632D01*
X88801368Y-84852683D01*
X89153014Y-85087646D01*
X89543743Y-85249492D01*
X89958539Y-85332000D01*
X90381461Y-85332000D01*
X90796257Y-85249492D01*
X91186986Y-85087646D01*
X91538632Y-84852683D01*
X91837683Y-84553632D01*
X91864931Y-84512852D01*
X96006753Y-84512852D01*
X96135076Y-84804871D01*
X96470695Y-84972723D01*
X96832611Y-85071874D01*
X97206916Y-85098514D01*
X97579227Y-85051618D01*
X97935235Y-84932988D01*
X98174924Y-84804871D01*
X98303247Y-84512852D01*
X97155000Y-83364605D01*
X96006753Y-84512852D01*
X91864931Y-84512852D01*
X92072646Y-84201986D01*
X92234492Y-83811257D01*
X92317000Y-83396461D01*
X92317000Y-83236916D01*
X95241486Y-83236916D01*
X95288382Y-83609227D01*
X95407012Y-83965235D01*
X95535129Y-84204924D01*
X95827148Y-84333247D01*
X96975395Y-83185000D01*
X97334605Y-83185000D01*
X98482852Y-84333247D01*
X98774871Y-84204924D01*
X98942723Y-83869305D01*
X99041874Y-83507389D01*
X99068514Y-83133084D01*
X99021618Y-82760773D01*
X98902988Y-82404765D01*
X98774871Y-82165076D01*
X98482852Y-82036753D01*
X97334605Y-83185000D01*
X96975395Y-83185000D01*
X95827148Y-82036753D01*
X95535129Y-82165076D01*
X95367277Y-82500695D01*
X95268126Y-82862611D01*
X95241486Y-83236916D01*
X92317000Y-83236916D01*
X92317000Y-82973539D01*
X92234492Y-82558743D01*
X92072646Y-82168014D01*
X91864932Y-81857148D01*
X96006753Y-81857148D01*
X97155000Y-83005395D01*
X98245395Y-81915000D01*
X108973757Y-81915000D01*
X108973757Y-84455000D01*
X108990690Y-84626922D01*
X109040838Y-84792237D01*
X109122273Y-84944592D01*
X109231867Y-85078133D01*
X109365408Y-85187727D01*
X109517763Y-85269162D01*
X109683078Y-85319310D01*
X109855000Y-85336243D01*
X112395000Y-85336243D01*
X112566922Y-85319310D01*
X112732237Y-85269162D01*
X112884592Y-85187727D01*
X113018133Y-85078133D01*
X113127727Y-84944592D01*
X113209162Y-84792237D01*
X113259310Y-84626922D01*
X113276243Y-84455000D01*
X113276243Y-82973539D01*
X115963000Y-82973539D01*
X115963000Y-83396461D01*
X116045508Y-83811257D01*
X116207354Y-84201986D01*
X116442317Y-84553632D01*
X116741368Y-84852683D01*
X117093014Y-85087646D01*
X117483743Y-85249492D01*
X117898539Y-85332000D01*
X118321461Y-85332000D01*
X118736257Y-85249492D01*
X119126986Y-85087646D01*
X119478632Y-84852683D01*
X119777683Y-84553632D01*
X119804931Y-84512852D01*
X123946753Y-84512852D01*
X124075076Y-84804871D01*
X124410695Y-84972723D01*
X124772611Y-85071874D01*
X125146916Y-85098514D01*
X125519227Y-85051618D01*
X125875235Y-84932988D01*
X126114924Y-84804871D01*
X126243247Y-84512852D01*
X125095000Y-83364605D01*
X123946753Y-84512852D01*
X119804931Y-84512852D01*
X120012646Y-84201986D01*
X120174492Y-83811257D01*
X120257000Y-83396461D01*
X120257000Y-83236916D01*
X123181486Y-83236916D01*
X123228382Y-83609227D01*
X123347012Y-83965235D01*
X123475129Y-84204924D01*
X123767148Y-84333247D01*
X124915395Y-83185000D01*
X125274605Y-83185000D01*
X126422852Y-84333247D01*
X126714871Y-84204924D01*
X126882723Y-83869305D01*
X126896230Y-83820000D01*
X135923157Y-83820000D01*
X135923157Y-86360000D01*
X135940090Y-86531922D01*
X135990238Y-86697237D01*
X136071673Y-86849592D01*
X136181267Y-86983133D01*
X136314808Y-87092727D01*
X136467163Y-87174162D01*
X136632478Y-87224310D01*
X136804400Y-87241243D01*
X139344400Y-87241243D01*
X139516322Y-87224310D01*
X139681637Y-87174162D01*
X139833992Y-87092727D01*
X139967533Y-86983133D01*
X140077127Y-86849592D01*
X140158562Y-86697237D01*
X140208710Y-86531922D01*
X140225643Y-86360000D01*
X140225643Y-84878539D01*
X142633000Y-84878539D01*
X142633000Y-85301461D01*
X142715508Y-85716257D01*
X142877354Y-86106986D01*
X143112317Y-86458632D01*
X143411368Y-86757683D01*
X143763014Y-86992646D01*
X144153743Y-87154492D01*
X144568539Y-87237000D01*
X144991461Y-87237000D01*
X145406257Y-87154492D01*
X145796986Y-86992646D01*
X146148632Y-86757683D01*
X146447683Y-86458632D01*
X146474931Y-86417852D01*
X150337353Y-86417852D01*
X150465676Y-86709871D01*
X150801295Y-86877723D01*
X151163211Y-86976874D01*
X151537516Y-87003514D01*
X151909827Y-86956618D01*
X152265835Y-86837988D01*
X152505524Y-86709871D01*
X152633847Y-86417852D01*
X151485600Y-85269605D01*
X150337353Y-86417852D01*
X146474931Y-86417852D01*
X146682646Y-86106986D01*
X146844492Y-85716257D01*
X146927000Y-85301461D01*
X146927000Y-85141916D01*
X149572086Y-85141916D01*
X149618982Y-85514227D01*
X149737612Y-85870235D01*
X149865729Y-86109924D01*
X150157748Y-86238247D01*
X151305995Y-85090000D01*
X151665205Y-85090000D01*
X152813452Y-86238247D01*
X153105471Y-86109924D01*
X153273323Y-85774305D01*
X153372474Y-85412389D01*
X153399114Y-85038084D01*
X153352218Y-84665773D01*
X153233588Y-84309765D01*
X153105471Y-84070076D01*
X152813452Y-83941753D01*
X151665205Y-85090000D01*
X151305995Y-85090000D01*
X150157748Y-83941753D01*
X149865729Y-84070076D01*
X149697877Y-84405695D01*
X149598726Y-84767611D01*
X149572086Y-85141916D01*
X146927000Y-85141916D01*
X146927000Y-84878539D01*
X146844492Y-84463743D01*
X146682646Y-84073014D01*
X146474932Y-83762148D01*
X150337353Y-83762148D01*
X151485600Y-84910395D01*
X152633847Y-83762148D01*
X152505524Y-83470129D01*
X152169905Y-83302277D01*
X151807989Y-83203126D01*
X151433684Y-83176486D01*
X151061373Y-83223382D01*
X150705365Y-83342012D01*
X150465676Y-83470129D01*
X150337353Y-83762148D01*
X146474932Y-83762148D01*
X146447683Y-83721368D01*
X146148632Y-83422317D01*
X145796986Y-83187354D01*
X145406257Y-83025508D01*
X144991461Y-82943000D01*
X144568539Y-82943000D01*
X144153743Y-83025508D01*
X143763014Y-83187354D01*
X143411368Y-83422317D01*
X143112317Y-83721368D01*
X142877354Y-84073014D01*
X142715508Y-84463743D01*
X142633000Y-84878539D01*
X140225643Y-84878539D01*
X140225643Y-83820000D01*
X140208710Y-83648078D01*
X140158562Y-83482763D01*
X140077127Y-83330408D01*
X139967533Y-83196867D01*
X139833992Y-83087273D01*
X139681637Y-83005838D01*
X139516322Y-82955690D01*
X139344400Y-82938757D01*
X136804400Y-82938757D01*
X136632478Y-82955690D01*
X136467163Y-83005838D01*
X136314808Y-83087273D01*
X136181267Y-83196867D01*
X136071673Y-83330408D01*
X135990238Y-83482763D01*
X135940090Y-83648078D01*
X135923157Y-83820000D01*
X126896230Y-83820000D01*
X126981874Y-83507389D01*
X127008514Y-83133084D01*
X126961618Y-82760773D01*
X126891384Y-82550000D01*
X165133157Y-82550000D01*
X165133157Y-85090000D01*
X165150090Y-85261922D01*
X165200238Y-85427237D01*
X165281673Y-85579592D01*
X165391267Y-85713133D01*
X165524808Y-85822727D01*
X165677163Y-85904162D01*
X165842478Y-85954310D01*
X166014400Y-85971243D01*
X167233872Y-85971243D01*
X170018483Y-88755855D01*
X170061603Y-88808397D01*
X170271279Y-88980473D01*
X170510495Y-89108337D01*
X170770061Y-89187075D01*
X170972360Y-89207000D01*
X170972370Y-89207000D01*
X171039999Y-89213661D01*
X171107629Y-89207000D01*
X191146760Y-89207000D01*
X191214400Y-89213662D01*
X191484339Y-89187075D01*
X191484342Y-89187074D01*
X191743905Y-89108337D01*
X191983121Y-88980473D01*
X192192797Y-88808397D01*
X192235921Y-88755850D01*
X195020529Y-85971243D01*
X196494400Y-85971243D01*
X196666322Y-85954310D01*
X196831637Y-85904162D01*
X196983992Y-85822727D01*
X197117533Y-85713133D01*
X197227127Y-85579592D01*
X197308562Y-85427237D01*
X197358710Y-85261922D01*
X197375643Y-85090000D01*
X197375643Y-83608539D01*
X199783000Y-83608539D01*
X199783000Y-84031461D01*
X199865508Y-84446257D01*
X200027354Y-84836986D01*
X200262317Y-85188632D01*
X200561368Y-85487683D01*
X200913014Y-85722646D01*
X201303743Y-85884492D01*
X201718539Y-85967000D01*
X202141461Y-85967000D01*
X202556257Y-85884492D01*
X202946986Y-85722646D01*
X203298632Y-85487683D01*
X203597683Y-85188632D01*
X203624931Y-85147852D01*
X207487353Y-85147852D01*
X207615676Y-85439871D01*
X207951295Y-85607723D01*
X208313211Y-85706874D01*
X208687516Y-85733514D01*
X209059827Y-85686618D01*
X209415835Y-85567988D01*
X209655524Y-85439871D01*
X209783847Y-85147852D01*
X208635600Y-83999605D01*
X207487353Y-85147852D01*
X203624931Y-85147852D01*
X203832646Y-84836986D01*
X203994492Y-84446257D01*
X204077000Y-84031461D01*
X204077000Y-83871916D01*
X206722086Y-83871916D01*
X206768982Y-84244227D01*
X206887612Y-84600235D01*
X207015729Y-84839924D01*
X207307748Y-84968247D01*
X208455995Y-83820000D01*
X208815205Y-83820000D01*
X209963452Y-84968247D01*
X210255471Y-84839924D01*
X210423323Y-84504305D01*
X210522474Y-84142389D01*
X210549114Y-83768084D01*
X210502218Y-83395773D01*
X210383588Y-83039765D01*
X210255471Y-82800076D01*
X209963452Y-82671753D01*
X208815205Y-83820000D01*
X208455995Y-83820000D01*
X207307748Y-82671753D01*
X207015729Y-82800076D01*
X206847877Y-83135695D01*
X206748726Y-83497611D01*
X206722086Y-83871916D01*
X204077000Y-83871916D01*
X204077000Y-83608539D01*
X203994492Y-83193743D01*
X203832646Y-82803014D01*
X203624932Y-82492148D01*
X207487353Y-82492148D01*
X208635600Y-83640395D01*
X209783847Y-82492148D01*
X209655524Y-82200129D01*
X209319905Y-82032277D01*
X208957989Y-81933126D01*
X208583684Y-81906486D01*
X208211373Y-81953382D01*
X207855365Y-82072012D01*
X207615676Y-82200129D01*
X207487353Y-82492148D01*
X203624932Y-82492148D01*
X203597683Y-82451368D01*
X203298632Y-82152317D01*
X202946986Y-81917354D01*
X202556257Y-81755508D01*
X202141461Y-81673000D01*
X201718539Y-81673000D01*
X201303743Y-81755508D01*
X200913014Y-81917354D01*
X200561368Y-82152317D01*
X200262317Y-82451368D01*
X200027354Y-82803014D01*
X199865508Y-83193743D01*
X199783000Y-83608539D01*
X197375643Y-83608539D01*
X197375643Y-82550000D01*
X197358710Y-82378078D01*
X197308562Y-82212763D01*
X197227127Y-82060408D01*
X197117533Y-81926867D01*
X196983992Y-81817273D01*
X196831637Y-81735838D01*
X196666322Y-81685690D01*
X196494400Y-81668757D01*
X193954400Y-81668757D01*
X193782478Y-81685690D01*
X193617163Y-81735838D01*
X193464808Y-81817273D01*
X193331267Y-81926867D01*
X193221673Y-82060408D01*
X193140238Y-82212763D01*
X193090090Y-82378078D01*
X193073157Y-82550000D01*
X193073157Y-84023871D01*
X190644029Y-86453000D01*
X171610372Y-86453000D01*
X169435643Y-84278272D01*
X169435643Y-83608539D01*
X171843000Y-83608539D01*
X171843000Y-84031461D01*
X171925508Y-84446257D01*
X172087354Y-84836986D01*
X172322317Y-85188632D01*
X172621368Y-85487683D01*
X172973014Y-85722646D01*
X173363743Y-85884492D01*
X173778539Y-85967000D01*
X174201461Y-85967000D01*
X174616257Y-85884492D01*
X175006986Y-85722646D01*
X175358632Y-85487683D01*
X175657683Y-85188632D01*
X175684931Y-85147852D01*
X179547353Y-85147852D01*
X179675676Y-85439871D01*
X180011295Y-85607723D01*
X180373211Y-85706874D01*
X180747516Y-85733514D01*
X181119827Y-85686618D01*
X181475835Y-85567988D01*
X181715524Y-85439871D01*
X181843847Y-85147852D01*
X180695600Y-83999605D01*
X179547353Y-85147852D01*
X175684931Y-85147852D01*
X175892646Y-84836986D01*
X176054492Y-84446257D01*
X176137000Y-84031461D01*
X176137000Y-83871916D01*
X178782086Y-83871916D01*
X178828982Y-84244227D01*
X178947612Y-84600235D01*
X179075729Y-84839924D01*
X179367748Y-84968247D01*
X180515995Y-83820000D01*
X180875205Y-83820000D01*
X182023452Y-84968247D01*
X182315471Y-84839924D01*
X182483323Y-84504305D01*
X182582474Y-84142389D01*
X182609114Y-83768084D01*
X182562218Y-83395773D01*
X182443588Y-83039765D01*
X182315471Y-82800076D01*
X182023452Y-82671753D01*
X180875205Y-83820000D01*
X180515995Y-83820000D01*
X179367748Y-82671753D01*
X179075729Y-82800076D01*
X178907877Y-83135695D01*
X178808726Y-83497611D01*
X178782086Y-83871916D01*
X176137000Y-83871916D01*
X176137000Y-83608539D01*
X176054492Y-83193743D01*
X175892646Y-82803014D01*
X175684932Y-82492148D01*
X179547353Y-82492148D01*
X180695600Y-83640395D01*
X181843847Y-82492148D01*
X181715524Y-82200129D01*
X181379905Y-82032277D01*
X181017989Y-81933126D01*
X180643684Y-81906486D01*
X180271373Y-81953382D01*
X179915365Y-82072012D01*
X179675676Y-82200129D01*
X179547353Y-82492148D01*
X175684932Y-82492148D01*
X175657683Y-82451368D01*
X175358632Y-82152317D01*
X175006986Y-81917354D01*
X174616257Y-81755508D01*
X174201461Y-81673000D01*
X173778539Y-81673000D01*
X173363743Y-81755508D01*
X172973014Y-81917354D01*
X172621368Y-82152317D01*
X172322317Y-82451368D01*
X172087354Y-82803014D01*
X171925508Y-83193743D01*
X171843000Y-83608539D01*
X169435643Y-83608539D01*
X169435643Y-82550000D01*
X169418710Y-82378078D01*
X169368562Y-82212763D01*
X169287127Y-82060408D01*
X169177533Y-81926867D01*
X169043992Y-81817273D01*
X168891637Y-81735838D01*
X168726322Y-81685690D01*
X168554400Y-81668757D01*
X166014400Y-81668757D01*
X165842478Y-81685690D01*
X165677163Y-81735838D01*
X165524808Y-81817273D01*
X165391267Y-81926867D01*
X165281673Y-82060408D01*
X165200238Y-82212763D01*
X165150090Y-82378078D01*
X165133157Y-82550000D01*
X126891384Y-82550000D01*
X126842988Y-82404765D01*
X126714871Y-82165076D01*
X126422852Y-82036753D01*
X125274605Y-83185000D01*
X124915395Y-83185000D01*
X123767148Y-82036753D01*
X123475129Y-82165076D01*
X123307277Y-82500695D01*
X123208126Y-82862611D01*
X123181486Y-83236916D01*
X120257000Y-83236916D01*
X120257000Y-82973539D01*
X120174492Y-82558743D01*
X120012646Y-82168014D01*
X119804932Y-81857148D01*
X123946753Y-81857148D01*
X125095000Y-83005395D01*
X126243247Y-81857148D01*
X126114924Y-81565129D01*
X125779305Y-81397277D01*
X125417389Y-81298126D01*
X125043084Y-81271486D01*
X124670773Y-81318382D01*
X124314765Y-81437012D01*
X124075076Y-81565129D01*
X123946753Y-81857148D01*
X119804932Y-81857148D01*
X119777683Y-81816368D01*
X119478632Y-81517317D01*
X119126986Y-81282354D01*
X118736257Y-81120508D01*
X118321461Y-81038000D01*
X117898539Y-81038000D01*
X117483743Y-81120508D01*
X117093014Y-81282354D01*
X116741368Y-81517317D01*
X116442317Y-81816368D01*
X116207354Y-82168014D01*
X116045508Y-82558743D01*
X115963000Y-82973539D01*
X113276243Y-82973539D01*
X113276243Y-81915000D01*
X113259310Y-81743078D01*
X113209162Y-81577763D01*
X113127727Y-81425408D01*
X113018133Y-81291867D01*
X112884592Y-81182273D01*
X112732237Y-81100838D01*
X112566922Y-81050690D01*
X112395000Y-81033757D01*
X109855000Y-81033757D01*
X109683078Y-81050690D01*
X109517763Y-81100838D01*
X109365408Y-81182273D01*
X109231867Y-81291867D01*
X109122273Y-81425408D01*
X109040838Y-81577763D01*
X108990690Y-81743078D01*
X108973757Y-81915000D01*
X98245395Y-81915000D01*
X98303247Y-81857148D01*
X98174924Y-81565129D01*
X97839305Y-81397277D01*
X97477389Y-81298126D01*
X97103084Y-81271486D01*
X96730773Y-81318382D01*
X96374765Y-81437012D01*
X96135076Y-81565129D01*
X96006753Y-81857148D01*
X91864932Y-81857148D01*
X91837683Y-81816368D01*
X91538632Y-81517317D01*
X91186986Y-81282354D01*
X90796257Y-81120508D01*
X90381461Y-81038000D01*
X89958539Y-81038000D01*
X89543743Y-81120508D01*
X89153014Y-81282354D01*
X88801368Y-81517317D01*
X88502317Y-81816368D01*
X88267354Y-82168014D01*
X88105508Y-82558743D01*
X88023000Y-82973539D01*
X85336243Y-82973539D01*
X85336243Y-81915000D01*
X85319310Y-81743078D01*
X85269162Y-81577763D01*
X85187727Y-81425408D01*
X85078133Y-81291867D01*
X84944592Y-81182273D01*
X84792237Y-81100838D01*
X84626922Y-81050690D01*
X84455000Y-81033757D01*
X81915000Y-81033757D01*
X81743078Y-81050690D01*
X81577763Y-81100838D01*
X81425408Y-81182273D01*
X81291867Y-81291867D01*
X81182273Y-81425408D01*
X81100838Y-81577763D01*
X81050690Y-81743078D01*
X81033757Y-81915000D01*
X70305395Y-81915000D01*
X70363247Y-81857148D01*
X70234924Y-81565129D01*
X69899305Y-81397277D01*
X69537389Y-81298126D01*
X69163084Y-81271486D01*
X68790773Y-81318382D01*
X68434765Y-81437012D01*
X68195076Y-81565129D01*
X68066753Y-81857148D01*
X63924932Y-81857148D01*
X63897683Y-81816368D01*
X63598632Y-81517317D01*
X63246986Y-81282354D01*
X62856257Y-81120508D01*
X62441461Y-81038000D01*
X62018539Y-81038000D01*
X61603743Y-81120508D01*
X61213014Y-81282354D01*
X60861368Y-81517317D01*
X60562317Y-81816368D01*
X60327354Y-82168014D01*
X60165508Y-82558743D01*
X60083000Y-82973539D01*
X57396243Y-82973539D01*
X57396243Y-81915000D01*
X57379310Y-81743078D01*
X57329162Y-81577763D01*
X57247727Y-81425408D01*
X57138133Y-81291867D01*
X57004592Y-81182273D01*
X56852237Y-81100838D01*
X56686922Y-81050690D01*
X56515000Y-81033757D01*
X53975000Y-81033757D01*
X53803078Y-81050690D01*
X53637763Y-81100838D01*
X53485408Y-81182273D01*
X53351867Y-81291867D01*
X53242273Y-81425408D01*
X53160838Y-81577763D01*
X53110690Y-81743078D01*
X53093757Y-81915000D01*
X45110000Y-81915000D01*
X45110000Y-64483489D01*
X48526000Y-64483489D01*
X48526000Y-65056511D01*
X48637792Y-65618524D01*
X48857078Y-66147928D01*
X49175432Y-66624379D01*
X49580621Y-67029568D01*
X50057072Y-67347922D01*
X50586476Y-67567208D01*
X51148489Y-67679000D01*
X51721511Y-67679000D01*
X52283524Y-67567208D01*
X52812928Y-67347922D01*
X53289379Y-67029568D01*
X53694568Y-66624379D01*
X54012922Y-66147928D01*
X54232208Y-65618524D01*
X54344000Y-65056511D01*
X54344000Y-64483489D01*
X54285530Y-64189541D01*
X56336500Y-64189541D01*
X56336500Y-65350459D01*
X56562984Y-66489071D01*
X57007248Y-67561619D01*
X57652220Y-68526887D01*
X58473113Y-69347780D01*
X59438381Y-69992752D01*
X60510929Y-70437016D01*
X61649541Y-70663500D01*
X62810459Y-70663500D01*
X63949071Y-70437016D01*
X65021619Y-69992752D01*
X65986887Y-69347780D01*
X66807780Y-68526887D01*
X67452752Y-67561619D01*
X67897016Y-66489071D01*
X68123500Y-65350459D01*
X68123500Y-64483489D01*
X76466000Y-64483489D01*
X76466000Y-65056511D01*
X76577792Y-65618524D01*
X76797078Y-66147928D01*
X77115432Y-66624379D01*
X77520621Y-67029568D01*
X77997072Y-67347922D01*
X78526476Y-67567208D01*
X79088489Y-67679000D01*
X79661511Y-67679000D01*
X80223524Y-67567208D01*
X80752928Y-67347922D01*
X81229379Y-67029568D01*
X81634568Y-66624379D01*
X81952922Y-66147928D01*
X82172208Y-65618524D01*
X82284000Y-65056511D01*
X82284000Y-64483489D01*
X82225530Y-64189541D01*
X84276500Y-64189541D01*
X84276500Y-65350459D01*
X84502984Y-66489071D01*
X84947248Y-67561619D01*
X85592220Y-68526887D01*
X86413113Y-69347780D01*
X87378381Y-69992752D01*
X88450929Y-70437016D01*
X89589541Y-70663500D01*
X90750459Y-70663500D01*
X91889071Y-70437016D01*
X92961619Y-69992752D01*
X93926887Y-69347780D01*
X94747780Y-68526887D01*
X95392752Y-67561619D01*
X95837016Y-66489071D01*
X96063500Y-65350459D01*
X96063500Y-64483489D01*
X104406000Y-64483489D01*
X104406000Y-65056511D01*
X104517792Y-65618524D01*
X104737078Y-66147928D01*
X105055432Y-66624379D01*
X105460621Y-67029568D01*
X105937072Y-67347922D01*
X106466476Y-67567208D01*
X107028489Y-67679000D01*
X107601511Y-67679000D01*
X108163524Y-67567208D01*
X108692928Y-67347922D01*
X109169379Y-67029568D01*
X109574568Y-66624379D01*
X109892922Y-66147928D01*
X110112208Y-65618524D01*
X110224000Y-65056511D01*
X110224000Y-64483489D01*
X110165530Y-64189541D01*
X112216500Y-64189541D01*
X112216500Y-65350459D01*
X112442984Y-66489071D01*
X112887248Y-67561619D01*
X113532220Y-68526887D01*
X114353113Y-69347780D01*
X115318381Y-69992752D01*
X116390929Y-70437016D01*
X117529541Y-70663500D01*
X118690459Y-70663500D01*
X119829071Y-70437016D01*
X120901619Y-69992752D01*
X121866887Y-69347780D01*
X122687780Y-68526887D01*
X123332752Y-67561619D01*
X123777016Y-66489071D01*
X124003500Y-65350459D01*
X124003500Y-64508505D01*
X130695000Y-64508505D01*
X130695000Y-65031495D01*
X130797031Y-65544435D01*
X130997170Y-66027614D01*
X131287727Y-66462464D01*
X131657536Y-66832273D01*
X132092386Y-67122830D01*
X132575565Y-67322969D01*
X133088505Y-67425000D01*
X133611495Y-67425000D01*
X134124435Y-67322969D01*
X134607614Y-67122830D01*
X135042464Y-66832273D01*
X135412273Y-66462464D01*
X135702830Y-66027614D01*
X135902969Y-65544435D01*
X136005000Y-65031495D01*
X136005000Y-64508505D01*
X135956483Y-64264591D01*
X139648500Y-64264591D01*
X139648500Y-65275409D01*
X139845701Y-66266803D01*
X140232524Y-67200677D01*
X140794104Y-68041140D01*
X141508860Y-68755896D01*
X142349323Y-69317476D01*
X143283197Y-69704299D01*
X144274591Y-69901500D01*
X145285409Y-69901500D01*
X146276803Y-69704299D01*
X147210677Y-69317476D01*
X148051140Y-68755896D01*
X148765896Y-68041140D01*
X149327476Y-67200677D01*
X149714299Y-66266803D01*
X149911500Y-65275409D01*
X149911500Y-64264591D01*
X149714299Y-63273197D01*
X149699930Y-63238505D01*
X159905000Y-63238505D01*
X159905000Y-63761495D01*
X160007031Y-64274435D01*
X160207170Y-64757614D01*
X160497727Y-65192464D01*
X160867536Y-65562273D01*
X161302386Y-65852830D01*
X161785565Y-66052969D01*
X162298505Y-66155000D01*
X162821495Y-66155000D01*
X163334435Y-66052969D01*
X163817614Y-65852830D01*
X164252464Y-65562273D01*
X164622273Y-65192464D01*
X164912830Y-64757614D01*
X165112969Y-64274435D01*
X165215000Y-63761495D01*
X165215000Y-63238505D01*
X165166483Y-62994591D01*
X168858500Y-62994591D01*
X168858500Y-64005409D01*
X169055701Y-64996803D01*
X169442524Y-65930677D01*
X170004104Y-66771140D01*
X170718860Y-67485896D01*
X171559323Y-68047476D01*
X172493197Y-68434299D01*
X173484591Y-68631500D01*
X174495409Y-68631500D01*
X175486803Y-68434299D01*
X176420677Y-68047476D01*
X177261140Y-67485896D01*
X177975896Y-66771140D01*
X178537476Y-65930677D01*
X178924299Y-64996803D01*
X179121500Y-64005409D01*
X179121500Y-63238505D01*
X187845000Y-63238505D01*
X187845000Y-63761495D01*
X187947031Y-64274435D01*
X188147170Y-64757614D01*
X188437727Y-65192464D01*
X188807536Y-65562273D01*
X189242386Y-65852830D01*
X189725565Y-66052969D01*
X190238505Y-66155000D01*
X190761495Y-66155000D01*
X191274435Y-66052969D01*
X191757614Y-65852830D01*
X192192464Y-65562273D01*
X192562273Y-65192464D01*
X192852830Y-64757614D01*
X193052969Y-64274435D01*
X193155000Y-63761495D01*
X193155000Y-63238505D01*
X193106483Y-62994591D01*
X196798500Y-62994591D01*
X196798500Y-64005409D01*
X196995701Y-64996803D01*
X197382524Y-65930677D01*
X197944104Y-66771140D01*
X198658860Y-67485896D01*
X199499323Y-68047476D01*
X200433197Y-68434299D01*
X201424591Y-68631500D01*
X202435409Y-68631500D01*
X203426803Y-68434299D01*
X204360677Y-68047476D01*
X205201140Y-67485896D01*
X205915896Y-66771140D01*
X206477476Y-65930677D01*
X206864299Y-64996803D01*
X207061500Y-64005409D01*
X207061500Y-62994591D01*
X206864299Y-62003197D01*
X206477476Y-61069323D01*
X205915896Y-60228860D01*
X205201140Y-59514104D01*
X204360677Y-58952524D01*
X203426803Y-58565701D01*
X202435409Y-58368500D01*
X201424591Y-58368500D01*
X200433197Y-58565701D01*
X199499323Y-58952524D01*
X198658860Y-59514104D01*
X197944104Y-60228860D01*
X197382524Y-61069323D01*
X196995701Y-62003197D01*
X196798500Y-62994591D01*
X193106483Y-62994591D01*
X193052969Y-62725565D01*
X192852830Y-62242386D01*
X192562273Y-61807536D01*
X192192464Y-61437727D01*
X191757614Y-61147170D01*
X191274435Y-60947031D01*
X190761495Y-60845000D01*
X190238505Y-60845000D01*
X189725565Y-60947031D01*
X189242386Y-61147170D01*
X188807536Y-61437727D01*
X188437727Y-61807536D01*
X188147170Y-62242386D01*
X187947031Y-62725565D01*
X187845000Y-63238505D01*
X179121500Y-63238505D01*
X179121500Y-62994591D01*
X178924299Y-62003197D01*
X178537476Y-61069323D01*
X177975896Y-60228860D01*
X177261140Y-59514104D01*
X176420677Y-58952524D01*
X175486803Y-58565701D01*
X174495409Y-58368500D01*
X173484591Y-58368500D01*
X172493197Y-58565701D01*
X171559323Y-58952524D01*
X170718860Y-59514104D01*
X170004104Y-60228860D01*
X169442524Y-61069323D01*
X169055701Y-62003197D01*
X168858500Y-62994591D01*
X165166483Y-62994591D01*
X165112969Y-62725565D01*
X164912830Y-62242386D01*
X164622273Y-61807536D01*
X164252464Y-61437727D01*
X163817614Y-61147170D01*
X163334435Y-60947031D01*
X162821495Y-60845000D01*
X162298505Y-60845000D01*
X161785565Y-60947031D01*
X161302386Y-61147170D01*
X160867536Y-61437727D01*
X160497727Y-61807536D01*
X160207170Y-62242386D01*
X160007031Y-62725565D01*
X159905000Y-63238505D01*
X149699930Y-63238505D01*
X149327476Y-62339323D01*
X148765896Y-61498860D01*
X148051140Y-60784104D01*
X147210677Y-60222524D01*
X146276803Y-59835701D01*
X145285409Y-59638500D01*
X144274591Y-59638500D01*
X143283197Y-59835701D01*
X142349323Y-60222524D01*
X141508860Y-60784104D01*
X140794104Y-61498860D01*
X140232524Y-62339323D01*
X139845701Y-63273197D01*
X139648500Y-64264591D01*
X135956483Y-64264591D01*
X135902969Y-63995565D01*
X135702830Y-63512386D01*
X135412273Y-63077536D01*
X135042464Y-62707727D01*
X134607614Y-62417170D01*
X134124435Y-62217031D01*
X133611495Y-62115000D01*
X133088505Y-62115000D01*
X132575565Y-62217031D01*
X132092386Y-62417170D01*
X131657536Y-62707727D01*
X131287727Y-63077536D01*
X130997170Y-63512386D01*
X130797031Y-63995565D01*
X130695000Y-64508505D01*
X124003500Y-64508505D01*
X124003500Y-64189541D01*
X123777016Y-63050929D01*
X123332752Y-61978381D01*
X122687780Y-61013113D01*
X121866887Y-60192220D01*
X120901619Y-59547248D01*
X119829071Y-59102984D01*
X118690459Y-58876500D01*
X117529541Y-58876500D01*
X116390929Y-59102984D01*
X115318381Y-59547248D01*
X114353113Y-60192220D01*
X113532220Y-61013113D01*
X112887248Y-61978381D01*
X112442984Y-63050929D01*
X112216500Y-64189541D01*
X110165530Y-64189541D01*
X110112208Y-63921476D01*
X109892922Y-63392072D01*
X109574568Y-62915621D01*
X109169379Y-62510432D01*
X108692928Y-62192078D01*
X108163524Y-61972792D01*
X107601511Y-61861000D01*
X107028489Y-61861000D01*
X106466476Y-61972792D01*
X105937072Y-62192078D01*
X105460621Y-62510432D01*
X105055432Y-62915621D01*
X104737078Y-63392072D01*
X104517792Y-63921476D01*
X104406000Y-64483489D01*
X96063500Y-64483489D01*
X96063500Y-64189541D01*
X95837016Y-63050929D01*
X95392752Y-61978381D01*
X94747780Y-61013113D01*
X93926887Y-60192220D01*
X92961619Y-59547248D01*
X91889071Y-59102984D01*
X90750459Y-58876500D01*
X89589541Y-58876500D01*
X88450929Y-59102984D01*
X87378381Y-59547248D01*
X86413113Y-60192220D01*
X85592220Y-61013113D01*
X84947248Y-61978381D01*
X84502984Y-63050929D01*
X84276500Y-64189541D01*
X82225530Y-64189541D01*
X82172208Y-63921476D01*
X81952922Y-63392072D01*
X81634568Y-62915621D01*
X81229379Y-62510432D01*
X80752928Y-62192078D01*
X80223524Y-61972792D01*
X79661511Y-61861000D01*
X79088489Y-61861000D01*
X78526476Y-61972792D01*
X77997072Y-62192078D01*
X77520621Y-62510432D01*
X77115432Y-62915621D01*
X76797078Y-63392072D01*
X76577792Y-63921476D01*
X76466000Y-64483489D01*
X68123500Y-64483489D01*
X68123500Y-64189541D01*
X67897016Y-63050929D01*
X67452752Y-61978381D01*
X66807780Y-61013113D01*
X65986887Y-60192220D01*
X65021619Y-59547248D01*
X63949071Y-59102984D01*
X62810459Y-58876500D01*
X61649541Y-58876500D01*
X60510929Y-59102984D01*
X59438381Y-59547248D01*
X58473113Y-60192220D01*
X57652220Y-61013113D01*
X57007248Y-61978381D01*
X56562984Y-63050929D01*
X56336500Y-64189541D01*
X54285530Y-64189541D01*
X54232208Y-63921476D01*
X54012922Y-63392072D01*
X53694568Y-62915621D01*
X53289379Y-62510432D01*
X52812928Y-62192078D01*
X52283524Y-61972792D01*
X51721511Y-61861000D01*
X51148489Y-61861000D01*
X50586476Y-61972792D01*
X50057072Y-62192078D01*
X49580621Y-62510432D01*
X49175432Y-62915621D01*
X48857078Y-63392072D01*
X48637792Y-63921476D01*
X48526000Y-64483489D01*
X45110000Y-64483489D01*
X45110000Y-45372621D01*
X47273000Y-45372621D01*
X47273000Y-46067379D01*
X47408540Y-46748788D01*
X47674413Y-47390661D01*
X48060400Y-47968332D01*
X48551668Y-48459600D01*
X49129339Y-48845587D01*
X49771212Y-49111460D01*
X50452621Y-49247000D01*
X51147379Y-49247000D01*
X51828788Y-49111460D01*
X52470661Y-48845587D01*
X53048332Y-48459600D01*
X53539600Y-47968332D01*
X53925587Y-47390661D01*
X54191460Y-46748788D01*
X54327000Y-46067379D01*
X54327000Y-45372621D01*
X54191460Y-44691212D01*
X53933731Y-44069000D01*
X67317757Y-44069000D01*
X67317757Y-47371000D01*
X67334690Y-47542922D01*
X67384838Y-47708237D01*
X67466273Y-47860592D01*
X67575867Y-47994133D01*
X67709408Y-48103727D01*
X67861763Y-48185162D01*
X68027078Y-48235310D01*
X68199000Y-48252243D01*
X71501000Y-48252243D01*
X71672922Y-48235310D01*
X71838237Y-48185162D01*
X71990592Y-48103727D01*
X72124133Y-47994133D01*
X72233727Y-47860592D01*
X72315162Y-47708237D01*
X72365310Y-47542922D01*
X72382243Y-47371000D01*
X72382243Y-47319147D01*
X73027858Y-47319147D01*
X73202032Y-47650167D01*
X73602518Y-47856039D01*
X74035472Y-47979824D01*
X74484257Y-48016766D01*
X74931625Y-47965443D01*
X75360385Y-47827830D01*
X75692768Y-47650167D01*
X75866942Y-47319147D01*
X74447400Y-45899605D01*
X73027858Y-47319147D01*
X72382243Y-47319147D01*
X72382243Y-46712820D01*
X72517233Y-46965368D01*
X72848253Y-47139542D01*
X74267795Y-45720000D01*
X74627005Y-45720000D01*
X76046547Y-47139542D01*
X76377567Y-46965368D01*
X76583439Y-46564882D01*
X76707224Y-46131928D01*
X76744166Y-45683143D01*
X76692843Y-45235775D01*
X76555230Y-44807015D01*
X76377567Y-44474632D01*
X76046547Y-44300458D01*
X74627005Y-45720000D01*
X74267795Y-45720000D01*
X72848253Y-44300458D01*
X72517233Y-44474632D01*
X72382243Y-44737230D01*
X72382243Y-44120853D01*
X73027858Y-44120853D01*
X74447400Y-45540395D01*
X75866942Y-44120853D01*
X75839659Y-44069000D01*
X91930357Y-44069000D01*
X91930357Y-47371000D01*
X91947290Y-47542922D01*
X91997438Y-47708237D01*
X92078873Y-47860592D01*
X92188467Y-47994133D01*
X92322008Y-48103727D01*
X92474363Y-48185162D01*
X92639678Y-48235310D01*
X92811600Y-48252243D01*
X96113600Y-48252243D01*
X96285522Y-48235310D01*
X96450837Y-48185162D01*
X96603192Y-48103727D01*
X96736733Y-47994133D01*
X96846327Y-47860592D01*
X96927762Y-47708237D01*
X96977910Y-47542922D01*
X96994843Y-47371000D01*
X96994843Y-47319147D01*
X97640458Y-47319147D01*
X97814632Y-47650167D01*
X98215118Y-47856039D01*
X98648072Y-47979824D01*
X99096857Y-48016766D01*
X99544225Y-47965443D01*
X99972985Y-47827830D01*
X100305368Y-47650167D01*
X100479542Y-47319147D01*
X99060000Y-45899605D01*
X97640458Y-47319147D01*
X96994843Y-47319147D01*
X96994843Y-46712820D01*
X97129833Y-46965368D01*
X97460853Y-47139542D01*
X98880395Y-45720000D01*
X99239605Y-45720000D01*
X100659147Y-47139542D01*
X100990167Y-46965368D01*
X101196039Y-46564882D01*
X101319824Y-46131928D01*
X101356766Y-45683143D01*
X101305443Y-45235775D01*
X101167830Y-44807015D01*
X100990167Y-44474632D01*
X100659147Y-44300458D01*
X99239605Y-45720000D01*
X98880395Y-45720000D01*
X97460853Y-44300458D01*
X97129833Y-44474632D01*
X96994843Y-44737230D01*
X96994843Y-44120853D01*
X97640458Y-44120853D01*
X99060000Y-45540395D01*
X100479542Y-44120853D01*
X100452259Y-44069000D01*
X116060357Y-44069000D01*
X116060357Y-47371000D01*
X116077290Y-47542922D01*
X116127438Y-47708237D01*
X116208873Y-47860592D01*
X116318467Y-47994133D01*
X116452008Y-48103727D01*
X116604363Y-48185162D01*
X116769678Y-48235310D01*
X116941600Y-48252243D01*
X120243600Y-48252243D01*
X120415522Y-48235310D01*
X120580837Y-48185162D01*
X120733192Y-48103727D01*
X120866733Y-47994133D01*
X120976327Y-47860592D01*
X121057762Y-47708237D01*
X121107910Y-47542922D01*
X121124843Y-47371000D01*
X121124843Y-47319147D01*
X121770458Y-47319147D01*
X121944632Y-47650167D01*
X122345118Y-47856039D01*
X122778072Y-47979824D01*
X123226857Y-48016766D01*
X123674225Y-47965443D01*
X124102985Y-47827830D01*
X124435368Y-47650167D01*
X124609542Y-47319147D01*
X123190000Y-45899605D01*
X121770458Y-47319147D01*
X121124843Y-47319147D01*
X121124843Y-46712820D01*
X121259833Y-46965368D01*
X121590853Y-47139542D01*
X123010395Y-45720000D01*
X123369605Y-45720000D01*
X124789147Y-47139542D01*
X125120167Y-46965368D01*
X125326039Y-46564882D01*
X125449824Y-46131928D01*
X125486766Y-45683143D01*
X125435443Y-45235775D01*
X125297830Y-44807015D01*
X125120167Y-44474632D01*
X124789147Y-44300458D01*
X123369605Y-45720000D01*
X123010395Y-45720000D01*
X121590853Y-44300458D01*
X121259833Y-44474632D01*
X121124843Y-44737230D01*
X121124843Y-44120853D01*
X121770458Y-44120853D01*
X123190000Y-45540395D01*
X124609542Y-44120853D01*
X124582259Y-44069000D01*
X140190357Y-44069000D01*
X140190357Y-47371000D01*
X140207290Y-47542922D01*
X140257438Y-47708237D01*
X140338873Y-47860592D01*
X140448467Y-47994133D01*
X140582008Y-48103727D01*
X140734363Y-48185162D01*
X140899678Y-48235310D01*
X141071600Y-48252243D01*
X144373600Y-48252243D01*
X144545522Y-48235310D01*
X144710837Y-48185162D01*
X144863192Y-48103727D01*
X144996733Y-47994133D01*
X145106327Y-47860592D01*
X145187762Y-47708237D01*
X145237910Y-47542922D01*
X145254843Y-47371000D01*
X145254843Y-47319147D01*
X145900458Y-47319147D01*
X146074632Y-47650167D01*
X146475118Y-47856039D01*
X146908072Y-47979824D01*
X147356857Y-48016766D01*
X147804225Y-47965443D01*
X148232985Y-47827830D01*
X148565368Y-47650167D01*
X148739542Y-47319147D01*
X147320000Y-45899605D01*
X145900458Y-47319147D01*
X145254843Y-47319147D01*
X145254843Y-46712820D01*
X145389833Y-46965368D01*
X145720853Y-47139542D01*
X147140395Y-45720000D01*
X147499605Y-45720000D01*
X148919147Y-47139542D01*
X149250167Y-46965368D01*
X149456039Y-46564882D01*
X149579824Y-46131928D01*
X149616766Y-45683143D01*
X149565443Y-45235775D01*
X149427830Y-44807015D01*
X149250167Y-44474632D01*
X148919147Y-44300458D01*
X147499605Y-45720000D01*
X147140395Y-45720000D01*
X145720853Y-44300458D01*
X145389833Y-44474632D01*
X145254843Y-44737230D01*
X145254843Y-44120853D01*
X145900458Y-44120853D01*
X147320000Y-45540395D01*
X148739542Y-44120853D01*
X148712259Y-44069000D01*
X163837757Y-44069000D01*
X163837757Y-47371000D01*
X163854690Y-47542922D01*
X163904838Y-47708237D01*
X163986273Y-47860592D01*
X164095867Y-47994133D01*
X164229408Y-48103727D01*
X164381763Y-48185162D01*
X164547078Y-48235310D01*
X164719000Y-48252243D01*
X168021000Y-48252243D01*
X168192922Y-48235310D01*
X168358237Y-48185162D01*
X168510592Y-48103727D01*
X168644133Y-47994133D01*
X168753727Y-47860592D01*
X168835162Y-47708237D01*
X168885310Y-47542922D01*
X168902243Y-47371000D01*
X168902243Y-47319147D01*
X169547858Y-47319147D01*
X169722032Y-47650167D01*
X170122518Y-47856039D01*
X170555472Y-47979824D01*
X171004257Y-48016766D01*
X171451625Y-47965443D01*
X171880385Y-47827830D01*
X172212768Y-47650167D01*
X172386942Y-47319147D01*
X170967400Y-45899605D01*
X169547858Y-47319147D01*
X168902243Y-47319147D01*
X168902243Y-46712820D01*
X169037233Y-46965368D01*
X169368253Y-47139542D01*
X170787795Y-45720000D01*
X171147005Y-45720000D01*
X172566547Y-47139542D01*
X172897567Y-46965368D01*
X173103439Y-46564882D01*
X173227224Y-46131928D01*
X173264166Y-45683143D01*
X173212843Y-45235775D01*
X173075230Y-44807015D01*
X172897567Y-44474632D01*
X172566547Y-44300458D01*
X171147005Y-45720000D01*
X170787795Y-45720000D01*
X169368253Y-44300458D01*
X169037233Y-44474632D01*
X168902243Y-44737230D01*
X168902243Y-44120853D01*
X169547858Y-44120853D01*
X170967400Y-45540395D01*
X172386942Y-44120853D01*
X172359659Y-44069000D01*
X187967757Y-44069000D01*
X187967757Y-47371000D01*
X187984690Y-47542922D01*
X188034838Y-47708237D01*
X188116273Y-47860592D01*
X188225867Y-47994133D01*
X188359408Y-48103727D01*
X188511763Y-48185162D01*
X188677078Y-48235310D01*
X188849000Y-48252243D01*
X192151000Y-48252243D01*
X192322922Y-48235310D01*
X192488237Y-48185162D01*
X192640592Y-48103727D01*
X192774133Y-47994133D01*
X192883727Y-47860592D01*
X192965162Y-47708237D01*
X193015310Y-47542922D01*
X193032243Y-47371000D01*
X193032243Y-47319147D01*
X193677858Y-47319147D01*
X193852032Y-47650167D01*
X194252518Y-47856039D01*
X194685472Y-47979824D01*
X195134257Y-48016766D01*
X195581625Y-47965443D01*
X196010385Y-47827830D01*
X196342768Y-47650167D01*
X196516942Y-47319147D01*
X195097400Y-45899605D01*
X193677858Y-47319147D01*
X193032243Y-47319147D01*
X193032243Y-46712820D01*
X193167233Y-46965368D01*
X193498253Y-47139542D01*
X194917795Y-45720000D01*
X195277005Y-45720000D01*
X196696547Y-47139542D01*
X197027567Y-46965368D01*
X197233439Y-46564882D01*
X197357224Y-46131928D01*
X197394166Y-45683143D01*
X197358543Y-45372621D01*
X204753000Y-45372621D01*
X204753000Y-46067379D01*
X204888540Y-46748788D01*
X205154413Y-47390661D01*
X205540400Y-47968332D01*
X206031668Y-48459600D01*
X206609339Y-48845587D01*
X207251212Y-49111460D01*
X207932621Y-49247000D01*
X208627379Y-49247000D01*
X209308788Y-49111460D01*
X209950661Y-48845587D01*
X210528332Y-48459600D01*
X211019600Y-47968332D01*
X211405587Y-47390661D01*
X211671460Y-46748788D01*
X211807000Y-46067379D01*
X211807000Y-45372621D01*
X211671460Y-44691212D01*
X211405587Y-44049339D01*
X211019600Y-43471668D01*
X210528332Y-42980400D01*
X209950661Y-42594413D01*
X209308788Y-42328540D01*
X208627379Y-42193000D01*
X207932621Y-42193000D01*
X207251212Y-42328540D01*
X206609339Y-42594413D01*
X206031668Y-42980400D01*
X205540400Y-43471668D01*
X205154413Y-44049339D01*
X204888540Y-44691212D01*
X204753000Y-45372621D01*
X197358543Y-45372621D01*
X197342843Y-45235775D01*
X197205230Y-44807015D01*
X197027567Y-44474632D01*
X196696547Y-44300458D01*
X195277005Y-45720000D01*
X194917795Y-45720000D01*
X193498253Y-44300458D01*
X193167233Y-44474632D01*
X193032243Y-44737230D01*
X193032243Y-44120853D01*
X193677858Y-44120853D01*
X195097400Y-45540395D01*
X196516942Y-44120853D01*
X196342768Y-43789833D01*
X195942282Y-43583961D01*
X195509328Y-43460176D01*
X195060543Y-43423234D01*
X194613175Y-43474557D01*
X194184415Y-43612170D01*
X193852032Y-43789833D01*
X193677858Y-44120853D01*
X193032243Y-44120853D01*
X193032243Y-44069000D01*
X193015310Y-43897078D01*
X192965162Y-43731763D01*
X192883727Y-43579408D01*
X192774133Y-43445867D01*
X192640592Y-43336273D01*
X192488237Y-43254838D01*
X192322922Y-43204690D01*
X192151000Y-43187757D01*
X188849000Y-43187757D01*
X188677078Y-43204690D01*
X188511763Y-43254838D01*
X188359408Y-43336273D01*
X188225867Y-43445867D01*
X188116273Y-43579408D01*
X188034838Y-43731763D01*
X187984690Y-43897078D01*
X187967757Y-44069000D01*
X172359659Y-44069000D01*
X172212768Y-43789833D01*
X171812282Y-43583961D01*
X171379328Y-43460176D01*
X170930543Y-43423234D01*
X170483175Y-43474557D01*
X170054415Y-43612170D01*
X169722032Y-43789833D01*
X169547858Y-44120853D01*
X168902243Y-44120853D01*
X168902243Y-44069000D01*
X168885310Y-43897078D01*
X168835162Y-43731763D01*
X168753727Y-43579408D01*
X168644133Y-43445867D01*
X168510592Y-43336273D01*
X168358237Y-43254838D01*
X168192922Y-43204690D01*
X168021000Y-43187757D01*
X164719000Y-43187757D01*
X164547078Y-43204690D01*
X164381763Y-43254838D01*
X164229408Y-43336273D01*
X164095867Y-43445867D01*
X163986273Y-43579408D01*
X163904838Y-43731763D01*
X163854690Y-43897078D01*
X163837757Y-44069000D01*
X148712259Y-44069000D01*
X148565368Y-43789833D01*
X148164882Y-43583961D01*
X147731928Y-43460176D01*
X147283143Y-43423234D01*
X146835775Y-43474557D01*
X146407015Y-43612170D01*
X146074632Y-43789833D01*
X145900458Y-44120853D01*
X145254843Y-44120853D01*
X145254843Y-44069000D01*
X145237910Y-43897078D01*
X145187762Y-43731763D01*
X145106327Y-43579408D01*
X144996733Y-43445867D01*
X144863192Y-43336273D01*
X144710837Y-43254838D01*
X144545522Y-43204690D01*
X144373600Y-43187757D01*
X141071600Y-43187757D01*
X140899678Y-43204690D01*
X140734363Y-43254838D01*
X140582008Y-43336273D01*
X140448467Y-43445867D01*
X140338873Y-43579408D01*
X140257438Y-43731763D01*
X140207290Y-43897078D01*
X140190357Y-44069000D01*
X124582259Y-44069000D01*
X124435368Y-43789833D01*
X124034882Y-43583961D01*
X123601928Y-43460176D01*
X123153143Y-43423234D01*
X122705775Y-43474557D01*
X122277015Y-43612170D01*
X121944632Y-43789833D01*
X121770458Y-44120853D01*
X121124843Y-44120853D01*
X121124843Y-44069000D01*
X121107910Y-43897078D01*
X121057762Y-43731763D01*
X120976327Y-43579408D01*
X120866733Y-43445867D01*
X120733192Y-43336273D01*
X120580837Y-43254838D01*
X120415522Y-43204690D01*
X120243600Y-43187757D01*
X116941600Y-43187757D01*
X116769678Y-43204690D01*
X116604363Y-43254838D01*
X116452008Y-43336273D01*
X116318467Y-43445867D01*
X116208873Y-43579408D01*
X116127438Y-43731763D01*
X116077290Y-43897078D01*
X116060357Y-44069000D01*
X100452259Y-44069000D01*
X100305368Y-43789833D01*
X99904882Y-43583961D01*
X99471928Y-43460176D01*
X99023143Y-43423234D01*
X98575775Y-43474557D01*
X98147015Y-43612170D01*
X97814632Y-43789833D01*
X97640458Y-44120853D01*
X96994843Y-44120853D01*
X96994843Y-44069000D01*
X96977910Y-43897078D01*
X96927762Y-43731763D01*
X96846327Y-43579408D01*
X96736733Y-43445867D01*
X96603192Y-43336273D01*
X96450837Y-43254838D01*
X96285522Y-43204690D01*
X96113600Y-43187757D01*
X92811600Y-43187757D01*
X92639678Y-43204690D01*
X92474363Y-43254838D01*
X92322008Y-43336273D01*
X92188467Y-43445867D01*
X92078873Y-43579408D01*
X91997438Y-43731763D01*
X91947290Y-43897078D01*
X91930357Y-44069000D01*
X75839659Y-44069000D01*
X75692768Y-43789833D01*
X75292282Y-43583961D01*
X74859328Y-43460176D01*
X74410543Y-43423234D01*
X73963175Y-43474557D01*
X73534415Y-43612170D01*
X73202032Y-43789833D01*
X73027858Y-44120853D01*
X72382243Y-44120853D01*
X72382243Y-44069000D01*
X72365310Y-43897078D01*
X72315162Y-43731763D01*
X72233727Y-43579408D01*
X72124133Y-43445867D01*
X71990592Y-43336273D01*
X71838237Y-43254838D01*
X71672922Y-43204690D01*
X71501000Y-43187757D01*
X68199000Y-43187757D01*
X68027078Y-43204690D01*
X67861763Y-43254838D01*
X67709408Y-43336273D01*
X67575867Y-43445867D01*
X67466273Y-43579408D01*
X67384838Y-43731763D01*
X67334690Y-43897078D01*
X67317757Y-44069000D01*
X53933731Y-44069000D01*
X53925587Y-44049339D01*
X53539600Y-43471668D01*
X53048332Y-42980400D01*
X52470661Y-42594413D01*
X51828788Y-42328540D01*
X51147379Y-42193000D01*
X50452621Y-42193000D01*
X49771212Y-42328540D01*
X49129339Y-42594413D01*
X48551668Y-42980400D01*
X48060400Y-43471668D01*
X47674413Y-44049339D01*
X47408540Y-44691212D01*
X47273000Y-45372621D01*
X45110000Y-45372621D01*
X45110000Y-38760000D01*
X215240000Y-38760000D01*
X215240001Y-149200000D01*
G37*
X215240001Y-149200000D02*
X45110000Y-149200000D01*
X45110000Y-141892621D01*
X47273000Y-141892621D01*
X47273000Y-142587379D01*
X47408540Y-143268788D01*
X47674413Y-143910661D01*
X48060400Y-144488332D01*
X48551668Y-144979600D01*
X49129339Y-145365587D01*
X49771212Y-145631460D01*
X50452621Y-145767000D01*
X51147379Y-145767000D01*
X51828788Y-145631460D01*
X52470661Y-145365587D01*
X53048332Y-144979600D01*
X53539600Y-144488332D01*
X53925587Y-143910661D01*
X54191460Y-143268788D01*
X54327000Y-142587379D01*
X54327000Y-141892621D01*
X54191460Y-141211212D01*
X53925587Y-140569339D01*
X53539600Y-139991668D01*
X53048332Y-139500400D01*
X52470661Y-139114413D01*
X51828788Y-138848540D01*
X51147379Y-138713000D01*
X50452621Y-138713000D01*
X49771212Y-138848540D01*
X49129339Y-139114413D01*
X48551668Y-139500400D01*
X48060400Y-139991668D01*
X47674413Y-140569339D01*
X47408540Y-141211212D01*
X47273000Y-141892621D01*
X45110000Y-141892621D01*
X45110000Y-118110000D01*
X53373157Y-118110000D01*
X53373157Y-120650000D01*
X53390090Y-120821922D01*
X53440238Y-120987237D01*
X53521673Y-121139592D01*
X53631267Y-121273133D01*
X53764808Y-121382727D01*
X53917163Y-121464162D01*
X54082478Y-121514310D01*
X54254400Y-121531243D01*
X56794400Y-121531243D01*
X56966322Y-121514310D01*
X57131637Y-121464162D01*
X57283992Y-121382727D01*
X57417533Y-121273133D01*
X57527127Y-121139592D01*
X57608562Y-120987237D01*
X57658710Y-120821922D01*
X57675643Y-120650000D01*
X57675643Y-119168539D01*
X60083000Y-119168539D01*
X60083000Y-119591461D01*
X60165508Y-120006257D01*
X60327354Y-120396986D01*
X60562317Y-120748632D01*
X60861368Y-121047683D01*
X61213014Y-121282646D01*
X61603743Y-121444492D01*
X62018539Y-121527000D01*
X62441461Y-121527000D01*
X62856257Y-121444492D01*
X63246986Y-121282646D01*
X63598632Y-121047683D01*
X63897683Y-120748632D01*
X63924931Y-120707852D01*
X67787353Y-120707852D01*
X67915676Y-120999871D01*
X68251295Y-121167723D01*
X68613211Y-121266874D01*
X68987516Y-121293514D01*
X69359827Y-121246618D01*
X69715835Y-121127988D01*
X69955524Y-120999871D01*
X70083847Y-120707852D01*
X68935600Y-119559605D01*
X67787353Y-120707852D01*
X63924931Y-120707852D01*
X64132646Y-120396986D01*
X64294492Y-120006257D01*
X64377000Y-119591461D01*
X64377000Y-119431916D01*
X67022086Y-119431916D01*
X67068982Y-119804227D01*
X67187612Y-120160235D01*
X67315729Y-120399924D01*
X67607748Y-120528247D01*
X68755995Y-119380000D01*
X69115205Y-119380000D01*
X70263452Y-120528247D01*
X70555471Y-120399924D01*
X70723323Y-120064305D01*
X70822474Y-119702389D01*
X70849114Y-119328084D01*
X70802218Y-118955773D01*
X70683588Y-118599765D01*
X70555471Y-118360076D01*
X70263452Y-118231753D01*
X69115205Y-119380000D01*
X68755995Y-119380000D01*
X67607748Y-118231753D01*
X67315729Y-118360076D01*
X67147877Y-118695695D01*
X67048726Y-119057611D01*
X67022086Y-119431916D01*
X64377000Y-119431916D01*
X64377000Y-119168539D01*
X64294492Y-118753743D01*
X64132646Y-118363014D01*
X63924932Y-118052148D01*
X67787353Y-118052148D01*
X68935600Y-119200395D01*
X70025995Y-118110000D01*
X81313157Y-118110000D01*
X81313157Y-120650000D01*
X81330090Y-120821922D01*
X81380238Y-120987237D01*
X81461673Y-121139592D01*
X81571267Y-121273133D01*
X81704808Y-121382727D01*
X81857163Y-121464162D01*
X82022478Y-121514310D01*
X82087400Y-121520704D01*
X82087401Y-126946750D01*
X82080738Y-127014400D01*
X82107325Y-127284339D01*
X82186063Y-127543904D01*
X82186064Y-127543905D01*
X82313928Y-127783121D01*
X82486004Y-127992797D01*
X82538546Y-128035917D01*
X88713000Y-134210372D01*
X88713001Y-143576341D01*
X88618078Y-143585690D01*
X88452763Y-143635838D01*
X88300408Y-143717273D01*
X88166867Y-143826867D01*
X88057273Y-143960408D01*
X87975838Y-144112763D01*
X87925690Y-144278078D01*
X87908757Y-144450000D01*
X87908757Y-147050000D01*
X87925690Y-147221922D01*
X87975838Y-147387237D01*
X88057273Y-147539592D01*
X88166867Y-147673133D01*
X88300408Y-147782727D01*
X88452763Y-147864162D01*
X88618078Y-147914310D01*
X88790000Y-147931243D01*
X91390000Y-147931243D01*
X91561922Y-147914310D01*
X91727237Y-147864162D01*
X91879592Y-147782727D01*
X92013133Y-147673133D01*
X92122727Y-147539592D01*
X92204162Y-147387237D01*
X92254310Y-147221922D01*
X92266394Y-147099224D01*
X92730381Y-147099224D01*
X92862317Y-147394312D01*
X93203045Y-147565159D01*
X93570557Y-147666250D01*
X93950729Y-147693701D01*
X94328951Y-147646457D01*
X94690690Y-147526333D01*
X94937683Y-147394312D01*
X95069619Y-147099224D01*
X93900000Y-145929605D01*
X92730381Y-147099224D01*
X92266394Y-147099224D01*
X92271243Y-147050000D01*
X92271243Y-146794638D01*
X92550776Y-146919619D01*
X93720395Y-145750000D01*
X94079605Y-145750000D01*
X95249224Y-146919619D01*
X95528757Y-146794638D01*
X95528757Y-147050000D01*
X95545690Y-147221922D01*
X95595838Y-147387237D01*
X95677273Y-147539592D01*
X95786867Y-147673133D01*
X95920408Y-147782727D01*
X96072763Y-147864162D01*
X96238078Y-147914310D01*
X96410000Y-147931243D01*
X99010000Y-147931243D01*
X99181922Y-147914310D01*
X99347237Y-147864162D01*
X99499592Y-147782727D01*
X99633133Y-147673133D01*
X99742727Y-147539592D01*
X99824162Y-147387237D01*
X99874310Y-147221922D01*
X99877795Y-147186539D01*
X100132243Y-147440987D01*
X100488804Y-147679233D01*
X100884992Y-147843340D01*
X101305584Y-147927000D01*
X101734416Y-147927000D01*
X102155008Y-147843340D01*
X102551196Y-147679233D01*
X102907757Y-147440987D01*
X103210987Y-147137757D01*
X103449233Y-146781196D01*
X103613340Y-146385008D01*
X103697000Y-145964416D01*
X103697000Y-145535584D01*
X103613340Y-145114992D01*
X103449233Y-144718804D01*
X103269625Y-144450000D01*
X104418757Y-144450000D01*
X104418757Y-147050000D01*
X104435690Y-147221922D01*
X104485838Y-147387237D01*
X104567273Y-147539592D01*
X104676867Y-147673133D01*
X104810408Y-147782727D01*
X104962763Y-147864162D01*
X105128078Y-147914310D01*
X105300000Y-147931243D01*
X107900000Y-147931243D01*
X108071922Y-147914310D01*
X108237237Y-147864162D01*
X108389592Y-147782727D01*
X108523133Y-147673133D01*
X108632727Y-147539592D01*
X108714162Y-147387237D01*
X108764310Y-147221922D01*
X108767795Y-147186539D01*
X109022243Y-147440987D01*
X109378804Y-147679233D01*
X109774992Y-147843340D01*
X110195584Y-147927000D01*
X110624416Y-147927000D01*
X111045008Y-147843340D01*
X111441196Y-147679233D01*
X111797757Y-147440987D01*
X112100987Y-147137757D01*
X112315000Y-146817463D01*
X112529013Y-147137757D01*
X112832243Y-147440987D01*
X113188804Y-147679233D01*
X113584992Y-147843340D01*
X114005584Y-147927000D01*
X114434416Y-147927000D01*
X114855008Y-147843340D01*
X115251196Y-147679233D01*
X115607757Y-147440987D01*
X115910987Y-147137757D01*
X116125000Y-146817463D01*
X116339013Y-147137757D01*
X116642243Y-147440987D01*
X116998804Y-147679233D01*
X117394992Y-147843340D01*
X117815584Y-147927000D01*
X118244416Y-147927000D01*
X118665008Y-147843340D01*
X119061196Y-147679233D01*
X119417757Y-147440987D01*
X119720987Y-147137757D01*
X119935000Y-146817463D01*
X120149013Y-147137757D01*
X120452243Y-147440987D01*
X120808804Y-147679233D01*
X121204992Y-147843340D01*
X121625584Y-147927000D01*
X122054416Y-147927000D01*
X122475008Y-147843340D01*
X122871196Y-147679233D01*
X123227757Y-147440987D01*
X123530987Y-147137757D01*
X123769233Y-146781196D01*
X123933340Y-146385008D01*
X124017000Y-145964416D01*
X124017000Y-145535584D01*
X123933340Y-145114992D01*
X123769233Y-144718804D01*
X123589625Y-144450000D01*
X124738757Y-144450000D01*
X124738757Y-147050000D01*
X124755690Y-147221922D01*
X124805838Y-147387237D01*
X124887273Y-147539592D01*
X124996867Y-147673133D01*
X125130408Y-147782727D01*
X125282763Y-147864162D01*
X125448078Y-147914310D01*
X125620000Y-147931243D01*
X128220000Y-147931243D01*
X128391922Y-147914310D01*
X128557237Y-147864162D01*
X128709592Y-147782727D01*
X128843133Y-147673133D01*
X128952727Y-147539592D01*
X129034162Y-147387237D01*
X129084310Y-147221922D01*
X129087795Y-147186539D01*
X129342243Y-147440987D01*
X129698804Y-147679233D01*
X130094992Y-147843340D01*
X130515584Y-147927000D01*
X130944416Y-147927000D01*
X131365008Y-147843340D01*
X131761196Y-147679233D01*
X132117757Y-147440987D01*
X132420987Y-147137757D01*
X132635000Y-146817463D01*
X132849013Y-147137757D01*
X133152243Y-147440987D01*
X133508804Y-147679233D01*
X133904992Y-147843340D01*
X134325584Y-147927000D01*
X134754416Y-147927000D01*
X135175008Y-147843340D01*
X135571196Y-147679233D01*
X135927757Y-147440987D01*
X136230987Y-147137757D01*
X136445000Y-146817463D01*
X136659013Y-147137757D01*
X136962243Y-147440987D01*
X137318804Y-147679233D01*
X137714992Y-147843340D01*
X138135584Y-147927000D01*
X138564416Y-147927000D01*
X138985008Y-147843340D01*
X139381196Y-147679233D01*
X139737757Y-147440987D01*
X140040987Y-147137757D01*
X140255000Y-146817463D01*
X140469013Y-147137757D01*
X140772243Y-147440987D01*
X141128804Y-147679233D01*
X141524992Y-147843340D01*
X141945584Y-147927000D01*
X142374416Y-147927000D01*
X142795008Y-147843340D01*
X143191196Y-147679233D01*
X143547757Y-147440987D01*
X143850987Y-147137757D01*
X144089233Y-146781196D01*
X144253340Y-146385008D01*
X144337000Y-145964416D01*
X144337000Y-145535584D01*
X144253340Y-145114992D01*
X144089233Y-144718804D01*
X143909625Y-144450000D01*
X145058757Y-144450000D01*
X145058757Y-147050000D01*
X145075690Y-147221922D01*
X145125838Y-147387237D01*
X145207273Y-147539592D01*
X145316867Y-147673133D01*
X145450408Y-147782727D01*
X145602763Y-147864162D01*
X145768078Y-147914310D01*
X145940000Y-147931243D01*
X148540000Y-147931243D01*
X148711922Y-147914310D01*
X148877237Y-147864162D01*
X149029592Y-147782727D01*
X149163133Y-147673133D01*
X149272727Y-147539592D01*
X149354162Y-147387237D01*
X149404310Y-147221922D01*
X149407795Y-147186539D01*
X149662243Y-147440987D01*
X150018804Y-147679233D01*
X150414992Y-147843340D01*
X150835584Y-147927000D01*
X151264416Y-147927000D01*
X151685008Y-147843340D01*
X152081196Y-147679233D01*
X152437757Y-147440987D01*
X152740987Y-147137757D01*
X152955000Y-146817463D01*
X153169013Y-147137757D01*
X153472243Y-147440987D01*
X153828804Y-147679233D01*
X154224992Y-147843340D01*
X154645584Y-147927000D01*
X155074416Y-147927000D01*
X155495008Y-147843340D01*
X155891196Y-147679233D01*
X156247757Y-147440987D01*
X156550987Y-147137757D01*
X156765000Y-146817463D01*
X156979013Y-147137757D01*
X157282243Y-147440987D01*
X157638804Y-147679233D01*
X158034992Y-147843340D01*
X158455584Y-147927000D01*
X158884416Y-147927000D01*
X159305008Y-147843340D01*
X159701196Y-147679233D01*
X160057757Y-147440987D01*
X160360987Y-147137757D01*
X160575000Y-146817463D01*
X160789013Y-147137757D01*
X161092243Y-147440987D01*
X161448804Y-147679233D01*
X161844992Y-147843340D01*
X162265584Y-147927000D01*
X162694416Y-147927000D01*
X163115008Y-147843340D01*
X163511196Y-147679233D01*
X163867757Y-147440987D01*
X164170987Y-147137757D01*
X164409233Y-146781196D01*
X164573340Y-146385008D01*
X164657000Y-145964416D01*
X164657000Y-145535584D01*
X164573340Y-145114992D01*
X164409233Y-144718804D01*
X164229625Y-144450000D01*
X165378757Y-144450000D01*
X165378757Y-147050000D01*
X165395690Y-147221922D01*
X165445838Y-147387237D01*
X165527273Y-147539592D01*
X165636867Y-147673133D01*
X165770408Y-147782727D01*
X165922763Y-147864162D01*
X166088078Y-147914310D01*
X166260000Y-147931243D01*
X168860000Y-147931243D01*
X169031922Y-147914310D01*
X169197237Y-147864162D01*
X169349592Y-147782727D01*
X169483133Y-147673133D01*
X169592727Y-147539592D01*
X169674162Y-147387237D01*
X169724310Y-147221922D01*
X169727795Y-147186539D01*
X169982243Y-147440987D01*
X170338804Y-147679233D01*
X170734992Y-147843340D01*
X171155584Y-147927000D01*
X171584416Y-147927000D01*
X172005008Y-147843340D01*
X172401196Y-147679233D01*
X172757757Y-147440987D01*
X173060987Y-147137757D01*
X173275000Y-146817463D01*
X173489013Y-147137757D01*
X173792243Y-147440987D01*
X174148804Y-147679233D01*
X174544992Y-147843340D01*
X174965584Y-147927000D01*
X175394416Y-147927000D01*
X175815008Y-147843340D01*
X176211196Y-147679233D01*
X176567757Y-147440987D01*
X176870987Y-147137757D01*
X177109233Y-146781196D01*
X177273340Y-146385008D01*
X177357000Y-145964416D01*
X177357000Y-145535584D01*
X177273340Y-145114992D01*
X177109233Y-144718804D01*
X176870987Y-144362243D01*
X176567757Y-144059013D01*
X176211196Y-143820767D01*
X175815008Y-143656660D01*
X175394416Y-143573000D01*
X174965584Y-143573000D01*
X174544992Y-143656660D01*
X174148804Y-143820767D01*
X173792243Y-144059013D01*
X173489013Y-144362243D01*
X173275000Y-144682537D01*
X173060987Y-144362243D01*
X172757757Y-144059013D01*
X172401196Y-143820767D01*
X172005008Y-143656660D01*
X171584416Y-143573000D01*
X171155584Y-143573000D01*
X170734992Y-143656660D01*
X170338804Y-143820767D01*
X169982243Y-144059013D01*
X169727795Y-144313461D01*
X169724310Y-144278078D01*
X169674162Y-144112763D01*
X169592727Y-143960408D01*
X169483133Y-143826867D01*
X169349592Y-143717273D01*
X169197237Y-143635838D01*
X169031922Y-143585690D01*
X168860000Y-143568757D01*
X166260000Y-143568757D01*
X166088078Y-143585690D01*
X165922763Y-143635838D01*
X165770408Y-143717273D01*
X165636867Y-143826867D01*
X165527273Y-143960408D01*
X165445838Y-144112763D01*
X165395690Y-144278078D01*
X165378757Y-144450000D01*
X164229625Y-144450000D01*
X164170987Y-144362243D01*
X163867757Y-144059013D01*
X163511196Y-143820767D01*
X163115008Y-143656660D01*
X162694416Y-143573000D01*
X162265584Y-143573000D01*
X161844992Y-143656660D01*
X161448804Y-143820767D01*
X161092243Y-144059013D01*
X160789013Y-144362243D01*
X160575000Y-144682537D01*
X160360987Y-144362243D01*
X160057757Y-144059013D01*
X159701196Y-143820767D01*
X159305008Y-143656660D01*
X158884416Y-143573000D01*
X158455584Y-143573000D01*
X158034992Y-143656660D01*
X157638804Y-143820767D01*
X157282243Y-144059013D01*
X156979013Y-144362243D01*
X156765000Y-144682537D01*
X156550987Y-144362243D01*
X156247757Y-144059013D01*
X155891196Y-143820767D01*
X155495008Y-143656660D01*
X155074416Y-143573000D01*
X154645584Y-143573000D01*
X154224992Y-143656660D01*
X153828804Y-143820767D01*
X153472243Y-144059013D01*
X153169013Y-144362243D01*
X152955000Y-144682537D01*
X152740987Y-144362243D01*
X152437757Y-144059013D01*
X152081196Y-143820767D01*
X151685008Y-143656660D01*
X151264416Y-143573000D01*
X150835584Y-143573000D01*
X150414992Y-143656660D01*
X150018804Y-143820767D01*
X149662243Y-144059013D01*
X149407795Y-144313461D01*
X149404310Y-144278078D01*
X149354162Y-144112763D01*
X149272727Y-143960408D01*
X149163133Y-143826867D01*
X149029592Y-143717273D01*
X148877237Y-143635838D01*
X148711922Y-143585690D01*
X148540000Y-143568757D01*
X145940000Y-143568757D01*
X145768078Y-143585690D01*
X145602763Y-143635838D01*
X145450408Y-143717273D01*
X145316867Y-143826867D01*
X145207273Y-143960408D01*
X145125838Y-144112763D01*
X145075690Y-144278078D01*
X145058757Y-144450000D01*
X143909625Y-144450000D01*
X143850987Y-144362243D01*
X143547757Y-144059013D01*
X143191196Y-143820767D01*
X142795008Y-143656660D01*
X142374416Y-143573000D01*
X141945584Y-143573000D01*
X141524992Y-143656660D01*
X141128804Y-143820767D01*
X140772243Y-144059013D01*
X140469013Y-144362243D01*
X140255000Y-144682537D01*
X140040987Y-144362243D01*
X139737757Y-144059013D01*
X139381196Y-143820767D01*
X138985008Y-143656660D01*
X138564416Y-143573000D01*
X138135584Y-143573000D01*
X137714992Y-143656660D01*
X137318804Y-143820767D01*
X136962243Y-144059013D01*
X136659013Y-144362243D01*
X136445000Y-144682537D01*
X136230987Y-144362243D01*
X135927757Y-144059013D01*
X135571196Y-143820767D01*
X135175008Y-143656660D01*
X134754416Y-143573000D01*
X134325584Y-143573000D01*
X133904992Y-143656660D01*
X133508804Y-143820767D01*
X133152243Y-144059013D01*
X132849013Y-144362243D01*
X132635000Y-144682537D01*
X132420987Y-144362243D01*
X132117757Y-144059013D01*
X131761196Y-143820767D01*
X131365008Y-143656660D01*
X130944416Y-143573000D01*
X130515584Y-143573000D01*
X130094992Y-143656660D01*
X129698804Y-143820767D01*
X129342243Y-144059013D01*
X129087795Y-144313461D01*
X129084310Y-144278078D01*
X129034162Y-144112763D01*
X128952727Y-143960408D01*
X128843133Y-143826867D01*
X128709592Y-143717273D01*
X128557237Y-143635838D01*
X128391922Y-143585690D01*
X128220000Y-143568757D01*
X125620000Y-143568757D01*
X125448078Y-143585690D01*
X125282763Y-143635838D01*
X125130408Y-143717273D01*
X124996867Y-143826867D01*
X124887273Y-143960408D01*
X124805838Y-144112763D01*
X124755690Y-144278078D01*
X124738757Y-144450000D01*
X123589625Y-144450000D01*
X123530987Y-144362243D01*
X123227757Y-144059013D01*
X122871196Y-143820767D01*
X122475008Y-143656660D01*
X122054416Y-143573000D01*
X121625584Y-143573000D01*
X121204992Y-143656660D01*
X120808804Y-143820767D01*
X120452243Y-144059013D01*
X120149013Y-144362243D01*
X119935000Y-144682537D01*
X119720987Y-144362243D01*
X119417757Y-144059013D01*
X119061196Y-143820767D01*
X118665008Y-143656660D01*
X118244416Y-143573000D01*
X117815584Y-143573000D01*
X117394992Y-143656660D01*
X116998804Y-143820767D01*
X116642243Y-144059013D01*
X116339013Y-144362243D01*
X116125000Y-144682537D01*
X115910987Y-144362243D01*
X115607757Y-144059013D01*
X115251196Y-143820767D01*
X114855008Y-143656660D01*
X114434416Y-143573000D01*
X114005584Y-143573000D01*
X113584992Y-143656660D01*
X113188804Y-143820767D01*
X112832243Y-144059013D01*
X112529013Y-144362243D01*
X112315000Y-144682537D01*
X112100987Y-144362243D01*
X111797757Y-144059013D01*
X111441196Y-143820767D01*
X111045008Y-143656660D01*
X110624416Y-143573000D01*
X110195584Y-143573000D01*
X109774992Y-143656660D01*
X109378804Y-143820767D01*
X109022243Y-144059013D01*
X108767795Y-144313461D01*
X108764310Y-144278078D01*
X108714162Y-144112763D01*
X108632727Y-143960408D01*
X108523133Y-143826867D01*
X108389592Y-143717273D01*
X108237237Y-143635838D01*
X108071922Y-143585690D01*
X107900000Y-143568757D01*
X105300000Y-143568757D01*
X105128078Y-143585690D01*
X104962763Y-143635838D01*
X104810408Y-143717273D01*
X104676867Y-143826867D01*
X104567273Y-143960408D01*
X104485838Y-144112763D01*
X104435690Y-144278078D01*
X104418757Y-144450000D01*
X103269625Y-144450000D01*
X103210987Y-144362243D01*
X102907757Y-144059013D01*
X102551196Y-143820767D01*
X102155008Y-143656660D01*
X101734416Y-143573000D01*
X101305584Y-143573000D01*
X100884992Y-143656660D01*
X100488804Y-143820767D01*
X100132243Y-144059013D01*
X99877795Y-144313461D01*
X99874310Y-144278078D01*
X99824162Y-144112763D01*
X99742727Y-143960408D01*
X99633133Y-143826867D01*
X99499592Y-143717273D01*
X99347237Y-143635838D01*
X99181922Y-143585690D01*
X99010000Y-143568757D01*
X96410000Y-143568757D01*
X96238078Y-143585690D01*
X96072763Y-143635838D01*
X95920408Y-143717273D01*
X95786867Y-143826867D01*
X95677273Y-143960408D01*
X95595838Y-144112763D01*
X95545690Y-144278078D01*
X95528757Y-144450000D01*
X95528757Y-144705362D01*
X95249224Y-144580381D01*
X94079605Y-145750000D01*
X93720395Y-145750000D01*
X92550776Y-144580381D01*
X92271243Y-144705362D01*
X92271243Y-144450000D01*
X92266395Y-144400776D01*
X92730381Y-144400776D01*
X93900000Y-145570395D01*
X95069619Y-144400776D01*
X94937683Y-144105688D01*
X94596955Y-143934841D01*
X94229443Y-143833750D01*
X93849271Y-143806299D01*
X93471049Y-143853543D01*
X93109310Y-143973667D01*
X92862317Y-144105688D01*
X92730381Y-144400776D01*
X92266395Y-144400776D01*
X92254310Y-144278078D01*
X92204162Y-144112763D01*
X92122727Y-143960408D01*
X92013133Y-143826867D01*
X91879592Y-143717273D01*
X91727237Y-143635838D01*
X91561922Y-143585690D01*
X91467000Y-143576341D01*
X91467000Y-141892621D01*
X204753000Y-141892621D01*
X204753000Y-142587379D01*
X204888540Y-143268788D01*
X205154413Y-143910661D01*
X205540400Y-144488332D01*
X206031668Y-144979600D01*
X206609339Y-145365587D01*
X207251212Y-145631460D01*
X207932621Y-145767000D01*
X208627379Y-145767000D01*
X209308788Y-145631460D01*
X209950661Y-145365587D01*
X210528332Y-144979600D01*
X211019600Y-144488332D01*
X211405587Y-143910661D01*
X211671460Y-143268788D01*
X211807000Y-142587379D01*
X211807000Y-141892621D01*
X211671460Y-141211212D01*
X211405587Y-140569339D01*
X211019600Y-139991668D01*
X210528332Y-139500400D01*
X209950661Y-139114413D01*
X209308788Y-138848540D01*
X208627379Y-138713000D01*
X207932621Y-138713000D01*
X207251212Y-138848540D01*
X206609339Y-139114413D01*
X206031668Y-139500400D01*
X205540400Y-139991668D01*
X205154413Y-140569339D01*
X204888540Y-141211212D01*
X204753000Y-141892621D01*
X91467000Y-141892621D01*
X91467000Y-133707636D01*
X91473662Y-133639999D01*
X91467000Y-133572360D01*
X91447075Y-133370061D01*
X91368337Y-133110495D01*
X91240473Y-132871279D01*
X91068396Y-132661603D01*
X91015860Y-132618488D01*
X84841400Y-126444029D01*
X84841400Y-122888772D01*
X87028483Y-125075855D01*
X87071603Y-125128397D01*
X87281279Y-125300473D01*
X87520495Y-125428337D01*
X87650278Y-125467706D01*
X87780060Y-125507075D01*
X88050000Y-125533662D01*
X88117640Y-125527000D01*
X106566760Y-125527000D01*
X106634400Y-125533662D01*
X106904339Y-125507075D01*
X106904342Y-125507074D01*
X107163905Y-125428337D01*
X107403121Y-125300473D01*
X107612797Y-125128397D01*
X107655921Y-125075850D01*
X110922200Y-121809571D01*
X114188483Y-125075855D01*
X114231603Y-125128397D01*
X114441279Y-125300473D01*
X114680495Y-125428337D01*
X114940061Y-125507075D01*
X115142360Y-125527000D01*
X115142362Y-125527000D01*
X115209999Y-125533662D01*
X115277636Y-125527000D01*
X134506760Y-125527000D01*
X134574400Y-125533662D01*
X134844339Y-125507075D01*
X134844342Y-125507074D01*
X135103905Y-125428337D01*
X135343121Y-125300473D01*
X135552797Y-125128397D01*
X135595921Y-125075850D01*
X138972200Y-121699572D01*
X142528488Y-125255861D01*
X142571603Y-125308397D01*
X142624139Y-125351512D01*
X142624142Y-125351515D01*
X142677826Y-125395571D01*
X142781279Y-125480473D01*
X143020495Y-125608337D01*
X143094342Y-125630738D01*
X143280060Y-125687075D01*
X143550000Y-125713662D01*
X143617640Y-125707000D01*
X162266760Y-125707000D01*
X162334400Y-125713662D01*
X162604339Y-125687075D01*
X162790058Y-125630738D01*
X162863905Y-125608337D01*
X163103121Y-125480473D01*
X163312797Y-125308397D01*
X163355921Y-125255850D01*
X167080529Y-121531243D01*
X168554400Y-121531243D01*
X168726322Y-121514310D01*
X168891637Y-121464162D01*
X169043992Y-121382727D01*
X169177533Y-121273133D01*
X169287127Y-121139592D01*
X169368562Y-120987237D01*
X169418710Y-120821922D01*
X169435643Y-120650000D01*
X169435643Y-119168539D01*
X171843000Y-119168539D01*
X171843000Y-119591461D01*
X171925508Y-120006257D01*
X172087354Y-120396986D01*
X172322317Y-120748632D01*
X172621368Y-121047683D01*
X172973014Y-121282646D01*
X173363743Y-121444492D01*
X173778539Y-121527000D01*
X174201461Y-121527000D01*
X174616257Y-121444492D01*
X175006986Y-121282646D01*
X175358632Y-121047683D01*
X175657683Y-120748632D01*
X175684931Y-120707852D01*
X179547353Y-120707852D01*
X179675676Y-120999871D01*
X180011295Y-121167723D01*
X180373211Y-121266874D01*
X180747516Y-121293514D01*
X181119827Y-121246618D01*
X181475835Y-121127988D01*
X181715524Y-120999871D01*
X181843847Y-120707852D01*
X180695600Y-119559605D01*
X179547353Y-120707852D01*
X175684931Y-120707852D01*
X175892646Y-120396986D01*
X176054492Y-120006257D01*
X176137000Y-119591461D01*
X176137000Y-119431916D01*
X178782086Y-119431916D01*
X178828982Y-119804227D01*
X178947612Y-120160235D01*
X179075729Y-120399924D01*
X179367748Y-120528247D01*
X180515995Y-119380000D01*
X180875205Y-119380000D01*
X182023452Y-120528247D01*
X182315471Y-120399924D01*
X182483323Y-120064305D01*
X182582474Y-119702389D01*
X182609114Y-119328084D01*
X182562218Y-118955773D01*
X182443588Y-118599765D01*
X182315471Y-118360076D01*
X182023452Y-118231753D01*
X180875205Y-119380000D01*
X180515995Y-119380000D01*
X179367748Y-118231753D01*
X179075729Y-118360076D01*
X178907877Y-118695695D01*
X178808726Y-119057611D01*
X178782086Y-119431916D01*
X176137000Y-119431916D01*
X176137000Y-119168539D01*
X176054492Y-118753743D01*
X175892646Y-118363014D01*
X175684932Y-118052148D01*
X179547353Y-118052148D01*
X180695600Y-119200395D01*
X181843847Y-118052148D01*
X181715524Y-117760129D01*
X181379905Y-117592277D01*
X181017989Y-117493126D01*
X180643684Y-117466486D01*
X180271373Y-117513382D01*
X179915365Y-117632012D01*
X179675676Y-117760129D01*
X179547353Y-118052148D01*
X175684932Y-118052148D01*
X175657683Y-118011368D01*
X175358632Y-117712317D01*
X175006986Y-117477354D01*
X174616257Y-117315508D01*
X174201461Y-117233000D01*
X173778539Y-117233000D01*
X173363743Y-117315508D01*
X172973014Y-117477354D01*
X172621368Y-117712317D01*
X172322317Y-118011368D01*
X172087354Y-118363014D01*
X171925508Y-118753743D01*
X171843000Y-119168539D01*
X169435643Y-119168539D01*
X169435643Y-118110000D01*
X169418710Y-117938078D01*
X169368562Y-117772763D01*
X169287127Y-117620408D01*
X169177533Y-117486867D01*
X169043992Y-117377273D01*
X168891637Y-117295838D01*
X168726322Y-117245690D01*
X168554400Y-117228757D01*
X166014400Y-117228757D01*
X165842478Y-117245690D01*
X165677163Y-117295838D01*
X165524808Y-117377273D01*
X165391267Y-117486867D01*
X165281673Y-117620408D01*
X165200238Y-117772763D01*
X165150090Y-117938078D01*
X165133157Y-118110000D01*
X165133157Y-119583871D01*
X161764029Y-122953000D01*
X144120373Y-122953000D01*
X141495643Y-120328271D01*
X141495643Y-119168539D01*
X143903000Y-119168539D01*
X143903000Y-119591461D01*
X143985508Y-120006257D01*
X144147354Y-120396986D01*
X144382317Y-120748632D01*
X144681368Y-121047683D01*
X145033014Y-121282646D01*
X145423743Y-121444492D01*
X145838539Y-121527000D01*
X146261461Y-121527000D01*
X146676257Y-121444492D01*
X147066986Y-121282646D01*
X147418632Y-121047683D01*
X147717683Y-120748632D01*
X147744931Y-120707852D01*
X151607353Y-120707852D01*
X151735676Y-120999871D01*
X152071295Y-121167723D01*
X152433211Y-121266874D01*
X152807516Y-121293514D01*
X153179827Y-121246618D01*
X153535835Y-121127988D01*
X153775524Y-120999871D01*
X153903847Y-120707852D01*
X152755600Y-119559605D01*
X151607353Y-120707852D01*
X147744931Y-120707852D01*
X147952646Y-120396986D01*
X148114492Y-120006257D01*
X148197000Y-119591461D01*
X148197000Y-119431916D01*
X150842086Y-119431916D01*
X150888982Y-119804227D01*
X151007612Y-120160235D01*
X151135729Y-120399924D01*
X151427748Y-120528247D01*
X152575995Y-119380000D01*
X152935205Y-119380000D01*
X154083452Y-120528247D01*
X154375471Y-120399924D01*
X154543323Y-120064305D01*
X154642474Y-119702389D01*
X154669114Y-119328084D01*
X154622218Y-118955773D01*
X154503588Y-118599765D01*
X154375471Y-118360076D01*
X154083452Y-118231753D01*
X152935205Y-119380000D01*
X152575995Y-119380000D01*
X151427748Y-118231753D01*
X151135729Y-118360076D01*
X150967877Y-118695695D01*
X150868726Y-119057611D01*
X150842086Y-119431916D01*
X148197000Y-119431916D01*
X148197000Y-119168539D01*
X148114492Y-118753743D01*
X147952646Y-118363014D01*
X147744932Y-118052148D01*
X151607353Y-118052148D01*
X152755600Y-119200395D01*
X153903847Y-118052148D01*
X153775524Y-117760129D01*
X153439905Y-117592277D01*
X153077989Y-117493126D01*
X152703684Y-117466486D01*
X152331373Y-117513382D01*
X151975365Y-117632012D01*
X151735676Y-117760129D01*
X151607353Y-118052148D01*
X147744932Y-118052148D01*
X147717683Y-118011368D01*
X147418632Y-117712317D01*
X147066986Y-117477354D01*
X146676257Y-117315508D01*
X146261461Y-117233000D01*
X145838539Y-117233000D01*
X145423743Y-117315508D01*
X145033014Y-117477354D01*
X144681368Y-117712317D01*
X144382317Y-118011368D01*
X144147354Y-118363014D01*
X143985508Y-118753743D01*
X143903000Y-119168539D01*
X141495643Y-119168539D01*
X141495643Y-118110000D01*
X141478710Y-117938078D01*
X141428562Y-117772763D01*
X141347127Y-117620408D01*
X141237533Y-117486867D01*
X141103992Y-117377273D01*
X140951637Y-117295838D01*
X140786322Y-117245690D01*
X140614400Y-117228757D01*
X138074400Y-117228757D01*
X137902478Y-117245690D01*
X137737163Y-117295838D01*
X137584808Y-117377273D01*
X137451267Y-117486867D01*
X137341673Y-117620408D01*
X137260238Y-117772763D01*
X137210090Y-117938078D01*
X137193157Y-118110000D01*
X137193157Y-119583871D01*
X134004029Y-122773000D01*
X115780372Y-122773000D01*
X113555643Y-120548272D01*
X113555643Y-119168539D01*
X115963000Y-119168539D01*
X115963000Y-119591461D01*
X116045508Y-120006257D01*
X116207354Y-120396986D01*
X116442317Y-120748632D01*
X116741368Y-121047683D01*
X117093014Y-121282646D01*
X117483743Y-121444492D01*
X117898539Y-121527000D01*
X118321461Y-121527000D01*
X118736257Y-121444492D01*
X119126986Y-121282646D01*
X119478632Y-121047683D01*
X119777683Y-120748632D01*
X119804931Y-120707852D01*
X123667353Y-120707852D01*
X123795676Y-120999871D01*
X124131295Y-121167723D01*
X124493211Y-121266874D01*
X124867516Y-121293514D01*
X125239827Y-121246618D01*
X125595835Y-121127988D01*
X125835524Y-120999871D01*
X125963847Y-120707852D01*
X124815600Y-119559605D01*
X123667353Y-120707852D01*
X119804931Y-120707852D01*
X120012646Y-120396986D01*
X120174492Y-120006257D01*
X120257000Y-119591461D01*
X120257000Y-119431916D01*
X122902086Y-119431916D01*
X122948982Y-119804227D01*
X123067612Y-120160235D01*
X123195729Y-120399924D01*
X123487748Y-120528247D01*
X124635995Y-119380000D01*
X124995205Y-119380000D01*
X126143452Y-120528247D01*
X126435471Y-120399924D01*
X126603323Y-120064305D01*
X126702474Y-119702389D01*
X126729114Y-119328084D01*
X126682218Y-118955773D01*
X126563588Y-118599765D01*
X126435471Y-118360076D01*
X126143452Y-118231753D01*
X124995205Y-119380000D01*
X124635995Y-119380000D01*
X123487748Y-118231753D01*
X123195729Y-118360076D01*
X123027877Y-118695695D01*
X122928726Y-119057611D01*
X122902086Y-119431916D01*
X120257000Y-119431916D01*
X120257000Y-119168539D01*
X120174492Y-118753743D01*
X120012646Y-118363014D01*
X119804932Y-118052148D01*
X123667353Y-118052148D01*
X124815600Y-119200395D01*
X125963847Y-118052148D01*
X125835524Y-117760129D01*
X125499905Y-117592277D01*
X125137989Y-117493126D01*
X124763684Y-117466486D01*
X124391373Y-117513382D01*
X124035365Y-117632012D01*
X123795676Y-117760129D01*
X123667353Y-118052148D01*
X119804932Y-118052148D01*
X119777683Y-118011368D01*
X119478632Y-117712317D01*
X119126986Y-117477354D01*
X118736257Y-117315508D01*
X118321461Y-117233000D01*
X117898539Y-117233000D01*
X117483743Y-117315508D01*
X117093014Y-117477354D01*
X116741368Y-117712317D01*
X116442317Y-118011368D01*
X116207354Y-118363014D01*
X116045508Y-118753743D01*
X115963000Y-119168539D01*
X113555643Y-119168539D01*
X113555643Y-118110000D01*
X113538710Y-117938078D01*
X113488562Y-117772763D01*
X113407127Y-117620408D01*
X113297533Y-117486867D01*
X113163992Y-117377273D01*
X113011637Y-117295838D01*
X112846322Y-117245690D01*
X112674400Y-117228757D01*
X110134400Y-117228757D01*
X109962478Y-117245690D01*
X109797163Y-117295838D01*
X109644808Y-117377273D01*
X109511267Y-117486867D01*
X109401673Y-117620408D01*
X109320238Y-117772763D01*
X109270090Y-117938078D01*
X109253157Y-118110000D01*
X109253157Y-119583871D01*
X106064029Y-122773000D01*
X88620372Y-122773000D01*
X85615643Y-119768272D01*
X85615643Y-119168539D01*
X88023000Y-119168539D01*
X88023000Y-119591461D01*
X88105508Y-120006257D01*
X88267354Y-120396986D01*
X88502317Y-120748632D01*
X88801368Y-121047683D01*
X89153014Y-121282646D01*
X89543743Y-121444492D01*
X89958539Y-121527000D01*
X90381461Y-121527000D01*
X90796257Y-121444492D01*
X91186986Y-121282646D01*
X91538632Y-121047683D01*
X91837683Y-120748632D01*
X91864931Y-120707852D01*
X95727353Y-120707852D01*
X95855676Y-120999871D01*
X96191295Y-121167723D01*
X96553211Y-121266874D01*
X96927516Y-121293514D01*
X97299827Y-121246618D01*
X97655835Y-121127988D01*
X97895524Y-120999871D01*
X98023847Y-120707852D01*
X96875600Y-119559605D01*
X95727353Y-120707852D01*
X91864931Y-120707852D01*
X92072646Y-120396986D01*
X92234492Y-120006257D01*
X92317000Y-119591461D01*
X92317000Y-119431916D01*
X94962086Y-119431916D01*
X95008982Y-119804227D01*
X95127612Y-120160235D01*
X95255729Y-120399924D01*
X95547748Y-120528247D01*
X96695995Y-119380000D01*
X97055205Y-119380000D01*
X98203452Y-120528247D01*
X98495471Y-120399924D01*
X98663323Y-120064305D01*
X98762474Y-119702389D01*
X98789114Y-119328084D01*
X98742218Y-118955773D01*
X98623588Y-118599765D01*
X98495471Y-118360076D01*
X98203452Y-118231753D01*
X97055205Y-119380000D01*
X96695995Y-119380000D01*
X95547748Y-118231753D01*
X95255729Y-118360076D01*
X95087877Y-118695695D01*
X94988726Y-119057611D01*
X94962086Y-119431916D01*
X92317000Y-119431916D01*
X92317000Y-119168539D01*
X92234492Y-118753743D01*
X92072646Y-118363014D01*
X91864932Y-118052148D01*
X95727353Y-118052148D01*
X96875600Y-119200395D01*
X98023847Y-118052148D01*
X97895524Y-117760129D01*
X97559905Y-117592277D01*
X97197989Y-117493126D01*
X96823684Y-117466486D01*
X96451373Y-117513382D01*
X96095365Y-117632012D01*
X95855676Y-117760129D01*
X95727353Y-118052148D01*
X91864932Y-118052148D01*
X91837683Y-118011368D01*
X91538632Y-117712317D01*
X91186986Y-117477354D01*
X90796257Y-117315508D01*
X90381461Y-117233000D01*
X89958539Y-117233000D01*
X89543743Y-117315508D01*
X89153014Y-117477354D01*
X88801368Y-117712317D01*
X88502317Y-118011368D01*
X88267354Y-118363014D01*
X88105508Y-118753743D01*
X88023000Y-119168539D01*
X85615643Y-119168539D01*
X85615643Y-118110000D01*
X85598710Y-117938078D01*
X85548562Y-117772763D01*
X85467127Y-117620408D01*
X85357533Y-117486867D01*
X85223992Y-117377273D01*
X85071637Y-117295838D01*
X84906322Y-117245690D01*
X84734400Y-117228757D01*
X82194400Y-117228757D01*
X82022478Y-117245690D01*
X81857163Y-117295838D01*
X81704808Y-117377273D01*
X81571267Y-117486867D01*
X81461673Y-117620408D01*
X81380238Y-117772763D01*
X81330090Y-117938078D01*
X81313157Y-118110000D01*
X70025995Y-118110000D01*
X70083847Y-118052148D01*
X69955524Y-117760129D01*
X69619905Y-117592277D01*
X69257989Y-117493126D01*
X68883684Y-117466486D01*
X68511373Y-117513382D01*
X68155365Y-117632012D01*
X67915676Y-117760129D01*
X67787353Y-118052148D01*
X63924932Y-118052148D01*
X63897683Y-118011368D01*
X63598632Y-117712317D01*
X63246986Y-117477354D01*
X62856257Y-117315508D01*
X62441461Y-117233000D01*
X62018539Y-117233000D01*
X61603743Y-117315508D01*
X61213014Y-117477354D01*
X60861368Y-117712317D01*
X60562317Y-118011368D01*
X60327354Y-118363014D01*
X60165508Y-118753743D01*
X60083000Y-119168539D01*
X57675643Y-119168539D01*
X57675643Y-118110000D01*
X57658710Y-117938078D01*
X57608562Y-117772763D01*
X57527127Y-117620408D01*
X57417533Y-117486867D01*
X57283992Y-117377273D01*
X57131637Y-117295838D01*
X56966322Y-117245690D01*
X56794400Y-117228757D01*
X54254400Y-117228757D01*
X54082478Y-117245690D01*
X53917163Y-117295838D01*
X53764808Y-117377273D01*
X53631267Y-117486867D01*
X53521673Y-117620408D01*
X53440238Y-117772763D01*
X53390090Y-117938078D01*
X53373157Y-118110000D01*
X45110000Y-118110000D01*
X45110000Y-98798505D01*
X48145000Y-98798505D01*
X48145000Y-99321495D01*
X48247031Y-99834435D01*
X48447170Y-100317614D01*
X48737727Y-100752464D01*
X49107536Y-101122273D01*
X49542386Y-101412830D01*
X50025565Y-101612969D01*
X50538505Y-101715000D01*
X51061495Y-101715000D01*
X51574435Y-101612969D01*
X52057614Y-101412830D01*
X52492464Y-101122273D01*
X52862273Y-100752464D01*
X53152830Y-100317614D01*
X53352969Y-99834435D01*
X53455000Y-99321495D01*
X53455000Y-98798505D01*
X53406483Y-98554591D01*
X57098500Y-98554591D01*
X57098500Y-99565409D01*
X57295701Y-100556803D01*
X57682524Y-101490677D01*
X58244104Y-102331140D01*
X58958860Y-103045896D01*
X59799323Y-103607476D01*
X60733197Y-103994299D01*
X61724591Y-104191500D01*
X62735409Y-104191500D01*
X63726803Y-103994299D01*
X64660677Y-103607476D01*
X65501140Y-103045896D01*
X66215896Y-102331140D01*
X66777476Y-101490677D01*
X67164299Y-100556803D01*
X67361500Y-99565409D01*
X67361500Y-98798505D01*
X76085000Y-98798505D01*
X76085000Y-99321495D01*
X76187031Y-99834435D01*
X76387170Y-100317614D01*
X76677727Y-100752464D01*
X77047536Y-101122273D01*
X77482386Y-101412830D01*
X77965565Y-101612969D01*
X78478505Y-101715000D01*
X79001495Y-101715000D01*
X79514435Y-101612969D01*
X79997614Y-101412830D01*
X80432464Y-101122273D01*
X80802273Y-100752464D01*
X81092830Y-100317614D01*
X81292969Y-99834435D01*
X81395000Y-99321495D01*
X81395000Y-98798505D01*
X81346483Y-98554591D01*
X85038500Y-98554591D01*
X85038500Y-99565409D01*
X85235701Y-100556803D01*
X85622524Y-101490677D01*
X86184104Y-102331140D01*
X86898860Y-103045896D01*
X87739323Y-103607476D01*
X88673197Y-103994299D01*
X89664591Y-104191500D01*
X90675409Y-104191500D01*
X91666803Y-103994299D01*
X92600677Y-103607476D01*
X93441140Y-103045896D01*
X94155896Y-102331140D01*
X94717476Y-101490677D01*
X95104299Y-100556803D01*
X95301500Y-99565409D01*
X95301500Y-98798505D01*
X104025000Y-98798505D01*
X104025000Y-99321495D01*
X104127031Y-99834435D01*
X104327170Y-100317614D01*
X104617727Y-100752464D01*
X104987536Y-101122273D01*
X105422386Y-101412830D01*
X105905565Y-101612969D01*
X106418505Y-101715000D01*
X106941495Y-101715000D01*
X107454435Y-101612969D01*
X107937614Y-101412830D01*
X108372464Y-101122273D01*
X108742273Y-100752464D01*
X109032830Y-100317614D01*
X109232969Y-99834435D01*
X109335000Y-99321495D01*
X109335000Y-98798505D01*
X109286483Y-98554591D01*
X112978500Y-98554591D01*
X112978500Y-99565409D01*
X113175701Y-100556803D01*
X113562524Y-101490677D01*
X114124104Y-102331140D01*
X114838860Y-103045896D01*
X115679323Y-103607476D01*
X116613197Y-103994299D01*
X117604591Y-104191500D01*
X118615409Y-104191500D01*
X119606803Y-103994299D01*
X120540677Y-103607476D01*
X121381140Y-103045896D01*
X122095896Y-102331140D01*
X122657476Y-101490677D01*
X123044299Y-100556803D01*
X123241500Y-99565409D01*
X123241500Y-98798505D01*
X131965000Y-98798505D01*
X131965000Y-99321495D01*
X132067031Y-99834435D01*
X132267170Y-100317614D01*
X132557727Y-100752464D01*
X132927536Y-101122273D01*
X133362386Y-101412830D01*
X133845565Y-101612969D01*
X134358505Y-101715000D01*
X134881495Y-101715000D01*
X135394435Y-101612969D01*
X135877614Y-101412830D01*
X136312464Y-101122273D01*
X136682273Y-100752464D01*
X136972830Y-100317614D01*
X137172969Y-99834435D01*
X137275000Y-99321495D01*
X137275000Y-98798505D01*
X137226483Y-98554591D01*
X140918500Y-98554591D01*
X140918500Y-99565409D01*
X141115701Y-100556803D01*
X141502524Y-101490677D01*
X142064104Y-102331140D01*
X142778860Y-103045896D01*
X143619323Y-103607476D01*
X144553197Y-103994299D01*
X145544591Y-104191500D01*
X146555409Y-104191500D01*
X147546803Y-103994299D01*
X148480677Y-103607476D01*
X149321140Y-103045896D01*
X150035896Y-102331140D01*
X150597476Y-101490677D01*
X150984299Y-100556803D01*
X151181500Y-99565409D01*
X151181500Y-98798505D01*
X159905000Y-98798505D01*
X159905000Y-99321495D01*
X160007031Y-99834435D01*
X160207170Y-100317614D01*
X160497727Y-100752464D01*
X160867536Y-101122273D01*
X161302386Y-101412830D01*
X161785565Y-101612969D01*
X162298505Y-101715000D01*
X162821495Y-101715000D01*
X163334435Y-101612969D01*
X163817614Y-101412830D01*
X164252464Y-101122273D01*
X164622273Y-100752464D01*
X164912830Y-100317614D01*
X165112969Y-99834435D01*
X165215000Y-99321495D01*
X165215000Y-98798505D01*
X165166483Y-98554591D01*
X168858500Y-98554591D01*
X168858500Y-99565409D01*
X169055701Y-100556803D01*
X169442524Y-101490677D01*
X170004104Y-102331140D01*
X170718860Y-103045896D01*
X171559323Y-103607476D01*
X172493197Y-103994299D01*
X173484591Y-104191500D01*
X174495409Y-104191500D01*
X175486803Y-103994299D01*
X176420677Y-103607476D01*
X177261140Y-103045896D01*
X177975896Y-102331140D01*
X178537476Y-101490677D01*
X178924299Y-100556803D01*
X179121500Y-99565409D01*
X179121500Y-98554591D01*
X178924299Y-97563197D01*
X178821850Y-97315862D01*
X197116000Y-97315862D01*
X197116000Y-98264138D01*
X197300999Y-99194192D01*
X197663888Y-100070284D01*
X198190722Y-100858746D01*
X198861254Y-101529278D01*
X199649716Y-102056112D01*
X200398152Y-102366124D01*
X200114345Y-102649931D01*
X199858535Y-103032779D01*
X199682329Y-103458176D01*
X199592500Y-103909776D01*
X199592500Y-104370224D01*
X199682329Y-104821824D01*
X199858535Y-105247221D01*
X200114345Y-105630069D01*
X200439931Y-105955655D01*
X200822779Y-106211465D01*
X201248176Y-106387671D01*
X201363501Y-106410611D01*
X201153643Y-106497537D01*
X200885199Y-106676906D01*
X200875248Y-106686857D01*
X200775133Y-106564867D01*
X200641592Y-106455273D01*
X200489237Y-106373838D01*
X200323922Y-106323690D01*
X200152000Y-106306757D01*
X198628000Y-106306757D01*
X198456078Y-106323690D01*
X198290763Y-106373838D01*
X198138408Y-106455273D01*
X198004867Y-106564867D01*
X197895273Y-106698408D01*
X197813838Y-106850763D01*
X197763690Y-107016078D01*
X197746757Y-107188000D01*
X197746757Y-108712000D01*
X197763690Y-108883922D01*
X197813838Y-109049237D01*
X197895273Y-109201592D01*
X198004867Y-109335133D01*
X198138408Y-109444727D01*
X198290763Y-109526162D01*
X198456078Y-109576310D01*
X198628000Y-109593243D01*
X200152000Y-109593243D01*
X200323922Y-109576310D01*
X200489237Y-109526162D01*
X200641592Y-109444727D01*
X200775133Y-109335133D01*
X200875248Y-109213143D01*
X200885199Y-109223094D01*
X201153643Y-109402463D01*
X201451921Y-109526014D01*
X201768573Y-109589000D01*
X202091427Y-109589000D01*
X202408079Y-109526014D01*
X202706357Y-109402463D01*
X202974801Y-109223094D01*
X203200000Y-108997895D01*
X203425199Y-109223094D01*
X203693643Y-109402463D01*
X203991921Y-109526014D01*
X204308573Y-109589000D01*
X204631427Y-109589000D01*
X204948079Y-109526014D01*
X205246357Y-109402463D01*
X205514801Y-109223094D01*
X205743094Y-108994801D01*
X205922463Y-108726357D01*
X206046014Y-108428079D01*
X206109000Y-108111427D01*
X206109000Y-107788573D01*
X206046014Y-107471921D01*
X205922463Y-107173643D01*
X205743094Y-106905199D01*
X205514801Y-106676906D01*
X205246357Y-106497537D01*
X204948079Y-106373986D01*
X204631427Y-106311000D01*
X204308573Y-106311000D01*
X203991921Y-106373986D01*
X203693643Y-106497537D01*
X203425199Y-106676906D01*
X203200000Y-106902105D01*
X202974801Y-106676906D01*
X202706357Y-106497537D01*
X202496499Y-106410611D01*
X202611824Y-106387671D01*
X203037221Y-106211465D01*
X203420069Y-105955655D01*
X203745655Y-105630069D01*
X204001465Y-105247221D01*
X204177671Y-104821824D01*
X204267500Y-104370224D01*
X204267500Y-103909776D01*
X204177671Y-103458176D01*
X204001465Y-103032779D01*
X203745655Y-102649931D01*
X203461848Y-102366124D01*
X204210284Y-102056112D01*
X204998746Y-101529278D01*
X205669278Y-100858746D01*
X206196112Y-100070284D01*
X206559001Y-99194192D01*
X206744000Y-98264138D01*
X206744000Y-97315862D01*
X206559001Y-96385808D01*
X206196112Y-95509716D01*
X205669278Y-94721254D01*
X204998746Y-94050722D01*
X204210284Y-93523888D01*
X203334192Y-93160999D01*
X202404138Y-92976000D01*
X201455862Y-92976000D01*
X200525808Y-93160999D01*
X199649716Y-93523888D01*
X198861254Y-94050722D01*
X198190722Y-94721254D01*
X197663888Y-95509716D01*
X197300999Y-96385808D01*
X197116000Y-97315862D01*
X178821850Y-97315862D01*
X178537476Y-96629323D01*
X177975896Y-95788860D01*
X177261140Y-95074104D01*
X176420677Y-94512524D01*
X175486803Y-94125701D01*
X174495409Y-93928500D01*
X173484591Y-93928500D01*
X172493197Y-94125701D01*
X171559323Y-94512524D01*
X170718860Y-95074104D01*
X170004104Y-95788860D01*
X169442524Y-96629323D01*
X169055701Y-97563197D01*
X168858500Y-98554591D01*
X165166483Y-98554591D01*
X165112969Y-98285565D01*
X164912830Y-97802386D01*
X164622273Y-97367536D01*
X164252464Y-96997727D01*
X163817614Y-96707170D01*
X163334435Y-96507031D01*
X162821495Y-96405000D01*
X162298505Y-96405000D01*
X161785565Y-96507031D01*
X161302386Y-96707170D01*
X160867536Y-96997727D01*
X160497727Y-97367536D01*
X160207170Y-97802386D01*
X160007031Y-98285565D01*
X159905000Y-98798505D01*
X151181500Y-98798505D01*
X151181500Y-98554591D01*
X150984299Y-97563197D01*
X150597476Y-96629323D01*
X150035896Y-95788860D01*
X149321140Y-95074104D01*
X148480677Y-94512524D01*
X147546803Y-94125701D01*
X146555409Y-93928500D01*
X145544591Y-93928500D01*
X144553197Y-94125701D01*
X143619323Y-94512524D01*
X142778860Y-95074104D01*
X142064104Y-95788860D01*
X141502524Y-96629323D01*
X141115701Y-97563197D01*
X140918500Y-98554591D01*
X137226483Y-98554591D01*
X137172969Y-98285565D01*
X136972830Y-97802386D01*
X136682273Y-97367536D01*
X136312464Y-96997727D01*
X135877614Y-96707170D01*
X135394435Y-96507031D01*
X134881495Y-96405000D01*
X134358505Y-96405000D01*
X133845565Y-96507031D01*
X133362386Y-96707170D01*
X132927536Y-96997727D01*
X132557727Y-97367536D01*
X132267170Y-97802386D01*
X132067031Y-98285565D01*
X131965000Y-98798505D01*
X123241500Y-98798505D01*
X123241500Y-98554591D01*
X123044299Y-97563197D01*
X122657476Y-96629323D01*
X122095896Y-95788860D01*
X121381140Y-95074104D01*
X120540677Y-94512524D01*
X119606803Y-94125701D01*
X118615409Y-93928500D01*
X117604591Y-93928500D01*
X116613197Y-94125701D01*
X115679323Y-94512524D01*
X114838860Y-95074104D01*
X114124104Y-95788860D01*
X113562524Y-96629323D01*
X113175701Y-97563197D01*
X112978500Y-98554591D01*
X109286483Y-98554591D01*
X109232969Y-98285565D01*
X109032830Y-97802386D01*
X108742273Y-97367536D01*
X108372464Y-96997727D01*
X107937614Y-96707170D01*
X107454435Y-96507031D01*
X106941495Y-96405000D01*
X106418505Y-96405000D01*
X105905565Y-96507031D01*
X105422386Y-96707170D01*
X104987536Y-96997727D01*
X104617727Y-97367536D01*
X104327170Y-97802386D01*
X104127031Y-98285565D01*
X104025000Y-98798505D01*
X95301500Y-98798505D01*
X95301500Y-98554591D01*
X95104299Y-97563197D01*
X94717476Y-96629323D01*
X94155896Y-95788860D01*
X93441140Y-95074104D01*
X92600677Y-94512524D01*
X91666803Y-94125701D01*
X90675409Y-93928500D01*
X89664591Y-93928500D01*
X88673197Y-94125701D01*
X87739323Y-94512524D01*
X86898860Y-95074104D01*
X86184104Y-95788860D01*
X85622524Y-96629323D01*
X85235701Y-97563197D01*
X85038500Y-98554591D01*
X81346483Y-98554591D01*
X81292969Y-98285565D01*
X81092830Y-97802386D01*
X80802273Y-97367536D01*
X80432464Y-96997727D01*
X79997614Y-96707170D01*
X79514435Y-96507031D01*
X79001495Y-96405000D01*
X78478505Y-96405000D01*
X77965565Y-96507031D01*
X77482386Y-96707170D01*
X77047536Y-96997727D01*
X76677727Y-97367536D01*
X76387170Y-97802386D01*
X76187031Y-98285565D01*
X76085000Y-98798505D01*
X67361500Y-98798505D01*
X67361500Y-98554591D01*
X67164299Y-97563197D01*
X66777476Y-96629323D01*
X66215896Y-95788860D01*
X65501140Y-95074104D01*
X64660677Y-94512524D01*
X63726803Y-94125701D01*
X62735409Y-93928500D01*
X61724591Y-93928500D01*
X60733197Y-94125701D01*
X59799323Y-94512524D01*
X58958860Y-95074104D01*
X58244104Y-95788860D01*
X57682524Y-96629323D01*
X57295701Y-97563197D01*
X57098500Y-98554591D01*
X53406483Y-98554591D01*
X53352969Y-98285565D01*
X53152830Y-97802386D01*
X52862273Y-97367536D01*
X52492464Y-96997727D01*
X52057614Y-96707170D01*
X51574435Y-96507031D01*
X51061495Y-96405000D01*
X50538505Y-96405000D01*
X50025565Y-96507031D01*
X49542386Y-96707170D01*
X49107536Y-96997727D01*
X48737727Y-97367536D01*
X48447170Y-97802386D01*
X48247031Y-98285565D01*
X48145000Y-98798505D01*
X45110000Y-98798505D01*
X45110000Y-81915000D01*
X53093757Y-81915000D01*
X53093757Y-84455000D01*
X53110690Y-84626922D01*
X53160838Y-84792237D01*
X53242273Y-84944592D01*
X53351867Y-85078133D01*
X53485408Y-85187727D01*
X53637763Y-85269162D01*
X53803078Y-85319310D01*
X53975000Y-85336243D01*
X56515000Y-85336243D01*
X56686922Y-85319310D01*
X56852237Y-85269162D01*
X57004592Y-85187727D01*
X57138133Y-85078133D01*
X57247727Y-84944592D01*
X57329162Y-84792237D01*
X57379310Y-84626922D01*
X57396243Y-84455000D01*
X57396243Y-82973539D01*
X60083000Y-82973539D01*
X60083000Y-83396461D01*
X60165508Y-83811257D01*
X60327354Y-84201986D01*
X60562317Y-84553632D01*
X60861368Y-84852683D01*
X61213014Y-85087646D01*
X61603743Y-85249492D01*
X62018539Y-85332000D01*
X62441461Y-85332000D01*
X62856257Y-85249492D01*
X63246986Y-85087646D01*
X63598632Y-84852683D01*
X63897683Y-84553632D01*
X63924931Y-84512852D01*
X68066753Y-84512852D01*
X68195076Y-84804871D01*
X68530695Y-84972723D01*
X68892611Y-85071874D01*
X69266916Y-85098514D01*
X69639227Y-85051618D01*
X69995235Y-84932988D01*
X70234924Y-84804871D01*
X70363247Y-84512852D01*
X69215000Y-83364605D01*
X68066753Y-84512852D01*
X63924931Y-84512852D01*
X64132646Y-84201986D01*
X64294492Y-83811257D01*
X64377000Y-83396461D01*
X64377000Y-83236916D01*
X67301486Y-83236916D01*
X67348382Y-83609227D01*
X67467012Y-83965235D01*
X67595129Y-84204924D01*
X67887148Y-84333247D01*
X69035395Y-83185000D01*
X69394605Y-83185000D01*
X70542852Y-84333247D01*
X70834871Y-84204924D01*
X71002723Y-83869305D01*
X71101874Y-83507389D01*
X71128514Y-83133084D01*
X71081618Y-82760773D01*
X70962988Y-82404765D01*
X70834871Y-82165076D01*
X70542852Y-82036753D01*
X69394605Y-83185000D01*
X69035395Y-83185000D01*
X67887148Y-82036753D01*
X67595129Y-82165076D01*
X67427277Y-82500695D01*
X67328126Y-82862611D01*
X67301486Y-83236916D01*
X64377000Y-83236916D01*
X64377000Y-82973539D01*
X64294492Y-82558743D01*
X64132646Y-82168014D01*
X63924932Y-81857148D01*
X68066753Y-81857148D01*
X69215000Y-83005395D01*
X70305395Y-81915000D01*
X81033757Y-81915000D01*
X81033757Y-84455000D01*
X81050690Y-84626922D01*
X81100838Y-84792237D01*
X81182273Y-84944592D01*
X81291867Y-85078133D01*
X81425408Y-85187727D01*
X81577763Y-85269162D01*
X81743078Y-85319310D01*
X81915000Y-85336243D01*
X84455000Y-85336243D01*
X84626922Y-85319310D01*
X84792237Y-85269162D01*
X84944592Y-85187727D01*
X85078133Y-85078133D01*
X85187727Y-84944592D01*
X85269162Y-84792237D01*
X85319310Y-84626922D01*
X85336243Y-84455000D01*
X85336243Y-82973539D01*
X88023000Y-82973539D01*
X88023000Y-83396461D01*
X88105508Y-83811257D01*
X88267354Y-84201986D01*
X88502317Y-84553632D01*
X88801368Y-84852683D01*
X89153014Y-85087646D01*
X89543743Y-85249492D01*
X89958539Y-85332000D01*
X90381461Y-85332000D01*
X90796257Y-85249492D01*
X91186986Y-85087646D01*
X91538632Y-84852683D01*
X91837683Y-84553632D01*
X91864931Y-84512852D01*
X96006753Y-84512852D01*
X96135076Y-84804871D01*
X96470695Y-84972723D01*
X96832611Y-85071874D01*
X97206916Y-85098514D01*
X97579227Y-85051618D01*
X97935235Y-84932988D01*
X98174924Y-84804871D01*
X98303247Y-84512852D01*
X97155000Y-83364605D01*
X96006753Y-84512852D01*
X91864931Y-84512852D01*
X92072646Y-84201986D01*
X92234492Y-83811257D01*
X92317000Y-83396461D01*
X92317000Y-83236916D01*
X95241486Y-83236916D01*
X95288382Y-83609227D01*
X95407012Y-83965235D01*
X95535129Y-84204924D01*
X95827148Y-84333247D01*
X96975395Y-83185000D01*
X97334605Y-83185000D01*
X98482852Y-84333247D01*
X98774871Y-84204924D01*
X98942723Y-83869305D01*
X99041874Y-83507389D01*
X99068514Y-83133084D01*
X99021618Y-82760773D01*
X98902988Y-82404765D01*
X98774871Y-82165076D01*
X98482852Y-82036753D01*
X97334605Y-83185000D01*
X96975395Y-83185000D01*
X95827148Y-82036753D01*
X95535129Y-82165076D01*
X95367277Y-82500695D01*
X95268126Y-82862611D01*
X95241486Y-83236916D01*
X92317000Y-83236916D01*
X92317000Y-82973539D01*
X92234492Y-82558743D01*
X92072646Y-82168014D01*
X91864932Y-81857148D01*
X96006753Y-81857148D01*
X97155000Y-83005395D01*
X98245395Y-81915000D01*
X108973757Y-81915000D01*
X108973757Y-84455000D01*
X108990690Y-84626922D01*
X109040838Y-84792237D01*
X109122273Y-84944592D01*
X109231867Y-85078133D01*
X109365408Y-85187727D01*
X109517763Y-85269162D01*
X109683078Y-85319310D01*
X109855000Y-85336243D01*
X112395000Y-85336243D01*
X112566922Y-85319310D01*
X112732237Y-85269162D01*
X112884592Y-85187727D01*
X113018133Y-85078133D01*
X113127727Y-84944592D01*
X113209162Y-84792237D01*
X113259310Y-84626922D01*
X113276243Y-84455000D01*
X113276243Y-82973539D01*
X115963000Y-82973539D01*
X115963000Y-83396461D01*
X116045508Y-83811257D01*
X116207354Y-84201986D01*
X116442317Y-84553632D01*
X116741368Y-84852683D01*
X117093014Y-85087646D01*
X117483743Y-85249492D01*
X117898539Y-85332000D01*
X118321461Y-85332000D01*
X118736257Y-85249492D01*
X119126986Y-85087646D01*
X119478632Y-84852683D01*
X119777683Y-84553632D01*
X119804931Y-84512852D01*
X123946753Y-84512852D01*
X124075076Y-84804871D01*
X124410695Y-84972723D01*
X124772611Y-85071874D01*
X125146916Y-85098514D01*
X125519227Y-85051618D01*
X125875235Y-84932988D01*
X126114924Y-84804871D01*
X126243247Y-84512852D01*
X125095000Y-83364605D01*
X123946753Y-84512852D01*
X119804931Y-84512852D01*
X120012646Y-84201986D01*
X120174492Y-83811257D01*
X120257000Y-83396461D01*
X120257000Y-83236916D01*
X123181486Y-83236916D01*
X123228382Y-83609227D01*
X123347012Y-83965235D01*
X123475129Y-84204924D01*
X123767148Y-84333247D01*
X124915395Y-83185000D01*
X125274605Y-83185000D01*
X126422852Y-84333247D01*
X126714871Y-84204924D01*
X126882723Y-83869305D01*
X126896230Y-83820000D01*
X135923157Y-83820000D01*
X135923157Y-86360000D01*
X135940090Y-86531922D01*
X135990238Y-86697237D01*
X136071673Y-86849592D01*
X136181267Y-86983133D01*
X136314808Y-87092727D01*
X136467163Y-87174162D01*
X136632478Y-87224310D01*
X136804400Y-87241243D01*
X139344400Y-87241243D01*
X139516322Y-87224310D01*
X139681637Y-87174162D01*
X139833992Y-87092727D01*
X139967533Y-86983133D01*
X140077127Y-86849592D01*
X140158562Y-86697237D01*
X140208710Y-86531922D01*
X140225643Y-86360000D01*
X140225643Y-84878539D01*
X142633000Y-84878539D01*
X142633000Y-85301461D01*
X142715508Y-85716257D01*
X142877354Y-86106986D01*
X143112317Y-86458632D01*
X143411368Y-86757683D01*
X143763014Y-86992646D01*
X144153743Y-87154492D01*
X144568539Y-87237000D01*
X144991461Y-87237000D01*
X145406257Y-87154492D01*
X145796986Y-86992646D01*
X146148632Y-86757683D01*
X146447683Y-86458632D01*
X146474931Y-86417852D01*
X150337353Y-86417852D01*
X150465676Y-86709871D01*
X150801295Y-86877723D01*
X151163211Y-86976874D01*
X151537516Y-87003514D01*
X151909827Y-86956618D01*
X152265835Y-86837988D01*
X152505524Y-86709871D01*
X152633847Y-86417852D01*
X151485600Y-85269605D01*
X150337353Y-86417852D01*
X146474931Y-86417852D01*
X146682646Y-86106986D01*
X146844492Y-85716257D01*
X146927000Y-85301461D01*
X146927000Y-85141916D01*
X149572086Y-85141916D01*
X149618982Y-85514227D01*
X149737612Y-85870235D01*
X149865729Y-86109924D01*
X150157748Y-86238247D01*
X151305995Y-85090000D01*
X151665205Y-85090000D01*
X152813452Y-86238247D01*
X153105471Y-86109924D01*
X153273323Y-85774305D01*
X153372474Y-85412389D01*
X153399114Y-85038084D01*
X153352218Y-84665773D01*
X153233588Y-84309765D01*
X153105471Y-84070076D01*
X152813452Y-83941753D01*
X151665205Y-85090000D01*
X151305995Y-85090000D01*
X150157748Y-83941753D01*
X149865729Y-84070076D01*
X149697877Y-84405695D01*
X149598726Y-84767611D01*
X149572086Y-85141916D01*
X146927000Y-85141916D01*
X146927000Y-84878539D01*
X146844492Y-84463743D01*
X146682646Y-84073014D01*
X146474932Y-83762148D01*
X150337353Y-83762148D01*
X151485600Y-84910395D01*
X152633847Y-83762148D01*
X152505524Y-83470129D01*
X152169905Y-83302277D01*
X151807989Y-83203126D01*
X151433684Y-83176486D01*
X151061373Y-83223382D01*
X150705365Y-83342012D01*
X150465676Y-83470129D01*
X150337353Y-83762148D01*
X146474932Y-83762148D01*
X146447683Y-83721368D01*
X146148632Y-83422317D01*
X145796986Y-83187354D01*
X145406257Y-83025508D01*
X144991461Y-82943000D01*
X144568539Y-82943000D01*
X144153743Y-83025508D01*
X143763014Y-83187354D01*
X143411368Y-83422317D01*
X143112317Y-83721368D01*
X142877354Y-84073014D01*
X142715508Y-84463743D01*
X142633000Y-84878539D01*
X140225643Y-84878539D01*
X140225643Y-83820000D01*
X140208710Y-83648078D01*
X140158562Y-83482763D01*
X140077127Y-83330408D01*
X139967533Y-83196867D01*
X139833992Y-83087273D01*
X139681637Y-83005838D01*
X139516322Y-82955690D01*
X139344400Y-82938757D01*
X136804400Y-82938757D01*
X136632478Y-82955690D01*
X136467163Y-83005838D01*
X136314808Y-83087273D01*
X136181267Y-83196867D01*
X136071673Y-83330408D01*
X135990238Y-83482763D01*
X135940090Y-83648078D01*
X135923157Y-83820000D01*
X126896230Y-83820000D01*
X126981874Y-83507389D01*
X127008514Y-83133084D01*
X126961618Y-82760773D01*
X126891384Y-82550000D01*
X165133157Y-82550000D01*
X165133157Y-85090000D01*
X165150090Y-85261922D01*
X165200238Y-85427237D01*
X165281673Y-85579592D01*
X165391267Y-85713133D01*
X165524808Y-85822727D01*
X165677163Y-85904162D01*
X165842478Y-85954310D01*
X166014400Y-85971243D01*
X167233872Y-85971243D01*
X170018483Y-88755855D01*
X170061603Y-88808397D01*
X170271279Y-88980473D01*
X170510495Y-89108337D01*
X170770061Y-89187075D01*
X170972360Y-89207000D01*
X170972370Y-89207000D01*
X171039999Y-89213661D01*
X171107629Y-89207000D01*
X191146760Y-89207000D01*
X191214400Y-89213662D01*
X191484339Y-89187075D01*
X191484342Y-89187074D01*
X191743905Y-89108337D01*
X191983121Y-88980473D01*
X192192797Y-88808397D01*
X192235921Y-88755850D01*
X195020529Y-85971243D01*
X196494400Y-85971243D01*
X196666322Y-85954310D01*
X196831637Y-85904162D01*
X196983992Y-85822727D01*
X197117533Y-85713133D01*
X197227127Y-85579592D01*
X197308562Y-85427237D01*
X197358710Y-85261922D01*
X197375643Y-85090000D01*
X197375643Y-83608539D01*
X199783000Y-83608539D01*
X199783000Y-84031461D01*
X199865508Y-84446257D01*
X200027354Y-84836986D01*
X200262317Y-85188632D01*
X200561368Y-85487683D01*
X200913014Y-85722646D01*
X201303743Y-85884492D01*
X201718539Y-85967000D01*
X202141461Y-85967000D01*
X202556257Y-85884492D01*
X202946986Y-85722646D01*
X203298632Y-85487683D01*
X203597683Y-85188632D01*
X203624931Y-85147852D01*
X207487353Y-85147852D01*
X207615676Y-85439871D01*
X207951295Y-85607723D01*
X208313211Y-85706874D01*
X208687516Y-85733514D01*
X209059827Y-85686618D01*
X209415835Y-85567988D01*
X209655524Y-85439871D01*
X209783847Y-85147852D01*
X208635600Y-83999605D01*
X207487353Y-85147852D01*
X203624931Y-85147852D01*
X203832646Y-84836986D01*
X203994492Y-84446257D01*
X204077000Y-84031461D01*
X204077000Y-83871916D01*
X206722086Y-83871916D01*
X206768982Y-84244227D01*
X206887612Y-84600235D01*
X207015729Y-84839924D01*
X207307748Y-84968247D01*
X208455995Y-83820000D01*
X208815205Y-83820000D01*
X209963452Y-84968247D01*
X210255471Y-84839924D01*
X210423323Y-84504305D01*
X210522474Y-84142389D01*
X210549114Y-83768084D01*
X210502218Y-83395773D01*
X210383588Y-83039765D01*
X210255471Y-82800076D01*
X209963452Y-82671753D01*
X208815205Y-83820000D01*
X208455995Y-83820000D01*
X207307748Y-82671753D01*
X207015729Y-82800076D01*
X206847877Y-83135695D01*
X206748726Y-83497611D01*
X206722086Y-83871916D01*
X204077000Y-83871916D01*
X204077000Y-83608539D01*
X203994492Y-83193743D01*
X203832646Y-82803014D01*
X203624932Y-82492148D01*
X207487353Y-82492148D01*
X208635600Y-83640395D01*
X209783847Y-82492148D01*
X209655524Y-82200129D01*
X209319905Y-82032277D01*
X208957989Y-81933126D01*
X208583684Y-81906486D01*
X208211373Y-81953382D01*
X207855365Y-82072012D01*
X207615676Y-82200129D01*
X207487353Y-82492148D01*
X203624932Y-82492148D01*
X203597683Y-82451368D01*
X203298632Y-82152317D01*
X202946986Y-81917354D01*
X202556257Y-81755508D01*
X202141461Y-81673000D01*
X201718539Y-81673000D01*
X201303743Y-81755508D01*
X200913014Y-81917354D01*
X200561368Y-82152317D01*
X200262317Y-82451368D01*
X200027354Y-82803014D01*
X199865508Y-83193743D01*
X199783000Y-83608539D01*
X197375643Y-83608539D01*
X197375643Y-82550000D01*
X197358710Y-82378078D01*
X197308562Y-82212763D01*
X197227127Y-82060408D01*
X197117533Y-81926867D01*
X196983992Y-81817273D01*
X196831637Y-81735838D01*
X196666322Y-81685690D01*
X196494400Y-81668757D01*
X193954400Y-81668757D01*
X193782478Y-81685690D01*
X193617163Y-81735838D01*
X193464808Y-81817273D01*
X193331267Y-81926867D01*
X193221673Y-82060408D01*
X193140238Y-82212763D01*
X193090090Y-82378078D01*
X193073157Y-82550000D01*
X193073157Y-84023871D01*
X190644029Y-86453000D01*
X171610372Y-86453000D01*
X169435643Y-84278272D01*
X169435643Y-83608539D01*
X171843000Y-83608539D01*
X171843000Y-84031461D01*
X171925508Y-84446257D01*
X172087354Y-84836986D01*
X172322317Y-85188632D01*
X172621368Y-85487683D01*
X172973014Y-85722646D01*
X173363743Y-85884492D01*
X173778539Y-85967000D01*
X174201461Y-85967000D01*
X174616257Y-85884492D01*
X175006986Y-85722646D01*
X175358632Y-85487683D01*
X175657683Y-85188632D01*
X175684931Y-85147852D01*
X179547353Y-85147852D01*
X179675676Y-85439871D01*
X180011295Y-85607723D01*
X180373211Y-85706874D01*
X180747516Y-85733514D01*
X181119827Y-85686618D01*
X181475835Y-85567988D01*
X181715524Y-85439871D01*
X181843847Y-85147852D01*
X180695600Y-83999605D01*
X179547353Y-85147852D01*
X175684931Y-85147852D01*
X175892646Y-84836986D01*
X176054492Y-84446257D01*
X176137000Y-84031461D01*
X176137000Y-83871916D01*
X178782086Y-83871916D01*
X178828982Y-84244227D01*
X178947612Y-84600235D01*
X179075729Y-84839924D01*
X179367748Y-84968247D01*
X180515995Y-83820000D01*
X180875205Y-83820000D01*
X182023452Y-84968247D01*
X182315471Y-84839924D01*
X182483323Y-84504305D01*
X182582474Y-84142389D01*
X182609114Y-83768084D01*
X182562218Y-83395773D01*
X182443588Y-83039765D01*
X182315471Y-82800076D01*
X182023452Y-82671753D01*
X180875205Y-83820000D01*
X180515995Y-83820000D01*
X179367748Y-82671753D01*
X179075729Y-82800076D01*
X178907877Y-83135695D01*
X178808726Y-83497611D01*
X178782086Y-83871916D01*
X176137000Y-83871916D01*
X176137000Y-83608539D01*
X176054492Y-83193743D01*
X175892646Y-82803014D01*
X175684932Y-82492148D01*
X179547353Y-82492148D01*
X180695600Y-83640395D01*
X181843847Y-82492148D01*
X181715524Y-82200129D01*
X181379905Y-82032277D01*
X181017989Y-81933126D01*
X180643684Y-81906486D01*
X180271373Y-81953382D01*
X179915365Y-82072012D01*
X179675676Y-82200129D01*
X179547353Y-82492148D01*
X175684932Y-82492148D01*
X175657683Y-82451368D01*
X175358632Y-82152317D01*
X175006986Y-81917354D01*
X174616257Y-81755508D01*
X174201461Y-81673000D01*
X173778539Y-81673000D01*
X173363743Y-81755508D01*
X172973014Y-81917354D01*
X172621368Y-82152317D01*
X172322317Y-82451368D01*
X172087354Y-82803014D01*
X171925508Y-83193743D01*
X171843000Y-83608539D01*
X169435643Y-83608539D01*
X169435643Y-82550000D01*
X169418710Y-82378078D01*
X169368562Y-82212763D01*
X169287127Y-82060408D01*
X169177533Y-81926867D01*
X169043992Y-81817273D01*
X168891637Y-81735838D01*
X168726322Y-81685690D01*
X168554400Y-81668757D01*
X166014400Y-81668757D01*
X165842478Y-81685690D01*
X165677163Y-81735838D01*
X165524808Y-81817273D01*
X165391267Y-81926867D01*
X165281673Y-82060408D01*
X165200238Y-82212763D01*
X165150090Y-82378078D01*
X165133157Y-82550000D01*
X126891384Y-82550000D01*
X126842988Y-82404765D01*
X126714871Y-82165076D01*
X126422852Y-82036753D01*
X125274605Y-83185000D01*
X124915395Y-83185000D01*
X123767148Y-82036753D01*
X123475129Y-82165076D01*
X123307277Y-82500695D01*
X123208126Y-82862611D01*
X123181486Y-83236916D01*
X120257000Y-83236916D01*
X120257000Y-82973539D01*
X120174492Y-82558743D01*
X120012646Y-82168014D01*
X119804932Y-81857148D01*
X123946753Y-81857148D01*
X125095000Y-83005395D01*
X126243247Y-81857148D01*
X126114924Y-81565129D01*
X125779305Y-81397277D01*
X125417389Y-81298126D01*
X125043084Y-81271486D01*
X124670773Y-81318382D01*
X124314765Y-81437012D01*
X124075076Y-81565129D01*
X123946753Y-81857148D01*
X119804932Y-81857148D01*
X119777683Y-81816368D01*
X119478632Y-81517317D01*
X119126986Y-81282354D01*
X118736257Y-81120508D01*
X118321461Y-81038000D01*
X117898539Y-81038000D01*
X117483743Y-81120508D01*
X117093014Y-81282354D01*
X116741368Y-81517317D01*
X116442317Y-81816368D01*
X116207354Y-82168014D01*
X116045508Y-82558743D01*
X115963000Y-82973539D01*
X113276243Y-82973539D01*
X113276243Y-81915000D01*
X113259310Y-81743078D01*
X113209162Y-81577763D01*
X113127727Y-81425408D01*
X113018133Y-81291867D01*
X112884592Y-81182273D01*
X112732237Y-81100838D01*
X112566922Y-81050690D01*
X112395000Y-81033757D01*
X109855000Y-81033757D01*
X109683078Y-81050690D01*
X109517763Y-81100838D01*
X109365408Y-81182273D01*
X109231867Y-81291867D01*
X109122273Y-81425408D01*
X109040838Y-81577763D01*
X108990690Y-81743078D01*
X108973757Y-81915000D01*
X98245395Y-81915000D01*
X98303247Y-81857148D01*
X98174924Y-81565129D01*
X97839305Y-81397277D01*
X97477389Y-81298126D01*
X97103084Y-81271486D01*
X96730773Y-81318382D01*
X96374765Y-81437012D01*
X96135076Y-81565129D01*
X96006753Y-81857148D01*
X91864932Y-81857148D01*
X91837683Y-81816368D01*
X91538632Y-81517317D01*
X91186986Y-81282354D01*
X90796257Y-81120508D01*
X90381461Y-81038000D01*
X89958539Y-81038000D01*
X89543743Y-81120508D01*
X89153014Y-81282354D01*
X88801368Y-81517317D01*
X88502317Y-81816368D01*
X88267354Y-82168014D01*
X88105508Y-82558743D01*
X88023000Y-82973539D01*
X85336243Y-82973539D01*
X85336243Y-81915000D01*
X85319310Y-81743078D01*
X85269162Y-81577763D01*
X85187727Y-81425408D01*
X85078133Y-81291867D01*
X84944592Y-81182273D01*
X84792237Y-81100838D01*
X84626922Y-81050690D01*
X84455000Y-81033757D01*
X81915000Y-81033757D01*
X81743078Y-81050690D01*
X81577763Y-81100838D01*
X81425408Y-81182273D01*
X81291867Y-81291867D01*
X81182273Y-81425408D01*
X81100838Y-81577763D01*
X81050690Y-81743078D01*
X81033757Y-81915000D01*
X70305395Y-81915000D01*
X70363247Y-81857148D01*
X70234924Y-81565129D01*
X69899305Y-81397277D01*
X69537389Y-81298126D01*
X69163084Y-81271486D01*
X68790773Y-81318382D01*
X68434765Y-81437012D01*
X68195076Y-81565129D01*
X68066753Y-81857148D01*
X63924932Y-81857148D01*
X63897683Y-81816368D01*
X63598632Y-81517317D01*
X63246986Y-81282354D01*
X62856257Y-81120508D01*
X62441461Y-81038000D01*
X62018539Y-81038000D01*
X61603743Y-81120508D01*
X61213014Y-81282354D01*
X60861368Y-81517317D01*
X60562317Y-81816368D01*
X60327354Y-82168014D01*
X60165508Y-82558743D01*
X60083000Y-82973539D01*
X57396243Y-82973539D01*
X57396243Y-81915000D01*
X57379310Y-81743078D01*
X57329162Y-81577763D01*
X57247727Y-81425408D01*
X57138133Y-81291867D01*
X57004592Y-81182273D01*
X56852237Y-81100838D01*
X56686922Y-81050690D01*
X56515000Y-81033757D01*
X53975000Y-81033757D01*
X53803078Y-81050690D01*
X53637763Y-81100838D01*
X53485408Y-81182273D01*
X53351867Y-81291867D01*
X53242273Y-81425408D01*
X53160838Y-81577763D01*
X53110690Y-81743078D01*
X53093757Y-81915000D01*
X45110000Y-81915000D01*
X45110000Y-64483489D01*
X48526000Y-64483489D01*
X48526000Y-65056511D01*
X48637792Y-65618524D01*
X48857078Y-66147928D01*
X49175432Y-66624379D01*
X49580621Y-67029568D01*
X50057072Y-67347922D01*
X50586476Y-67567208D01*
X51148489Y-67679000D01*
X51721511Y-67679000D01*
X52283524Y-67567208D01*
X52812928Y-67347922D01*
X53289379Y-67029568D01*
X53694568Y-66624379D01*
X54012922Y-66147928D01*
X54232208Y-65618524D01*
X54344000Y-65056511D01*
X54344000Y-64483489D01*
X54285530Y-64189541D01*
X56336500Y-64189541D01*
X56336500Y-65350459D01*
X56562984Y-66489071D01*
X57007248Y-67561619D01*
X57652220Y-68526887D01*
X58473113Y-69347780D01*
X59438381Y-69992752D01*
X60510929Y-70437016D01*
X61649541Y-70663500D01*
X62810459Y-70663500D01*
X63949071Y-70437016D01*
X65021619Y-69992752D01*
X65986887Y-69347780D01*
X66807780Y-68526887D01*
X67452752Y-67561619D01*
X67897016Y-66489071D01*
X68123500Y-65350459D01*
X68123500Y-64483489D01*
X76466000Y-64483489D01*
X76466000Y-65056511D01*
X76577792Y-65618524D01*
X76797078Y-66147928D01*
X77115432Y-66624379D01*
X77520621Y-67029568D01*
X77997072Y-67347922D01*
X78526476Y-67567208D01*
X79088489Y-67679000D01*
X79661511Y-67679000D01*
X80223524Y-67567208D01*
X80752928Y-67347922D01*
X81229379Y-67029568D01*
X81634568Y-66624379D01*
X81952922Y-66147928D01*
X82172208Y-65618524D01*
X82284000Y-65056511D01*
X82284000Y-64483489D01*
X82225530Y-64189541D01*
X84276500Y-64189541D01*
X84276500Y-65350459D01*
X84502984Y-66489071D01*
X84947248Y-67561619D01*
X85592220Y-68526887D01*
X86413113Y-69347780D01*
X87378381Y-69992752D01*
X88450929Y-70437016D01*
X89589541Y-70663500D01*
X90750459Y-70663500D01*
X91889071Y-70437016D01*
X92961619Y-69992752D01*
X93926887Y-69347780D01*
X94747780Y-68526887D01*
X95392752Y-67561619D01*
X95837016Y-66489071D01*
X96063500Y-65350459D01*
X96063500Y-64483489D01*
X104406000Y-64483489D01*
X104406000Y-65056511D01*
X104517792Y-65618524D01*
X104737078Y-66147928D01*
X105055432Y-66624379D01*
X105460621Y-67029568D01*
X105937072Y-67347922D01*
X106466476Y-67567208D01*
X107028489Y-67679000D01*
X107601511Y-67679000D01*
X108163524Y-67567208D01*
X108692928Y-67347922D01*
X109169379Y-67029568D01*
X109574568Y-66624379D01*
X109892922Y-66147928D01*
X110112208Y-65618524D01*
X110224000Y-65056511D01*
X110224000Y-64483489D01*
X110165530Y-64189541D01*
X112216500Y-64189541D01*
X112216500Y-65350459D01*
X112442984Y-66489071D01*
X112887248Y-67561619D01*
X113532220Y-68526887D01*
X114353113Y-69347780D01*
X115318381Y-69992752D01*
X116390929Y-70437016D01*
X117529541Y-70663500D01*
X118690459Y-70663500D01*
X119829071Y-70437016D01*
X120901619Y-69992752D01*
X121866887Y-69347780D01*
X122687780Y-68526887D01*
X123332752Y-67561619D01*
X123777016Y-66489071D01*
X124003500Y-65350459D01*
X124003500Y-64508505D01*
X130695000Y-64508505D01*
X130695000Y-65031495D01*
X130797031Y-65544435D01*
X130997170Y-66027614D01*
X131287727Y-66462464D01*
X131657536Y-66832273D01*
X132092386Y-67122830D01*
X132575565Y-67322969D01*
X133088505Y-67425000D01*
X133611495Y-67425000D01*
X134124435Y-67322969D01*
X134607614Y-67122830D01*
X135042464Y-66832273D01*
X135412273Y-66462464D01*
X135702830Y-66027614D01*
X135902969Y-65544435D01*
X136005000Y-65031495D01*
X136005000Y-64508505D01*
X135956483Y-64264591D01*
X139648500Y-64264591D01*
X139648500Y-65275409D01*
X139845701Y-66266803D01*
X140232524Y-67200677D01*
X140794104Y-68041140D01*
X141508860Y-68755896D01*
X142349323Y-69317476D01*
X143283197Y-69704299D01*
X144274591Y-69901500D01*
X145285409Y-69901500D01*
X146276803Y-69704299D01*
X147210677Y-69317476D01*
X148051140Y-68755896D01*
X148765896Y-68041140D01*
X149327476Y-67200677D01*
X149714299Y-66266803D01*
X149911500Y-65275409D01*
X149911500Y-64264591D01*
X149714299Y-63273197D01*
X149699930Y-63238505D01*
X159905000Y-63238505D01*
X159905000Y-63761495D01*
X160007031Y-64274435D01*
X160207170Y-64757614D01*
X160497727Y-65192464D01*
X160867536Y-65562273D01*
X161302386Y-65852830D01*
X161785565Y-66052969D01*
X162298505Y-66155000D01*
X162821495Y-66155000D01*
X163334435Y-66052969D01*
X163817614Y-65852830D01*
X164252464Y-65562273D01*
X164622273Y-65192464D01*
X164912830Y-64757614D01*
X165112969Y-64274435D01*
X165215000Y-63761495D01*
X165215000Y-63238505D01*
X165166483Y-62994591D01*
X168858500Y-62994591D01*
X168858500Y-64005409D01*
X169055701Y-64996803D01*
X169442524Y-65930677D01*
X170004104Y-66771140D01*
X170718860Y-67485896D01*
X171559323Y-68047476D01*
X172493197Y-68434299D01*
X173484591Y-68631500D01*
X174495409Y-68631500D01*
X175486803Y-68434299D01*
X176420677Y-68047476D01*
X177261140Y-67485896D01*
X177975896Y-66771140D01*
X178537476Y-65930677D01*
X178924299Y-64996803D01*
X179121500Y-64005409D01*
X179121500Y-63238505D01*
X187845000Y-63238505D01*
X187845000Y-63761495D01*
X187947031Y-64274435D01*
X188147170Y-64757614D01*
X188437727Y-65192464D01*
X188807536Y-65562273D01*
X189242386Y-65852830D01*
X189725565Y-66052969D01*
X190238505Y-66155000D01*
X190761495Y-66155000D01*
X191274435Y-66052969D01*
X191757614Y-65852830D01*
X192192464Y-65562273D01*
X192562273Y-65192464D01*
X192852830Y-64757614D01*
X193052969Y-64274435D01*
X193155000Y-63761495D01*
X193155000Y-63238505D01*
X193106483Y-62994591D01*
X196798500Y-62994591D01*
X196798500Y-64005409D01*
X196995701Y-64996803D01*
X197382524Y-65930677D01*
X197944104Y-66771140D01*
X198658860Y-67485896D01*
X199499323Y-68047476D01*
X200433197Y-68434299D01*
X201424591Y-68631500D01*
X202435409Y-68631500D01*
X203426803Y-68434299D01*
X204360677Y-68047476D01*
X205201140Y-67485896D01*
X205915896Y-66771140D01*
X206477476Y-65930677D01*
X206864299Y-64996803D01*
X207061500Y-64005409D01*
X207061500Y-62994591D01*
X206864299Y-62003197D01*
X206477476Y-61069323D01*
X205915896Y-60228860D01*
X205201140Y-59514104D01*
X204360677Y-58952524D01*
X203426803Y-58565701D01*
X202435409Y-58368500D01*
X201424591Y-58368500D01*
X200433197Y-58565701D01*
X199499323Y-58952524D01*
X198658860Y-59514104D01*
X197944104Y-60228860D01*
X197382524Y-61069323D01*
X196995701Y-62003197D01*
X196798500Y-62994591D01*
X193106483Y-62994591D01*
X193052969Y-62725565D01*
X192852830Y-62242386D01*
X192562273Y-61807536D01*
X192192464Y-61437727D01*
X191757614Y-61147170D01*
X191274435Y-60947031D01*
X190761495Y-60845000D01*
X190238505Y-60845000D01*
X189725565Y-60947031D01*
X189242386Y-61147170D01*
X188807536Y-61437727D01*
X188437727Y-61807536D01*
X188147170Y-62242386D01*
X187947031Y-62725565D01*
X187845000Y-63238505D01*
X179121500Y-63238505D01*
X179121500Y-62994591D01*
X178924299Y-62003197D01*
X178537476Y-61069323D01*
X177975896Y-60228860D01*
X177261140Y-59514104D01*
X176420677Y-58952524D01*
X175486803Y-58565701D01*
X174495409Y-58368500D01*
X173484591Y-58368500D01*
X172493197Y-58565701D01*
X171559323Y-58952524D01*
X170718860Y-59514104D01*
X170004104Y-60228860D01*
X169442524Y-61069323D01*
X169055701Y-62003197D01*
X168858500Y-62994591D01*
X165166483Y-62994591D01*
X165112969Y-62725565D01*
X164912830Y-62242386D01*
X164622273Y-61807536D01*
X164252464Y-61437727D01*
X163817614Y-61147170D01*
X163334435Y-60947031D01*
X162821495Y-60845000D01*
X162298505Y-60845000D01*
X161785565Y-60947031D01*
X161302386Y-61147170D01*
X160867536Y-61437727D01*
X160497727Y-61807536D01*
X160207170Y-62242386D01*
X160007031Y-62725565D01*
X159905000Y-63238505D01*
X149699930Y-63238505D01*
X149327476Y-62339323D01*
X148765896Y-61498860D01*
X148051140Y-60784104D01*
X147210677Y-60222524D01*
X146276803Y-59835701D01*
X145285409Y-59638500D01*
X144274591Y-59638500D01*
X143283197Y-59835701D01*
X142349323Y-60222524D01*
X141508860Y-60784104D01*
X140794104Y-61498860D01*
X140232524Y-62339323D01*
X139845701Y-63273197D01*
X139648500Y-64264591D01*
X135956483Y-64264591D01*
X135902969Y-63995565D01*
X135702830Y-63512386D01*
X135412273Y-63077536D01*
X135042464Y-62707727D01*
X134607614Y-62417170D01*
X134124435Y-62217031D01*
X133611495Y-62115000D01*
X133088505Y-62115000D01*
X132575565Y-62217031D01*
X132092386Y-62417170D01*
X131657536Y-62707727D01*
X131287727Y-63077536D01*
X130997170Y-63512386D01*
X130797031Y-63995565D01*
X130695000Y-64508505D01*
X124003500Y-64508505D01*
X124003500Y-64189541D01*
X123777016Y-63050929D01*
X123332752Y-61978381D01*
X122687780Y-61013113D01*
X121866887Y-60192220D01*
X120901619Y-59547248D01*
X119829071Y-59102984D01*
X118690459Y-58876500D01*
X117529541Y-58876500D01*
X116390929Y-59102984D01*
X115318381Y-59547248D01*
X114353113Y-60192220D01*
X113532220Y-61013113D01*
X112887248Y-61978381D01*
X112442984Y-63050929D01*
X112216500Y-64189541D01*
X110165530Y-64189541D01*
X110112208Y-63921476D01*
X109892922Y-63392072D01*
X109574568Y-62915621D01*
X109169379Y-62510432D01*
X108692928Y-62192078D01*
X108163524Y-61972792D01*
X107601511Y-61861000D01*
X107028489Y-61861000D01*
X106466476Y-61972792D01*
X105937072Y-62192078D01*
X105460621Y-62510432D01*
X105055432Y-62915621D01*
X104737078Y-63392072D01*
X104517792Y-63921476D01*
X104406000Y-64483489D01*
X96063500Y-64483489D01*
X96063500Y-64189541D01*
X95837016Y-63050929D01*
X95392752Y-61978381D01*
X94747780Y-61013113D01*
X93926887Y-60192220D01*
X92961619Y-59547248D01*
X91889071Y-59102984D01*
X90750459Y-58876500D01*
X89589541Y-58876500D01*
X88450929Y-59102984D01*
X87378381Y-59547248D01*
X86413113Y-60192220D01*
X85592220Y-61013113D01*
X84947248Y-61978381D01*
X84502984Y-63050929D01*
X84276500Y-64189541D01*
X82225530Y-64189541D01*
X82172208Y-63921476D01*
X81952922Y-63392072D01*
X81634568Y-62915621D01*
X81229379Y-62510432D01*
X80752928Y-62192078D01*
X80223524Y-61972792D01*
X79661511Y-61861000D01*
X79088489Y-61861000D01*
X78526476Y-61972792D01*
X77997072Y-62192078D01*
X77520621Y-62510432D01*
X77115432Y-62915621D01*
X76797078Y-63392072D01*
X76577792Y-63921476D01*
X76466000Y-64483489D01*
X68123500Y-64483489D01*
X68123500Y-64189541D01*
X67897016Y-63050929D01*
X67452752Y-61978381D01*
X66807780Y-61013113D01*
X65986887Y-60192220D01*
X65021619Y-59547248D01*
X63949071Y-59102984D01*
X62810459Y-58876500D01*
X61649541Y-58876500D01*
X60510929Y-59102984D01*
X59438381Y-59547248D01*
X58473113Y-60192220D01*
X57652220Y-61013113D01*
X57007248Y-61978381D01*
X56562984Y-63050929D01*
X56336500Y-64189541D01*
X54285530Y-64189541D01*
X54232208Y-63921476D01*
X54012922Y-63392072D01*
X53694568Y-62915621D01*
X53289379Y-62510432D01*
X52812928Y-62192078D01*
X52283524Y-61972792D01*
X51721511Y-61861000D01*
X51148489Y-61861000D01*
X50586476Y-61972792D01*
X50057072Y-62192078D01*
X49580621Y-62510432D01*
X49175432Y-62915621D01*
X48857078Y-63392072D01*
X48637792Y-63921476D01*
X48526000Y-64483489D01*
X45110000Y-64483489D01*
X45110000Y-45372621D01*
X47273000Y-45372621D01*
X47273000Y-46067379D01*
X47408540Y-46748788D01*
X47674413Y-47390661D01*
X48060400Y-47968332D01*
X48551668Y-48459600D01*
X49129339Y-48845587D01*
X49771212Y-49111460D01*
X50452621Y-49247000D01*
X51147379Y-49247000D01*
X51828788Y-49111460D01*
X52470661Y-48845587D01*
X53048332Y-48459600D01*
X53539600Y-47968332D01*
X53925587Y-47390661D01*
X54191460Y-46748788D01*
X54327000Y-46067379D01*
X54327000Y-45372621D01*
X54191460Y-44691212D01*
X53933731Y-44069000D01*
X67317757Y-44069000D01*
X67317757Y-47371000D01*
X67334690Y-47542922D01*
X67384838Y-47708237D01*
X67466273Y-47860592D01*
X67575867Y-47994133D01*
X67709408Y-48103727D01*
X67861763Y-48185162D01*
X68027078Y-48235310D01*
X68199000Y-48252243D01*
X71501000Y-48252243D01*
X71672922Y-48235310D01*
X71838237Y-48185162D01*
X71990592Y-48103727D01*
X72124133Y-47994133D01*
X72233727Y-47860592D01*
X72315162Y-47708237D01*
X72365310Y-47542922D01*
X72382243Y-47371000D01*
X72382243Y-47319147D01*
X73027858Y-47319147D01*
X73202032Y-47650167D01*
X73602518Y-47856039D01*
X74035472Y-47979824D01*
X74484257Y-48016766D01*
X74931625Y-47965443D01*
X75360385Y-47827830D01*
X75692768Y-47650167D01*
X75866942Y-47319147D01*
X74447400Y-45899605D01*
X73027858Y-47319147D01*
X72382243Y-47319147D01*
X72382243Y-46712820D01*
X72517233Y-46965368D01*
X72848253Y-47139542D01*
X74267795Y-45720000D01*
X74627005Y-45720000D01*
X76046547Y-47139542D01*
X76377567Y-46965368D01*
X76583439Y-46564882D01*
X76707224Y-46131928D01*
X76744166Y-45683143D01*
X76692843Y-45235775D01*
X76555230Y-44807015D01*
X76377567Y-44474632D01*
X76046547Y-44300458D01*
X74627005Y-45720000D01*
X74267795Y-45720000D01*
X72848253Y-44300458D01*
X72517233Y-44474632D01*
X72382243Y-44737230D01*
X72382243Y-44120853D01*
X73027858Y-44120853D01*
X74447400Y-45540395D01*
X75866942Y-44120853D01*
X75839659Y-44069000D01*
X91930357Y-44069000D01*
X91930357Y-47371000D01*
X91947290Y-47542922D01*
X91997438Y-47708237D01*
X92078873Y-47860592D01*
X92188467Y-47994133D01*
X92322008Y-48103727D01*
X92474363Y-48185162D01*
X92639678Y-48235310D01*
X92811600Y-48252243D01*
X96113600Y-48252243D01*
X96285522Y-48235310D01*
X96450837Y-48185162D01*
X96603192Y-48103727D01*
X96736733Y-47994133D01*
X96846327Y-47860592D01*
X96927762Y-47708237D01*
X96977910Y-47542922D01*
X96994843Y-47371000D01*
X96994843Y-47319147D01*
X97640458Y-47319147D01*
X97814632Y-47650167D01*
X98215118Y-47856039D01*
X98648072Y-47979824D01*
X99096857Y-48016766D01*
X99544225Y-47965443D01*
X99972985Y-47827830D01*
X100305368Y-47650167D01*
X100479542Y-47319147D01*
X99060000Y-45899605D01*
X97640458Y-47319147D01*
X96994843Y-47319147D01*
X96994843Y-46712820D01*
X97129833Y-46965368D01*
X97460853Y-47139542D01*
X98880395Y-45720000D01*
X99239605Y-45720000D01*
X100659147Y-47139542D01*
X100990167Y-46965368D01*
X101196039Y-46564882D01*
X101319824Y-46131928D01*
X101356766Y-45683143D01*
X101305443Y-45235775D01*
X101167830Y-44807015D01*
X100990167Y-44474632D01*
X100659147Y-44300458D01*
X99239605Y-45720000D01*
X98880395Y-45720000D01*
X97460853Y-44300458D01*
X97129833Y-44474632D01*
X96994843Y-44737230D01*
X96994843Y-44120853D01*
X97640458Y-44120853D01*
X99060000Y-45540395D01*
X100479542Y-44120853D01*
X100452259Y-44069000D01*
X116060357Y-44069000D01*
X116060357Y-47371000D01*
X116077290Y-47542922D01*
X116127438Y-47708237D01*
X116208873Y-47860592D01*
X116318467Y-47994133D01*
X116452008Y-48103727D01*
X116604363Y-48185162D01*
X116769678Y-48235310D01*
X116941600Y-48252243D01*
X120243600Y-48252243D01*
X120415522Y-48235310D01*
X120580837Y-48185162D01*
X120733192Y-48103727D01*
X120866733Y-47994133D01*
X120976327Y-47860592D01*
X121057762Y-47708237D01*
X121107910Y-47542922D01*
X121124843Y-47371000D01*
X121124843Y-47319147D01*
X121770458Y-47319147D01*
X121944632Y-47650167D01*
X122345118Y-47856039D01*
X122778072Y-47979824D01*
X123226857Y-48016766D01*
X123674225Y-47965443D01*
X124102985Y-47827830D01*
X124435368Y-47650167D01*
X124609542Y-47319147D01*
X123190000Y-45899605D01*
X121770458Y-47319147D01*
X121124843Y-47319147D01*
X121124843Y-46712820D01*
X121259833Y-46965368D01*
X121590853Y-47139542D01*
X123010395Y-45720000D01*
X123369605Y-45720000D01*
X124789147Y-47139542D01*
X125120167Y-46965368D01*
X125326039Y-46564882D01*
X125449824Y-46131928D01*
X125486766Y-45683143D01*
X125435443Y-45235775D01*
X125297830Y-44807015D01*
X125120167Y-44474632D01*
X124789147Y-44300458D01*
X123369605Y-45720000D01*
X123010395Y-45720000D01*
X121590853Y-44300458D01*
X121259833Y-44474632D01*
X121124843Y-44737230D01*
X121124843Y-44120853D01*
X121770458Y-44120853D01*
X123190000Y-45540395D01*
X124609542Y-44120853D01*
X124582259Y-44069000D01*
X140190357Y-44069000D01*
X140190357Y-47371000D01*
X140207290Y-47542922D01*
X140257438Y-47708237D01*
X140338873Y-47860592D01*
X140448467Y-47994133D01*
X140582008Y-48103727D01*
X140734363Y-48185162D01*
X140899678Y-48235310D01*
X141071600Y-48252243D01*
X144373600Y-48252243D01*
X144545522Y-48235310D01*
X144710837Y-48185162D01*
X144863192Y-48103727D01*
X144996733Y-47994133D01*
X145106327Y-47860592D01*
X145187762Y-47708237D01*
X145237910Y-47542922D01*
X145254843Y-47371000D01*
X145254843Y-47319147D01*
X145900458Y-47319147D01*
X146074632Y-47650167D01*
X146475118Y-47856039D01*
X146908072Y-47979824D01*
X147356857Y-48016766D01*
X147804225Y-47965443D01*
X148232985Y-47827830D01*
X148565368Y-47650167D01*
X148739542Y-47319147D01*
X147320000Y-45899605D01*
X145900458Y-47319147D01*
X145254843Y-47319147D01*
X145254843Y-46712820D01*
X145389833Y-46965368D01*
X145720853Y-47139542D01*
X147140395Y-45720000D01*
X147499605Y-45720000D01*
X148919147Y-47139542D01*
X149250167Y-46965368D01*
X149456039Y-46564882D01*
X149579824Y-46131928D01*
X149616766Y-45683143D01*
X149565443Y-45235775D01*
X149427830Y-44807015D01*
X149250167Y-44474632D01*
X148919147Y-44300458D01*
X147499605Y-45720000D01*
X147140395Y-45720000D01*
X145720853Y-44300458D01*
X145389833Y-44474632D01*
X145254843Y-44737230D01*
X145254843Y-44120853D01*
X145900458Y-44120853D01*
X147320000Y-45540395D01*
X148739542Y-44120853D01*
X148712259Y-44069000D01*
X163837757Y-44069000D01*
X163837757Y-47371000D01*
X163854690Y-47542922D01*
X163904838Y-47708237D01*
X163986273Y-47860592D01*
X164095867Y-47994133D01*
X164229408Y-48103727D01*
X164381763Y-48185162D01*
X164547078Y-48235310D01*
X164719000Y-48252243D01*
X168021000Y-48252243D01*
X168192922Y-48235310D01*
X168358237Y-48185162D01*
X168510592Y-48103727D01*
X168644133Y-47994133D01*
X168753727Y-47860592D01*
X168835162Y-47708237D01*
X168885310Y-47542922D01*
X168902243Y-47371000D01*
X168902243Y-47319147D01*
X169547858Y-47319147D01*
X169722032Y-47650167D01*
X170122518Y-47856039D01*
X170555472Y-47979824D01*
X171004257Y-48016766D01*
X171451625Y-47965443D01*
X171880385Y-47827830D01*
X172212768Y-47650167D01*
X172386942Y-47319147D01*
X170967400Y-45899605D01*
X169547858Y-47319147D01*
X168902243Y-47319147D01*
X168902243Y-46712820D01*
X169037233Y-46965368D01*
X169368253Y-47139542D01*
X170787795Y-45720000D01*
X171147005Y-45720000D01*
X172566547Y-47139542D01*
X172897567Y-46965368D01*
X173103439Y-46564882D01*
X173227224Y-46131928D01*
X173264166Y-45683143D01*
X173212843Y-45235775D01*
X173075230Y-44807015D01*
X172897567Y-44474632D01*
X172566547Y-44300458D01*
X171147005Y-45720000D01*
X170787795Y-45720000D01*
X169368253Y-44300458D01*
X169037233Y-44474632D01*
X168902243Y-44737230D01*
X168902243Y-44120853D01*
X169547858Y-44120853D01*
X170967400Y-45540395D01*
X172386942Y-44120853D01*
X172359659Y-44069000D01*
X187967757Y-44069000D01*
X187967757Y-47371000D01*
X187984690Y-47542922D01*
X188034838Y-47708237D01*
X188116273Y-47860592D01*
X188225867Y-47994133D01*
X188359408Y-48103727D01*
X188511763Y-48185162D01*
X188677078Y-48235310D01*
X188849000Y-48252243D01*
X192151000Y-48252243D01*
X192322922Y-48235310D01*
X192488237Y-48185162D01*
X192640592Y-48103727D01*
X192774133Y-47994133D01*
X192883727Y-47860592D01*
X192965162Y-47708237D01*
X193015310Y-47542922D01*
X193032243Y-47371000D01*
X193032243Y-47319147D01*
X193677858Y-47319147D01*
X193852032Y-47650167D01*
X194252518Y-47856039D01*
X194685472Y-47979824D01*
X195134257Y-48016766D01*
X195581625Y-47965443D01*
X196010385Y-47827830D01*
X196342768Y-47650167D01*
X196516942Y-47319147D01*
X195097400Y-45899605D01*
X193677858Y-47319147D01*
X193032243Y-47319147D01*
X193032243Y-46712820D01*
X193167233Y-46965368D01*
X193498253Y-47139542D01*
X194917795Y-45720000D01*
X195277005Y-45720000D01*
X196696547Y-47139542D01*
X197027567Y-46965368D01*
X197233439Y-46564882D01*
X197357224Y-46131928D01*
X197394166Y-45683143D01*
X197358543Y-45372621D01*
X204753000Y-45372621D01*
X204753000Y-46067379D01*
X204888540Y-46748788D01*
X205154413Y-47390661D01*
X205540400Y-47968332D01*
X206031668Y-48459600D01*
X206609339Y-48845587D01*
X207251212Y-49111460D01*
X207932621Y-49247000D01*
X208627379Y-49247000D01*
X209308788Y-49111460D01*
X209950661Y-48845587D01*
X210528332Y-48459600D01*
X211019600Y-47968332D01*
X211405587Y-47390661D01*
X211671460Y-46748788D01*
X211807000Y-46067379D01*
X211807000Y-45372621D01*
X211671460Y-44691212D01*
X211405587Y-44049339D01*
X211019600Y-43471668D01*
X210528332Y-42980400D01*
X209950661Y-42594413D01*
X209308788Y-42328540D01*
X208627379Y-42193000D01*
X207932621Y-42193000D01*
X207251212Y-42328540D01*
X206609339Y-42594413D01*
X206031668Y-42980400D01*
X205540400Y-43471668D01*
X205154413Y-44049339D01*
X204888540Y-44691212D01*
X204753000Y-45372621D01*
X197358543Y-45372621D01*
X197342843Y-45235775D01*
X197205230Y-44807015D01*
X197027567Y-44474632D01*
X196696547Y-44300458D01*
X195277005Y-45720000D01*
X194917795Y-45720000D01*
X193498253Y-44300458D01*
X193167233Y-44474632D01*
X193032243Y-44737230D01*
X193032243Y-44120853D01*
X193677858Y-44120853D01*
X195097400Y-45540395D01*
X196516942Y-44120853D01*
X196342768Y-43789833D01*
X195942282Y-43583961D01*
X195509328Y-43460176D01*
X195060543Y-43423234D01*
X194613175Y-43474557D01*
X194184415Y-43612170D01*
X193852032Y-43789833D01*
X193677858Y-44120853D01*
X193032243Y-44120853D01*
X193032243Y-44069000D01*
X193015310Y-43897078D01*
X192965162Y-43731763D01*
X192883727Y-43579408D01*
X192774133Y-43445867D01*
X192640592Y-43336273D01*
X192488237Y-43254838D01*
X192322922Y-43204690D01*
X192151000Y-43187757D01*
X188849000Y-43187757D01*
X188677078Y-43204690D01*
X188511763Y-43254838D01*
X188359408Y-43336273D01*
X188225867Y-43445867D01*
X188116273Y-43579408D01*
X188034838Y-43731763D01*
X187984690Y-43897078D01*
X187967757Y-44069000D01*
X172359659Y-44069000D01*
X172212768Y-43789833D01*
X171812282Y-43583961D01*
X171379328Y-43460176D01*
X170930543Y-43423234D01*
X170483175Y-43474557D01*
X170054415Y-43612170D01*
X169722032Y-43789833D01*
X169547858Y-44120853D01*
X168902243Y-44120853D01*
X168902243Y-44069000D01*
X168885310Y-43897078D01*
X168835162Y-43731763D01*
X168753727Y-43579408D01*
X168644133Y-43445867D01*
X168510592Y-43336273D01*
X168358237Y-43254838D01*
X168192922Y-43204690D01*
X168021000Y-43187757D01*
X164719000Y-43187757D01*
X164547078Y-43204690D01*
X164381763Y-43254838D01*
X164229408Y-43336273D01*
X164095867Y-43445867D01*
X163986273Y-43579408D01*
X163904838Y-43731763D01*
X163854690Y-43897078D01*
X163837757Y-44069000D01*
X148712259Y-44069000D01*
X148565368Y-43789833D01*
X148164882Y-43583961D01*
X147731928Y-43460176D01*
X147283143Y-43423234D01*
X146835775Y-43474557D01*
X146407015Y-43612170D01*
X146074632Y-43789833D01*
X145900458Y-44120853D01*
X145254843Y-44120853D01*
X145254843Y-44069000D01*
X145237910Y-43897078D01*
X145187762Y-43731763D01*
X145106327Y-43579408D01*
X144996733Y-43445867D01*
X144863192Y-43336273D01*
X144710837Y-43254838D01*
X144545522Y-43204690D01*
X144373600Y-43187757D01*
X141071600Y-43187757D01*
X140899678Y-43204690D01*
X140734363Y-43254838D01*
X140582008Y-43336273D01*
X140448467Y-43445867D01*
X140338873Y-43579408D01*
X140257438Y-43731763D01*
X140207290Y-43897078D01*
X140190357Y-44069000D01*
X124582259Y-44069000D01*
X124435368Y-43789833D01*
X124034882Y-43583961D01*
X123601928Y-43460176D01*
X123153143Y-43423234D01*
X122705775Y-43474557D01*
X122277015Y-43612170D01*
X121944632Y-43789833D01*
X121770458Y-44120853D01*
X121124843Y-44120853D01*
X121124843Y-44069000D01*
X121107910Y-43897078D01*
X121057762Y-43731763D01*
X120976327Y-43579408D01*
X120866733Y-43445867D01*
X120733192Y-43336273D01*
X120580837Y-43254838D01*
X120415522Y-43204690D01*
X120243600Y-43187757D01*
X116941600Y-43187757D01*
X116769678Y-43204690D01*
X116604363Y-43254838D01*
X116452008Y-43336273D01*
X116318467Y-43445867D01*
X116208873Y-43579408D01*
X116127438Y-43731763D01*
X116077290Y-43897078D01*
X116060357Y-44069000D01*
X100452259Y-44069000D01*
X100305368Y-43789833D01*
X99904882Y-43583961D01*
X99471928Y-43460176D01*
X99023143Y-43423234D01*
X98575775Y-43474557D01*
X98147015Y-43612170D01*
X97814632Y-43789833D01*
X97640458Y-44120853D01*
X96994843Y-44120853D01*
X96994843Y-44069000D01*
X96977910Y-43897078D01*
X96927762Y-43731763D01*
X96846327Y-43579408D01*
X96736733Y-43445867D01*
X96603192Y-43336273D01*
X96450837Y-43254838D01*
X96285522Y-43204690D01*
X96113600Y-43187757D01*
X92811600Y-43187757D01*
X92639678Y-43204690D01*
X92474363Y-43254838D01*
X92322008Y-43336273D01*
X92188467Y-43445867D01*
X92078873Y-43579408D01*
X91997438Y-43731763D01*
X91947290Y-43897078D01*
X91930357Y-44069000D01*
X75839659Y-44069000D01*
X75692768Y-43789833D01*
X75292282Y-43583961D01*
X74859328Y-43460176D01*
X74410543Y-43423234D01*
X73963175Y-43474557D01*
X73534415Y-43612170D01*
X73202032Y-43789833D01*
X73027858Y-44120853D01*
X72382243Y-44120853D01*
X72382243Y-44069000D01*
X72365310Y-43897078D01*
X72315162Y-43731763D01*
X72233727Y-43579408D01*
X72124133Y-43445867D01*
X71990592Y-43336273D01*
X71838237Y-43254838D01*
X71672922Y-43204690D01*
X71501000Y-43187757D01*
X68199000Y-43187757D01*
X68027078Y-43204690D01*
X67861763Y-43254838D01*
X67709408Y-43336273D01*
X67575867Y-43445867D01*
X67466273Y-43579408D01*
X67384838Y-43731763D01*
X67334690Y-43897078D01*
X67317757Y-44069000D01*
X53933731Y-44069000D01*
X53925587Y-44049339D01*
X53539600Y-43471668D01*
X53048332Y-42980400D01*
X52470661Y-42594413D01*
X51828788Y-42328540D01*
X51147379Y-42193000D01*
X50452621Y-42193000D01*
X49771212Y-42328540D01*
X49129339Y-42594413D01*
X48551668Y-42980400D01*
X48060400Y-43471668D01*
X47674413Y-44049339D01*
X47408540Y-44691212D01*
X47273000Y-45372621D01*
X45110000Y-45372621D01*
X45110000Y-38760000D01*
X215240000Y-38760000D01*
X215240001Y-149200000D01*
%TD*%
M02*
